<svg width="126" height="126" viewBox="0 0 126 126" fill="none" xmlns="http://www.w3.org/2000/svg">
<path d="M8.70124 125.375C8.17047 124.844 8.07743 124.511 8.07743 123.143C8.07743 121.376 8.47914 120.529 9.50088 120.14C10.3491 119.818 11.3108 120.239 11.8366 121.163L12.2708 121.927L18.3068 121.929L24.3427 121.931V118.258C24.3427 114.772 24.3732 114.549 24.9378 113.892C25.7545 112.942 26.9973 112.942 27.8139 113.892C28.3951 114.568 28.409 114.704 28.409 119.668C28.409 124.726 28.4061 124.755 27.7852 125.376L27.1614 126H18.2432H9.32506L8.70124 125.375ZM37.1655 125.375C36.5491 124.758 36.5417 124.696 36.5417 120.15C36.5417 115.605 36.5494 115.542 37.1655 114.925C37.5587 114.532 38.0797 114.301 38.5748 114.301C39.07 114.301 39.591 114.532 39.9842 114.925C40.5802 115.522 40.608 115.692 40.608 118.74V121.93H46.7075H52.8069V117.842V113.753L53.5498 113.01C54.4895 112.07 55.1907 112.07 56.1304 113.01L56.8733 113.753V119.252V124.751L56.2495 125.375L55.6256 125.999H46.7075H37.7893L37.1655 125.375ZM65.6297 125.375L65.0059 124.751V114.301V103.851L65.6297 103.227C66.0229 102.834 66.5439 102.603 67.0391 102.603C67.5342 102.603 68.0552 102.834 68.4484 103.227L69.0722 103.851V112.891V121.93H75.1717H81.2712V108.593V95.2564L81.8663 94.564C82.6847 93.612 83.9257 93.614 84.7464 94.5688L85.3455 95.2658L85.278 110.147L85.2104 125.027L84.6105 125.513C84.0453 125.971 83.4945 125.999 75.132 125.999H66.2535L65.6297 125.375ZM94.0939 125.375L93.4701 124.751V111.122V97.4936L94.0939 96.8694C94.4872 96.476 95.0081 96.2452 95.5033 96.2452C95.9985 96.2452 96.5194 96.476 96.9127 96.8694L97.5365 97.4936V109.712V121.93H103.636H109.735V103.863V85.7955L110.359 85.1713C111.185 84.3455 112.353 84.3455 113.178 85.1713L113.802 85.7955V105.273V124.751L113.178 125.375L112.554 125.999H103.636H94.7178L94.0939 125.375ZM1.043 119.594C0.738441 119.446 0.349487 118.988 0.178654 118.575C-0.0769671 117.958 -0.0628874 117.682 0.258185 117.017C0.622704 116.261 1.61355 115.795 15.3551 109.914C23.4439 106.452 30.2333 103.621 30.4427 103.623C30.6521 103.624 34.3055 104.935 38.5613 106.537C42.987 108.202 46.4137 109.36 46.5669 109.241C46.7141 109.127 53.45 103.745 61.5355 97.2818C69.621 90.8183 76.4045 85.4654 76.6099 85.3865C76.8152 85.3076 81.4441 86.1346 86.8962 87.2241L96.8092 89.2051L97.4023 88.5927C97.7285 88.2558 102.768 82.8305 108.601 76.5364L119.207 65.0926L117.994 64.9499C115.942 64.7084 115.116 62.864 116.459 61.5207C117.062 60.9175 117.202 60.8965 120.64 60.8965C124.457 60.8965 125.265 61.0849 125.719 62.0809C125.882 62.4408 126.001 64.1932 126.001 66.2605C126.001 69.7011 125.98 69.8413 125.377 70.4446C124.142 71.6804 122.262 70.9869 121.966 69.1859L121.807 68.2245L110.409 80.5183C104.14 87.2799 98.7489 92.9741 98.4284 93.1722C97.9048 93.4958 96.8344 93.3302 87.8768 91.5401C79.5404 89.8742 77.8255 89.5995 77.404 89.8629C77.1268 90.0361 70.3413 95.4303 62.3251 101.85C54.3088 108.27 47.4657 113.593 47.118 113.681C46.6636 113.795 44.2798 113.011 38.6374 110.891C34.3206 109.27 30.6625 107.943 30.5082 107.943C30.3539 107.943 23.9587 110.633 16.2967 113.92C8.6347 117.207 2.19275 119.888 1.98128 119.879C1.7698 119.869 1.34755 119.741 1.043 119.594ZM9.18655 108.409C8.24612 107.953 8.07743 107.105 8.07743 102.834C8.07743 98.8531 8.09088 98.7517 8.70124 98.141L9.32506 97.5168H18.2432H27.1614L27.7852 98.141C28.6105 98.9668 28.6105 100.136 27.7852 100.961L27.1614 101.586H19.6526H12.1438V104.244C12.1438 107.146 11.9037 107.994 10.9601 108.424C10.2216 108.761 9.90711 108.758 9.18655 108.409ZM37.1655 102.487L36.5417 101.863V92.1757V82.4884L37.2406 81.8416L37.9395 81.1949L38.2189 75.051C38.3985 71.1014 38.4106 68.8498 38.2525 68.7465C38.1173 68.6582 37.1757 68.4517 36.16 68.2878C30.5435 67.3812 23.5206 64.962 20.3153 62.8297C17.3124 60.8321 16.2374 59.0536 16.2262 56.0647C16.2195 54.22 16.7884 49.5752 17.2285 47.8836C17.3861 47.278 17.626 46.3538 17.7616 45.8299C18.2443 43.9649 19.7808 43.3218 21.16 44.4074C21.7905 44.9036 21.8441 45.0698 21.7134 46.124C21.6339 46.7659 21.338 48.321 21.056 49.5799C20.774 50.8387 20.4674 53.0258 20.3747 54.4401C20.2298 56.6498 20.2699 57.1195 20.6596 57.7797C22.0116 60.0699 28.7814 62.7473 37.22 64.3293C39.1533 64.6918 40.9909 65.0422 41.3037 65.1081C41.6164 65.1739 42.0564 65.5089 42.2813 65.8525C42.648 66.4125 42.6615 67.0545 42.4116 72.048C42.2583 75.112 42.1329 78.4339 42.1329 79.43V81.2411H44.122H46.1111L47.2956 72.9406C48.294 65.9448 48.4308 64.5357 48.1657 63.9763C47.9806 63.5856 44.7661 60.9987 40.3539 57.6896C35.1428 53.7813 32.7826 51.8596 32.6141 51.3875C32.3387 50.616 32.4209 50.3684 34.6495 45.2566C36.4317 41.169 37.9472 36.6846 38.3585 34.2823C38.6071 32.8299 38.6051 32.2464 38.3484 31.3892C37.9205 29.9602 36.1435 28.103 34.3249 27.1841C32.27 26.1458 30.801 26.2005 27.5195 27.4377C24.7871 28.4679 14.1428 33.5675 12.9479 34.4188C12.0058 35.0901 5.53596 46.3022 5.53596 47.2636C5.53596 48.8413 7.80048 49.7951 9.07299 48.7534C9.37197 48.5086 10.7856 46.1969 12.2144 43.6162L14.8122 38.9241L20.4863 36.6636C24.3951 35.1064 26.3464 34.4499 26.7586 34.5534C28.0531 34.8785 28.6894 36.2157 28.1142 37.4022C27.8246 37.9995 27.0143 38.4112 22.6965 40.1548L17.6193 42.2049L15.3182 46.3452C14.0525 48.6223 12.6786 50.8442 12.2649 51.2827C11.8513 51.7213 10.8977 52.3619 10.146 52.7063C5.27141 54.9393 -0.088668 49.8916 1.92821 44.9674C2.80888 42.8173 8.74075 32.8032 9.68756 31.8682C11.4618 30.1161 24.9564 23.7593 29.2884 22.635C31.2701 22.1206 32.089 22.1389 34.037 22.7412C38.6841 24.178 42.1611 27.8334 42.5601 31.7017C42.843 34.4446 41.4229 39.6728 38.5393 46.5052C37.7181 48.4507 37.1094 50.11 37.1865 50.1926C37.2636 50.2752 40.3809 52.6315 44.1138 55.4289C50.022 59.8565 50.988 60.6767 51.5737 61.7637C51.9438 62.4504 52.3138 63.4323 52.3958 63.9456C52.4842 64.4989 52.0809 68.0662 51.4052 72.7064C50.7783 77.0116 50.2655 80.693 50.2655 80.8875C50.2655 81.1671 50.8265 81.2411 52.9455 81.2411C55.4522 81.2411 55.666 81.2815 56.2494 81.8653L56.8732 82.4895V89.5874C56.8732 96.3831 56.8509 96.7138 56.3465 97.3553C55.6024 98.3019 54.0778 98.3019 53.3337 97.3553C52.8364 96.7228 52.8069 96.3666 52.8069 90.9976V85.31H46.7074H40.608V93.5866V101.863L39.9841 102.487C39.5909 102.881 39.07 103.112 38.5748 103.112C38.0796 103.112 37.5587 102.881 37.1655 102.487ZM10.1722 89.7619C7.66576 88.6719 6.29095 86.5489 6.30991 83.7978C6.32585 81.4776 6.8299 80.6571 10.8436 76.4169L14.2451 72.8234L15.36 69.3395C16.5656 65.5716 16.9842 64.9654 18.38 64.9654C19.3244 64.9654 20.2764 65.9081 20.2764 66.8432C20.2764 67.1389 19.7034 69.0976 19.0031 71.1957L17.7298 75.0106L14.1473 78.8163C12.1769 80.9094 10.4741 82.8607 10.3632 83.1524C9.83427 84.5445 10.9841 86.0729 12.5603 86.0729C13.2314 86.0729 14.4218 85.4027 18.0671 82.9719L22.7177 79.871L24.7273 74.8111C25.9588 71.7103 26.9349 69.6125 27.2483 69.3928C28.4381 68.5589 30.4422 69.4822 30.4422 70.8642C30.4422 71.1839 29.4418 73.9531 28.2191 77.0179L25.996 82.5903L21.061 85.8888C18.3467 87.7029 15.6589 89.3995 15.0879 89.6589C13.8372 90.2273 11.3617 90.2792 10.1722 89.7619ZM65.6297 87.7375L65.0059 87.1133V76.6636V66.2139L65.6297 65.5897L66.2535 64.9654H75.1717H84.0899L84.7137 65.5897L85.3375 66.2139V74.1205V82.0272L84.7137 82.6514C84.3205 83.0448 83.7995 83.2756 83.3043 83.2756C82.8092 83.2756 82.2882 83.0448 81.895 82.6514L81.2712 82.0272V75.5308V69.0344H75.1717H69.0722V78.0738V87.1133L68.4484 87.7375C68.0552 88.131 67.5342 88.3617 67.0391 88.3617C66.5439 88.3617 66.0229 88.131 65.6297 87.7375ZM94.0072 84.3989C93.4728 83.7189 93.4701 83.6327 93.4701 66.8269V49.9382L94.0939 49.314C94.6691 48.7384 94.9069 48.6898 97.1437 48.6898H99.5696V27.9522V7.21458L100.193 6.59037L100.817 5.96616H112.785H124.753L125.377 6.59037C125.779 6.99262 126.001 7.5035 126.001 8.02706C126.001 8.71793 125.596 9.25088 123.295 11.5873L120.589 14.335L123.295 17.9518C126.257 21.9105 126.487 22.5413 125.377 23.6521L124.753 24.2763H114.195H103.636V36.483V48.6898H108.095C112.491 48.6898 112.563 48.6984 113.178 49.314L113.802 49.9382V58.0533C113.802 65.8781 113.783 66.1924 113.275 66.8385C112.531 67.785 111.006 67.785 110.262 66.8385C109.76 66.1991 109.735 65.8616 109.735 59.4635V52.7587H103.636H97.5365L97.5372 68.2079C97.538 82.852 97.5135 83.6902 97.067 84.2928C96.7254 84.754 96.3143 84.9497 95.5702 85.0054C94.7106 85.0697 94.4573 84.9713 94.0072 84.3989ZM43.941 49.9282C41.3151 49.0744 40.3493 48.3487 40.3619 47.2391C40.372 46.3538 40.8265 45.7358 41.7164 45.3972C42.2681 45.1873 42.8656 45.2848 44.7717 45.8958C47.0121 46.6139 47.3725 46.6553 51.3834 46.6553C55.5486 46.6553 55.637 46.644 56.2495 46.0311C56.6427 45.6376 56.8733 45.1163 56.8733 44.6209C56.8733 44.1254 56.6427 43.6041 56.2495 43.2106C55.6307 42.5914 55.5865 42.5864 50.7701 42.5864H45.9146L44.5576 41.3022C42.8657 39.7011 42.461 38.8357 42.9382 37.8395C43.7053 36.2379 45.3556 36.2099 46.8522 37.773L47.565 38.5175L51.7744 38.5204C55.6587 38.5223 56.083 38.5691 57.2686 39.1215C60.1638 40.4706 61.5272 43.4624 60.6305 46.4991C60.2181 47.8959 58.1127 50.0027 56.7167 50.4154C56.055 50.611 53.9537 50.7209 50.9984 50.7144C46.4948 50.7045 46.2402 50.6758 43.941 49.9282ZM40.8621 21.8341C36.7065 20.7216 33.5118 16.965 32.7184 12.2581C31.5322 5.22077 35.8375 0.0352484 42.8953 0.000560052C44.7516 -0.00857098 45.2562 0.088575 46.4824 0.691109C49.4185 2.13392 51.6473 5.21036 52.4229 8.8907C53.4534 13.7801 52.1661 17.8484 48.8027 20.3319C47.4081 21.3617 44.8345 22.2493 43.3133 22.2251C42.7339 22.2155 41.6309 22.04 40.8621 21.8341Z" fill="#20EA6D"/>
<path d="M8.70124 125.375C8.17047 124.844 8.07743 124.511 8.07743 123.143C8.07743 121.376 8.47914 120.529 9.50088 120.14C10.3491 119.818 11.3108 120.239 11.8366 121.163L12.2708 121.927L18.3068 121.929L24.3427 121.931V118.258C24.3427 114.772 24.3732 114.549 24.9379 113.892C25.7545 112.942 26.9973 112.942 27.8139 113.892C28.3951 114.568 28.409 114.704 28.409 119.668C28.409 124.726 28.4061 124.755 27.7852 125.376L27.1614 126H18.2432H9.32506L8.70124 125.375ZM37.1655 125.375C36.5491 124.758 36.5417 124.696 36.5417 120.15C36.5417 115.605 36.5494 115.542 37.1655 114.925C37.5587 114.532 38.0797 114.301 38.5748 114.301C39.07 114.301 39.591 114.532 39.9842 114.925C40.5802 115.522 40.608 115.692 40.608 118.74V121.93H46.7075H52.807V117.842V113.753L53.5498 113.01C54.4895 112.07 55.1907 112.07 56.1304 113.01L56.8733 113.753V119.252V124.751L56.2495 125.375L55.6257 125.999H46.7075H37.7893L37.1655 125.375ZM65.6297 125.375L65.0059 124.751V114.301V103.851L65.6297 103.227C66.0229 102.834 66.5439 102.603 67.0391 102.603C67.5342 102.603 68.0552 102.834 68.4484 103.227L69.0722 103.851V112.891V121.93H75.1717H81.2712V108.593V95.2564L81.8663 94.564C82.6847 93.612 83.9257 93.614 84.7464 94.5689L85.3455 95.2658L85.278 110.147L85.2104 125.027L84.6105 125.513C84.0454 125.971 83.4945 125.999 75.132 125.999H66.2535L65.6297 125.375ZM94.094 125.375L93.4701 124.751V111.122V97.4937L94.094 96.8694C94.4872 96.476 95.0081 96.2452 95.5033 96.2452C95.9985 96.2452 96.5194 96.476 96.9127 96.8694L97.5365 97.4937V109.712V121.93H103.636H109.735V103.863V85.7955L110.359 85.1713C111.185 84.3455 112.353 84.3455 113.178 85.1713L113.802 85.7955V105.273V124.751L113.178 125.375L112.554 125.999H103.636H94.7178L94.094 125.375ZM1.043 119.594C0.738441 119.446 0.349487 118.988 0.178654 118.575C-0.0769671 117.958 -0.0628874 117.682 0.258185 117.017C0.622704 116.261 1.61355 115.795 15.3551 109.914C23.4439 106.452 30.2333 103.621 30.4427 103.623C30.6521 103.624 34.3055 104.935 38.5613 106.537C42.987 108.202 46.4137 109.36 46.5669 109.241C46.7141 109.127 53.45 103.745 61.5355 97.2818C69.621 90.8183 76.4045 85.4654 76.6099 85.3865C76.8152 85.3076 81.4441 86.1346 86.8962 87.2241L96.8092 89.2051L97.4023 88.5927C97.7285 88.2558 102.768 82.8305 108.601 76.5364L119.207 65.0926L117.994 64.9499C115.942 64.7084 115.116 62.864 116.459 61.5207C117.062 60.9175 117.202 60.8965 120.64 60.8965C124.457 60.8965 125.265 61.0849 125.719 62.0809C125.882 62.4408 126.001 64.1932 126.001 66.2605C126.001 69.7011 125.98 69.8413 125.377 70.4446C124.142 71.6804 122.262 70.9869 121.966 69.1859L121.807 68.2245L110.409 80.5183C104.14 87.2799 98.7489 92.9741 98.4284 93.1722C97.9048 93.4958 96.8344 93.3302 87.8768 91.5401C79.5404 89.8742 77.8255 89.5996 77.404 89.8629C77.1268 90.0361 70.3413 95.4303 62.3251 101.85C54.3088 108.27 47.4657 113.593 47.118 113.681C46.6636 113.795 44.2798 113.011 38.6374 110.891C34.3206 109.27 30.6625 107.943 30.5082 107.943C30.3539 107.943 23.9587 110.633 16.2967 113.92C8.6347 117.207 2.19275 119.888 1.98128 119.879C1.7698 119.869 1.34755 119.741 1.043 119.594ZM9.18655 108.409C8.24612 107.953 8.07743 107.105 8.07743 102.834C8.07743 98.8531 8.09088 98.7517 8.70124 98.141L9.32506 97.5168H18.2432H27.1614L27.7852 98.141C28.6105 98.9668 28.6105 100.136 27.7852 100.961L27.1614 101.586H19.6526H12.1438V104.244C12.1438 107.146 11.9037 107.994 10.9601 108.424C10.2216 108.761 9.90711 108.758 9.18655 108.409ZM37.1655 102.487L36.5417 101.863V92.1757V82.4884L37.2406 81.8416L37.9395 81.1949L38.2189 75.0511C38.3985 71.1014 38.4106 68.8498 38.2525 68.7465C38.1173 68.6582 37.1757 68.4517 36.16 68.2878C30.5435 67.3812 23.5206 64.962 20.3153 62.8297C17.3124 60.8321 16.2374 59.0536 16.2262 56.0647C16.2195 54.22 16.7884 49.5752 17.2285 47.8836C17.3861 47.278 17.626 46.3538 17.7616 45.8299C18.2443 43.9649 19.7808 43.3218 21.16 44.4074C21.7905 44.9036 21.8441 45.0698 21.7134 46.124C21.6339 46.7659 21.338 48.321 21.056 49.5799C20.774 50.8387 20.4674 53.0258 20.3747 54.4401C20.2298 56.6498 20.2699 57.1195 20.6596 57.7797C22.0116 60.0699 28.7814 62.7473 37.22 64.3293C39.1533 64.6918 40.9909 65.0422 41.3037 65.1081C41.6164 65.1739 42.0564 65.5089 42.2813 65.8525C42.648 66.4125 42.6615 67.0545 42.4116 72.048C42.2583 75.112 42.1329 78.4339 42.1329 79.43V81.2411H44.122H46.1111L47.2956 72.9406C48.294 65.9448 48.4308 64.5357 48.1657 63.9763C47.9806 63.5856 44.7661 60.9987 40.3539 57.6896C35.1428 53.7813 32.7826 51.8596 32.6141 51.3875C32.3387 50.616 32.4209 50.3684 34.6495 45.2566C36.4317 41.169 37.9472 36.6846 38.3585 34.2823C38.6071 32.8299 38.6051 32.2464 38.3484 31.3892C37.9205 29.9602 36.1435 28.103 34.3249 27.1841C32.27 26.1458 30.801 26.2005 27.5195 27.4377C24.7871 28.4679 14.1428 33.5675 12.9479 34.4188C12.0058 35.0901 5.53596 46.3022 5.53596 47.2636C5.53596 48.8413 7.80048 49.7951 9.07299 48.7534C9.37197 48.5086 10.7856 46.1969 12.2144 43.6162L14.8122 38.9241L20.4863 36.6636C24.3952 35.1064 26.3464 34.4499 26.7586 34.5534C28.0532 34.8785 28.6894 36.2157 28.1142 37.4022C27.8246 37.9995 27.0143 38.4112 22.6965 40.1548L17.6194 42.2049L15.3182 46.3452C14.0525 48.6223 12.6786 50.8442 12.2649 51.2827C11.8513 51.7213 10.8977 52.3619 10.146 52.7063C5.27141 54.9393 -0.0886679 49.8916 1.92821 44.9674C2.80888 42.8173 8.74075 32.8032 9.68756 31.8682C11.4618 30.1161 24.9564 23.7593 29.2884 22.635C31.2701 22.1206 32.089 22.1389 34.037 22.7412C38.6841 24.178 42.1611 27.8334 42.5601 31.7017C42.843 34.4446 41.4229 39.6728 38.5393 46.5052C37.7181 48.4507 37.1094 50.11 37.1865 50.1926C37.2636 50.2752 40.3809 52.6315 44.1138 55.4289C50.022 59.8565 50.988 60.6767 51.5737 61.7637C51.9438 62.4504 52.3138 63.4323 52.3958 63.9456C52.4842 64.4989 52.0809 68.0662 51.4052 72.7064C50.7783 77.0116 50.2655 80.693 50.2655 80.8875C50.2655 81.1671 50.8265 81.2411 52.9455 81.2411C55.4522 81.2411 55.666 81.2815 56.2494 81.8653L56.8732 82.4895V89.5874C56.8732 96.3831 56.8509 96.7138 56.3465 97.3553C55.6024 98.3019 54.0778 98.3019 53.3337 97.3553C52.8364 96.7228 52.8069 96.3666 52.8069 90.9976V85.31H46.7074H40.608V93.5866V101.863L39.9841 102.487C39.5909 102.881 39.07 103.112 38.5748 103.112C38.0796 103.112 37.5587 102.881 37.1655 102.487ZM10.1722 89.7619C7.66576 88.6719 6.29095 86.5489 6.30991 83.7978C6.32585 81.4776 6.8299 80.6571 10.8436 76.4169L14.2451 72.8234L15.36 69.3395C16.5656 65.5716 16.9842 64.9654 18.38 64.9654C19.3244 64.9654 20.2764 65.9081 20.2764 66.8432C20.2764 67.1389 19.7034 69.0976 19.0031 71.1957L17.7298 75.0106L14.1473 78.8163C12.1769 80.9094 10.4741 82.8607 10.3632 83.1524C9.83427 84.5445 10.9841 86.073 12.5603 86.073C13.2314 86.073 14.4218 85.4027 18.0671 82.972L22.7177 79.871L24.7273 74.8111C25.9588 71.7103 26.9349 69.6125 27.2483 69.3928C28.4381 68.5589 30.4422 69.4822 30.4422 70.8642C30.4422 71.1839 29.4418 73.9531 28.2191 77.0179L25.996 82.5903L21.061 85.8888C18.3467 87.7029 15.6589 89.3995 15.0879 89.6589C13.8372 90.2273 11.3617 90.2792 10.1722 89.7619ZM65.6297 87.7375L65.0059 87.1133V76.6636V66.2139L65.6297 65.5897L66.2535 64.9654H75.1717H84.0899L84.7137 65.5897L85.3375 66.2139V74.1205V82.0272L84.7137 82.6514C84.3205 83.0448 83.7995 83.2756 83.3044 83.2756C82.8092 83.2756 82.2882 83.0448 81.895 82.6514L81.2712 82.0272V75.5308V69.0344H75.1717H69.0722V78.0738V87.1133L68.4484 87.7375C68.0552 88.131 67.5342 88.3617 67.0391 88.3617C66.5439 88.3617 66.0229 88.131 65.6297 87.7375ZM94.0073 84.3989C93.4728 83.7189 93.4701 83.6327 93.4701 66.8269V49.9382L94.094 49.314C94.6691 48.7385 94.9069 48.6898 97.1437 48.6898H99.5696V27.9522V7.21458L100.193 6.59037L100.817 5.96616H112.785H124.753L125.377 6.59037C125.779 6.99262 126.001 7.5035 126.001 8.02706C126.001 8.71793 125.596 9.25088 123.295 11.5873L120.589 14.335L123.295 17.9518C126.257 21.9105 126.487 22.5413 125.377 23.6521L124.753 24.2763H114.195H103.636V36.483V48.6898H108.095C112.491 48.6898 112.563 48.6984 113.178 49.314L113.802 49.9382V58.0533C113.802 65.8781 113.783 66.1924 113.275 66.8385C112.531 67.785 111.006 67.785 110.262 66.8385C109.76 66.1991 109.735 65.8616 109.735 59.4635V52.7587H103.636H97.5365L97.5372 68.2079C97.538 82.852 97.5135 83.6902 97.0671 84.2928C96.7254 84.754 96.3144 84.9497 95.5702 85.0054C94.7106 85.0697 94.4573 84.9713 94.0073 84.3989ZM117.874 17.4978C115.299 14.0764 115.283 13.8724 117.4 11.6661L118.965 10.0351H111.301H103.636V15.1212V20.2074H111.774H119.912L117.874 17.4978ZM43.941 49.9282C41.3151 49.0744 40.3493 48.3487 40.3619 47.2391C40.372 46.3538 40.8265 45.7358 41.7164 45.3972C42.2681 45.1873 42.8656 45.2849 44.7717 45.8958C47.0121 46.6139 47.3725 46.6553 51.3834 46.6553C55.5487 46.6553 55.637 46.644 56.2495 46.0311C56.6427 45.6376 56.8733 45.1163 56.8733 44.6209C56.8733 44.1254 56.6427 43.6041 56.2495 43.2106C55.6307 42.5914 55.5865 42.5864 50.7701 42.5864H45.9146L44.5576 41.3022C42.8657 39.7011 42.461 38.8357 42.9382 37.8395C43.7053 36.2379 45.3556 36.2099 46.8522 37.773L47.565 38.5175L51.7744 38.5204C55.6587 38.5223 56.083 38.5691 57.2686 39.1215C60.1638 40.4706 61.5272 43.4624 60.6305 46.4991C60.2181 47.8959 58.1127 50.0027 56.7167 50.4154C56.055 50.611 53.9537 50.7209 50.9984 50.7144C46.4948 50.7045 46.2402 50.6758 43.941 49.9282ZM40.8621 21.8341C36.7065 20.7216 33.5118 16.965 32.7184 12.2581C31.5322 5.22077 35.8375 0.0352484 42.8953 0.000560052C44.7516 -0.00857098 45.2563 0.088575 46.4824 0.691109C49.4185 2.13392 51.6473 5.21036 52.423 8.8907C53.4534 13.7801 52.1661 17.8484 48.8027 20.3319C47.4081 21.3617 44.8345 22.2493 43.3133 22.2251C42.7339 22.2155 41.6309 22.04 40.8621 21.8341ZM45.3097 17.6985C46.5812 17.119 48.0713 15.4901 48.4893 14.2227C48.8868 13.0174 48.6849 9.8636 48.1041 8.20545C47.6004 6.76761 46.029 4.91314 44.8332 4.34531C42.2853 3.13551 38.2229 4.7035 37.0157 7.36267C36.0933 9.39433 36.714 13.4401 38.2531 15.4285C40.0761 17.7836 43.0346 18.7353 45.3097 17.6985Z" fill="#161616"/>
</svg>
