<svg width="142" height="132" viewBox="0 0 142 132" fill="none" xmlns="http://www.w3.org/2000/svg">
<path d="M89.4549 63.6505C85.9182 63.1438 81.1227 61.1679 80.2485 59.8573C79.8416 59.2472 80.0676 58.4677 80.8092 57.9238C81.3206 57.5487 81.3651 57.5481 83.0311 57.8915C87.7804 58.8706 92.4162 57.0525 95.1602 53.1348C95.9072 52.0681 96.6637 50.296 96.4078 50.2122C95.7671 50.0023 93.4125 48.2889 92.1519 47.1152C90.2731 45.3658 89.0033 43.7183 87.8768 41.5683C87.0936 40.0737 86.2183 37.6576 85.8571 35.9932C85.7475 35.4882 85.6744 35.4544 84.6967 35.4566C81.4587 35.464 77.7231 37.6232 75.7337 40.6378C75.3103 41.2794 74.7288 42.5579 74.4416 43.4791C73.8077 45.5122 73.5503 45.8397 72.5864 45.8397C70.9906 45.8397 70.6924 44.7246 71.2764 40.9409C71.9264 36.7298 73.5145 33.3453 76.189 30.4715C78.3835 28.1133 82.093 25.882 85.4984 24.8718C86.2938 24.6359 86.943 24.3853 86.9411 24.3149C86.9396 24.2446 86.762 23.5257 86.5473 22.7174C84.7643 16.006 86.3023 9.76664 90.9065 5.03253C93.238 2.63522 96.5559 0.378906 97.7495 0.378906C98.4352 0.378906 99.0608 0.877831 99.2096 1.54337C99.3633 2.23065 99.112 2.74374 98.1675 3.67155C97.1333 4.68751 96.007 6.49753 95.4843 7.98371C95.1006 9.07468 95.0232 9.69597 95.0232 11.6854C95.0232 13.1266 95.1082 14.1596 95.2372 14.2863C95.3896 14.4359 96.0507 14.218 97.5312 13.5302C100.337 12.2266 102.395 11.7316 105.55 11.6011C109.498 11.4379 112.978 12.1806 116.22 13.8785C117.144 14.3626 117.716 14.5617 117.8 14.4285C118.059 14.0169 118.109 10.2648 117.871 9.13689C117.521 7.47947 116.261 5.1752 114.862 3.63094C113.777 2.4329 113.65 2.20869 113.755 1.67142C113.903 0.91879 114.538 0.378906 115.275 0.378906C116.157 0.378906 118.754 2.20673 120.855 4.30629C126.017 9.46373 127.711 15.728 125.746 22.3926C125.487 23.2708 125.29 23.9986 125.309 24.01C125.328 24.0213 125.965 24.1809 126.725 24.3646C135.06 26.38 140.394 32.2356 141.687 40.7902C142.143 43.803 142.107 44.8875 141.537 45.4137C140.964 45.943 139.797 45.9877 139.367 45.4968C139.202 45.3082 138.831 44.4002 138.544 43.4791C138.257 42.5579 137.675 41.2794 137.252 40.6378C135.263 37.6232 131.527 35.4638 128.289 35.4566C127.311 35.4544 127.238 35.4882 127.129 35.9932C126.491 38.9313 124.952 42.3196 123.262 44.5076C122.015 46.1224 119.685 48.279 118.066 49.3185C117.354 49.775 116.687 50.1764 116.583 50.2106C116.317 50.2977 116.955 51.783 117.789 53.0167C119.549 55.6223 122.697 57.5858 125.835 58.0351C127.393 58.2581 128.123 58.2081 131.146 57.6711C131.999 57.5194 132.89 58.2668 132.89 59.135C132.89 60.0388 132.209 60.6341 129.931 61.7227C126.595 63.3165 125.361 63.5752 121.154 63.5625C117.822 63.5525 117.435 63.513 115.781 63.0138C112.641 62.0667 109.76 60.4098 107.447 58.2203L106.505 57.3296L105.352 58.4049C100.776 62.6721 95.2809 64.4852 89.4549 63.6505ZM104.251 42.016C102.498 41.3832 101.09 40.0546 100.255 38.2434C99.6101 36.8447 99.6487 34.5472 100.342 33.0794C101.05 31.58 102.108 30.4865 103.522 29.7924C106.328 28.4149 109.408 29.0043 111.545 31.3273C112.735 32.6222 113.14 33.7043 113.159 35.6503C113.173 37.0858 113.098 37.4782 112.615 38.4916C111.902 39.9896 110.422 41.3761 108.966 41.9112C107.684 42.3827 105.408 42.4333 104.251 42.016ZM108.089 38.873C109.787 38.0268 110.515 36.0656 109.777 34.3285C109.363 33.3568 108.938 32.9198 107.989 32.4917C105.101 31.1887 102.053 33.9973 103.188 36.9164C103.569 37.8952 104.629 38.9161 105.449 39.0937C105.749 39.1586 106.084 39.2375 106.194 39.2691C106.51 39.3604 107.544 39.1442 108.089 38.873ZM96.7345 44.0452C95.9153 40.8629 93.7782 38.1845 90.8949 36.7264C90.0526 36.3005 89.3058 36.0087 89.2353 36.0779C88.9945 36.3145 90.296 39.594 91.2386 41.1257C92.4348 43.0694 93.9707 44.7635 95.6768 46.0211L97.0179 47.0096L97.0803 46.3199C97.1146 45.9406 96.9589 44.917 96.7345 44.0452ZM119.259 44.2685C120.084 43.4455 121.189 42.0627 121.722 41.1862C122.689 39.5953 123.992 36.3149 123.75 36.0779C123.68 36.0087 122.937 36.2983 122.1 36.7216C118.652 38.4652 116.296 41.8914 115.937 45.6815L115.805 47.0769L116.784 46.419C117.322 46.0572 118.436 45.0895 119.259 44.2685ZM110.357 22.3511C110.992 22.1316 111.932 21.7134 112.444 21.422C113.523 20.8078 116.267 18.1597 116.267 17.7328C116.267 17.1264 112.868 15.5683 110.287 14.9916C109.36 14.7845 107.947 14.6616 106.493 14.6616C103.917 14.6616 102.011 15.0062 99.8838 15.8566C98.3187 16.4822 96.7187 17.3703 96.7187 17.6134C96.7187 18.0301 98.4591 19.8846 99.6739 20.7625C102.687 22.9399 106.856 23.5598 110.357 22.3511Z" fill="#20EA6D"/>
<path d="M89.4549 63.6505C85.9182 63.1438 81.1227 61.1679 80.2485 59.8573C79.8416 59.2472 80.0676 58.4677 80.8092 57.9238C81.3206 57.5487 81.3651 57.5481 83.0311 57.8915C87.7804 58.8706 92.4162 57.0525 95.1602 53.1348C95.9072 52.0681 96.6637 50.296 96.4078 50.2122C95.7671 50.0023 93.4125 48.2889 92.1519 47.1152C90.2731 45.3658 89.0033 43.7183 87.8768 41.5683C87.0936 40.0737 86.2183 37.6576 85.8571 35.9932C85.7475 35.4882 85.6744 35.4544 84.6967 35.4566C81.4587 35.464 77.7231 37.6232 75.7337 40.6378C75.3103 41.2794 74.7288 42.5579 74.4416 43.4791C73.8077 45.5122 73.5503 45.8397 72.5864 45.8397C70.9906 45.8397 70.6924 44.7246 71.2764 40.9409C71.9264 36.7298 73.5145 33.3453 76.189 30.4715C78.3835 28.1133 82.093 25.882 85.4984 24.8718C86.2938 24.6359 86.943 24.3853 86.9411 24.3149C86.9396 24.2446 86.762 23.5257 86.5473 22.7174C84.7643 16.006 86.3023 9.76664 90.9065 5.03253C93.238 2.63522 96.5559 0.378906 97.7495 0.378906C98.4352 0.378906 99.0608 0.877831 99.2096 1.54337C99.3633 2.23065 99.112 2.74374 98.1675 3.67155C97.1333 4.68751 96.007 6.49753 95.4843 7.98371C95.1006 9.07468 95.0232 9.69597 95.0232 11.6854C95.0232 13.1266 95.1082 14.1596 95.2372 14.2863C95.3896 14.4359 96.0507 14.218 97.5312 13.5302C100.337 12.2266 102.395 11.7316 105.55 11.6011C109.498 11.4379 112.978 12.1806 116.22 13.8785C117.144 14.3626 117.716 14.5617 117.8 14.4285C118.059 14.0169 118.109 10.2648 117.871 9.13689C117.521 7.47947 116.261 5.1752 114.862 3.63094C113.777 2.4329 113.65 2.20869 113.755 1.67142C113.903 0.91879 114.538 0.378906 115.275 0.378906C116.157 0.378906 118.754 2.20673 120.855 4.30629C126.017 9.46373 127.711 15.728 125.746 22.3926C125.487 23.2708 125.29 23.9986 125.309 24.01C125.328 24.0213 125.965 24.1809 126.725 24.3646C135.06 26.38 140.394 32.2356 141.687 40.7902C142.143 43.803 142.107 44.8875 141.537 45.4137C140.964 45.943 139.797 45.9877 139.367 45.4968C139.202 45.3082 138.831 44.4002 138.544 43.4791C138.257 42.5579 137.675 41.2794 137.252 40.6378C135.263 37.6232 131.527 35.4638 128.289 35.4566C127.311 35.4544 127.238 35.4882 127.129 35.9932C126.491 38.9313 124.952 42.3196 123.262 44.5076C122.015 46.1224 119.685 48.279 118.066 49.3185C117.354 49.775 116.687 50.1764 116.583 50.2106C116.317 50.2977 116.955 51.783 117.789 53.0167C119.549 55.6223 122.697 57.5858 125.835 58.0351C127.393 58.2581 128.123 58.2081 131.146 57.6711C131.999 57.5194 132.89 58.2668 132.89 59.135C132.89 60.0388 132.209 60.6341 129.931 61.7227C126.595 63.3165 125.361 63.5752 121.154 63.5625C117.822 63.5525 117.435 63.513 115.781 63.0138C112.641 62.0667 109.76 60.4098 107.447 58.2203L106.505 57.3296L105.352 58.4049C100.776 62.6721 95.2809 64.4852 89.4549 63.6505ZM96.619 60.0727C99.1405 59.2723 101.107 58.0138 103.651 55.5714C106.558 52.7816 106.446 52.7875 109.04 55.2858C112.926 59.0284 117.058 60.8584 121.25 60.6925L122.726 60.6341L121.042 59.8107C115.856 57.2743 112.668 52.382 112.68 46.9768C112.698 38.5332 120.288 31.4334 128.435 32.2396C130.87 32.4805 134.294 33.6767 136.065 34.9046C136.854 35.4519 136.746 35.1135 135.636 33.5611C133.059 29.9557 128.979 27.6409 124.102 27.016C121.313 26.6588 120.973 26.0743 122.028 23.4573C122.915 21.2599 123.332 19.155 123.322 16.9368C123.312 14.7064 122.951 13.1075 121.994 11.0608L121.354 9.69161L121.233 12.0405C121.054 15.5165 120.211 17.8431 118.159 20.5246C116.314 22.935 112.869 25.0867 109.77 25.764C107.676 26.2217 103.956 26.0751 102.104 25.462C97.281 23.8646 93.7831 20.3702 92.296 15.6631C91.9019 14.4158 91.8316 13.7726 91.8316 11.4109C91.8316 9.88049 91.7712 8.69008 91.6973 8.76556C91.6234 8.84105 91.2025 9.56415 90.762 10.3724C88.6809 14.1914 88.4639 18.2667 90.0644 23.4724C90.4406 24.696 90.6981 25.8527 90.6366 26.0429C90.4194 26.7153 89.7608 27.0542 87.9719 27.4142C84.7124 28.0702 81.8712 29.5367 79.3666 31.8559C78.2125 32.9245 76.5857 34.8664 76.8445 34.8664C76.8983 34.8664 77.4649 34.5628 78.1036 34.1917C80.1654 32.9937 82.1327 32.4628 84.8841 32.3619C87.9161 32.2506 89.6718 32.5994 92.0934 33.7939C95.9192 35.6812 98.7237 39.0473 99.849 43.1026C100.399 45.083 100.346 48.8397 99.7421 50.7385C98.9097 53.356 97.8121 55.1647 95.9281 57.0233C94.5293 58.4034 93.8877 58.8692 92.3339 59.6325C91.2937 60.1435 90.3961 60.6111 90.3392 60.6716C90.2824 60.732 91.313 60.736 92.6295 60.6804C94.4503 60.6035 95.4051 60.4581 96.619 60.0727ZM104.251 42.016C102.498 41.3832 101.09 40.0546 100.255 38.2434C99.6101 36.8447 99.6487 34.5472 100.342 33.0794C101.05 31.58 102.108 30.4865 103.522 29.7924C106.328 28.4149 109.408 29.0043 111.545 31.3273C112.735 32.6222 113.14 33.7043 113.159 35.6503C113.173 37.0858 113.098 37.4782 112.615 38.4916C111.902 39.9896 110.422 41.3761 108.966 41.9112C107.684 42.3827 105.408 42.4333 104.251 42.016ZM108.089 38.873C109.787 38.0268 110.515 36.0656 109.777 34.3285C109.363 33.3568 108.938 32.9198 107.989 32.4917C105.101 31.1887 102.053 33.9973 103.188 36.9164C103.569 37.8952 104.629 38.9161 105.449 39.0937C105.749 39.1586 106.084 39.2375 106.194 39.2691C106.51 39.3604 107.544 39.1442 108.089 38.873ZM96.7345 44.0452C95.9153 40.8629 93.7782 38.1845 90.8949 36.7264C90.0526 36.3005 89.3058 36.0087 89.2353 36.0779C88.9945 36.3145 90.296 39.594 91.2386 41.1257C92.4348 43.0694 93.9707 44.7635 95.6768 46.0211L97.0179 47.0096L97.0803 46.3199C97.1146 45.9406 96.9589 44.917 96.7345 44.0452ZM119.259 44.2685C120.084 43.4455 121.189 42.0627 121.722 41.1862C122.689 39.5953 123.992 36.3149 123.75 36.0779C123.68 36.0087 122.937 36.2983 122.1 36.7216C118.652 38.4652 116.296 41.8914 115.937 45.6815L115.805 47.0769L116.784 46.419C117.322 46.0572 118.436 45.0895 119.259 44.2685ZM110.357 22.3511C110.992 22.1316 111.932 21.7134 112.444 21.422C113.523 20.8078 116.267 18.1597 116.267 17.7328C116.267 17.1264 112.868 15.5683 110.287 14.9916C109.36 14.7845 107.947 14.6616 106.493 14.6616C103.917 14.6616 102.011 15.0062 99.8838 15.8566C98.3187 16.4822 96.7187 17.3703 96.7187 17.6134C96.7187 18.0301 98.4591 19.8846 99.6739 20.7625C102.687 22.9399 106.856 23.5598 110.357 22.3511Z" fill="#161616"/>
<mask id="path-3-inside-1_54_4973" fill="white">
<path d="M26.5502 131.48C23.3063 131.104 19.9553 129.824 17.131 127.882C15.0159 126.427 12.2214 123.345 11.1219 121.256L10.2447 119.589L7.34487 119.582C3.98652 119.575 2.78596 119.17 1.40622 117.578C-0.588231 115.277 -0.447783 112.034 1.74255 109.812C3.21484 108.319 4.41084 108.049 9.56586 108.049H13.7684L13.6405 107.156C13.3481 105.114 6.75052 36.8237 6.75052 35.8396C6.75052 34.5492 7.54286 33.4143 8.82156 32.8731C10.1507 32.3105 60.0371 32.3105 61.3663 32.8731C62.741 33.455 63.4373 34.5348 63.4373 36.0852C63.4373 36.8106 62.6442 45.4793 61.6749 55.349C60.7056 65.2187 59.9123 73.5721 59.9119 73.912L59.9113 74.5302H98.2694H136.627L137.427 75.2115C138.81 76.3907 138.974 77.1816 138.599 80.8683C138.001 86.7466 136.618 91.4573 133.926 96.7846C129.92 104.711 123.799 111.123 116.132 115.424L113.36 116.978L113.352 123.051C113.344 128.913 113.322 129.156 112.724 130.057C112.37 130.59 111.702 131.131 111.164 131.318C110.451 131.567 100.266 131.639 68.8622 131.618C46.1129 131.602 27.0723 131.54 26.5502 131.48ZM81.0672 126.907C84.6384 125.703 87.8804 123.431 89.6955 120.861L90.5939 119.589H52.7311H14.8683L15.1925 120.207C15.7771 121.321 19.06 124.412 20.5832 125.282C22.2636 126.242 24.1896 126.928 26.1637 127.27C26.8984 127.397 39.2166 127.48 53.5375 127.456C77.9813 127.413 79.6667 127.38 81.0672 126.907ZM109.559 120.825C109.64 117.198 109.731 114.205 109.762 114.174C109.792 114.142 111.166 113.418 112.814 112.563C117.729 110.017 121.877 106.738 125.094 102.855C126.779 100.823 129.075 97.5793 129.075 97.2322C129.075 97.1372 118.639 97.0595 105.885 97.0595C93.1301 97.0595 82.6945 97.1062 82.6945 97.1634C82.6945 97.2205 82.8878 97.7358 83.1241 98.3086C83.3603 98.8813 83.5834 99.9452 83.6197 100.673C83.6778 101.836 83.7965 102.071 84.6056 102.624C85.7809 103.426 87.0364 105.478 87.2255 106.906L87.3724 108.016L94.3231 108.101L101.274 108.187L102.555 108.95C106.132 111.079 106.266 116.157 102.81 118.615C101.686 119.414 101.491 119.456 98.4167 119.549L95.1994 119.646L94.0513 121.603C93.4198 122.68 92.0142 124.461 90.9278 125.562L88.9525 127.563L99.1815 127.491L109.411 127.419L109.559 120.825ZM100.867 114.918C101.554 114.222 101.55 113.799 100.847 112.894L100.285 112.17H84.4378C68.9523 112.17 68.5783 112.158 68.0482 111.621C67.2406 110.803 67.3249 109.332 68.2204 108.619C68.9023 108.075 69.2623 108.049 76.086 108.049C82.9164 108.049 83.237 108.026 83.237 107.53C83.237 106.685 82.3776 105.872 80.9339 105.352C79.2532 104.748 78.9075 104.005 79.4003 102.057C79.9825 99.7565 78.8113 98.1585 76.543 98.1585C74.7933 98.1585 74.0152 97.2932 74.0152 95.3473C74.0152 92.8833 72.6601 91.7719 70.3684 92.3564C68.8418 92.7458 67.9375 92.3772 67.496 91.1856C67.3213 90.7141 67.0521 89.9833 66.8978 89.5618C66.2994 87.9266 64.6142 87.5544 62.5064 88.5917C60.9991 89.3335 60.2498 89.0747 59.2472 87.4657C57.9922 85.452 56.3513 85.2037 54.5603 86.7566C53.197 87.9386 52.0582 88.0306 51.0781 87.0377C50.1398 86.0873 49.5166 85.795 48.4287 85.795C47.6775 85.795 47.3328 85.9911 46.7157 86.7696C44.6773 89.341 44.1952 89.5533 42.6883 88.5424C40.8605 87.3162 38.7223 88.1658 38.1837 90.3323C37.7892 91.9196 37.1071 92.5209 35.8272 92.4099C33.2651 92.1878 32.7883 92.2642 32.0464 93.0157C31.3432 93.728 31.288 93.9617 31.1748 96.7054C31.146 97.4047 29.9798 98.1585 28.9267 98.1585C26.8374 98.1585 25.4709 99.6168 25.8408 101.452C25.9326 101.907 26.0784 102.621 26.1648 103.039C26.3664 104.014 25.5085 105.169 24.4187 105.39C23.4647 105.584 22.3202 106.582 22.0786 107.431L21.9028 108.049H41.1417C60.1945 108.049 60.3876 108.055 61.0953 108.619C61.9908 109.332 62.0751 110.803 61.2675 111.621C60.7321 112.163 60.3634 112.17 32.9241 112.17C5.48479 112.17 5.1161 112.178 4.5807 112.72C3.92112 113.388 3.88355 114.289 4.48712 114.965C4.91875 115.448 6.7693 115.467 52.6302 115.467C99.9628 115.467 100.328 115.463 100.867 114.918ZM32.9117 103.803C32.5456 103.432 32.246 102.809 32.246 102.417C32.246 102.026 32.5456 101.402 32.9117 101.031C33.5089 100.426 33.8037 100.356 35.772 100.356C37.7403 100.356 38.0351 100.426 38.6322 101.031C38.9984 101.402 39.298 102.026 39.298 102.417C39.298 102.809 38.9984 103.432 38.6322 103.803C38.0351 104.408 37.7403 104.478 35.772 104.478C33.8037 104.478 33.5089 104.408 32.9117 103.803ZM60.4735 102.105C59.829 101.275 59.7885 100.93 60.2225 99.9652C60.6402 99.0366 62.0047 98.6215 64.1784 98.7617C66.1798 98.8908 66.9633 99.5026 66.9633 100.936C66.9633 102.412 66.1898 102.829 63.457 102.829C61.1642 102.829 61.0058 102.791 60.4735 102.105ZM46.7179 98.4496C46.028 98.1509 45.265 97.1197 45.265 96.4859C45.265 96.2377 45.5179 95.7089 45.8271 95.3107C46.3594 94.6253 46.5178 94.5868 48.8106 94.5868C51.6124 94.5868 52.3169 94.9923 52.3169 96.6048C52.3169 98.0451 51.5521 98.5492 49.2416 98.6319C48.1733 98.6701 47.0376 98.588 46.7179 98.4496ZM18.3918 105.851C18.6386 104.957 19.1389 104.223 20.2005 103.196C21.4154 102.022 21.6681 101.616 21.6681 100.841C21.6681 98.2651 23.6845 95.3255 25.9842 94.549C27.0343 94.1944 27.1787 94.0294 27.6359 92.6613C28.2962 90.6855 30.0034 89.0235 31.9848 88.4275C32.7793 88.1885 33.7092 87.9929 34.0513 87.9929C34.4631 87.9929 34.8105 87.7239 35.0798 87.1963C35.6863 86.0083 37.5341 84.5314 38.8979 84.1446C39.5604 83.9567 40.7991 83.8615 41.6505 83.933C43.0755 84.0527 43.2903 83.992 44.3554 83.1684C45.9689 81.9208 47.1869 81.573 49.3098 81.7535L51.0964 81.9054L51.0029 79.4909C50.8638 75.8966 51.822 74.5304 54.4818 74.5304C55.1247 74.5304 55.6372 74.3865 55.7045 74.187C55.7682 73.9981 56.1934 69.9491 56.6493 65.1891C57.1051 60.4291 57.5489 55.9474 57.6353 55.2296L57.7924 53.9246H53.0204C48.6101 53.9246 48.2074 53.8829 47.706 53.3751C46.9754 52.6349 46.9895 51.1473 47.7338 50.4642C48.2424 49.9973 48.8367 49.9316 53.2387 49.8557L58.1735 49.7706L58.7791 43.3992C59.1121 39.8949 59.3811 36.9351 59.3768 36.8217C59.3727 36.7084 48.4451 36.6157 35.0939 36.6157C12.1486 36.6157 10.82 36.6421 10.8375 37.0965C10.8477 37.3609 11.1223 40.2973 11.4478 43.6217L12.0395 49.6661L26.1829 49.8034C39.6057 49.9338 40.3554 49.9675 40.8971 50.4642C41.6418 51.1472 41.6563 52.6347 40.9253 53.3751C40.3969 53.9104 40.0212 53.9246 26.3844 53.9246H12.3859L12.5362 54.8175C12.6188 55.3086 13.8191 67.3603 15.2035 81.5989C16.5878 95.8376 17.7948 107.397 17.8856 107.288C17.9764 107.178 18.2042 106.531 18.3918 105.851ZM132.269 90.5973C132.75 89.3098 133.143 88.1352 133.143 87.9873C133.143 87.8131 122.119 87.7259 101.884 87.74C74.3183 87.7593 70.8332 87.8076 72.3878 88.1487C74.6176 88.6379 76.0983 89.682 77.1343 91.4956L77.948 92.92L104.672 92.9293L131.395 92.9387L132.269 90.5973ZM134.402 81.9485C134.572 80.9663 134.725 79.7609 134.741 79.2698L134.77 78.3769H94.8863H55.0021L55.0835 79.9566L55.1648 81.5364L56.9278 81.7056C58.9391 81.8987 59.6635 82.1589 60.9825 83.1622L61.918 83.8737L98.0052 83.8041L134.092 83.7344L134.402 81.9485Z"/>
</mask>
<path d="M26.5502 131.48C23.3063 131.104 19.9553 129.824 17.131 127.882C15.0159 126.427 12.2214 123.345 11.1219 121.256L10.2447 119.589L7.34487 119.582C3.98652 119.575 2.78596 119.17 1.40622 117.578C-0.588231 115.277 -0.447783 112.034 1.74255 109.812C3.21484 108.319 4.41084 108.049 9.56586 108.049H13.7684L13.6405 107.156C13.3481 105.114 6.75052 36.8237 6.75052 35.8396C6.75052 34.5492 7.54286 33.4143 8.82156 32.8731C10.1507 32.3105 60.0371 32.3105 61.3663 32.8731C62.741 33.455 63.4373 34.5348 63.4373 36.0852C63.4373 36.8106 62.6442 45.4793 61.6749 55.349C60.7056 65.2187 59.9123 73.5721 59.9119 73.912L59.9113 74.5302H98.2694H136.627L137.427 75.2115C138.81 76.3907 138.974 77.1816 138.599 80.8683C138.001 86.7466 136.618 91.4573 133.926 96.7846C129.92 104.711 123.799 111.123 116.132 115.424L113.36 116.978L113.352 123.051C113.344 128.913 113.322 129.156 112.724 130.057C112.37 130.59 111.702 131.131 111.164 131.318C110.451 131.567 100.266 131.639 68.8622 131.618C46.1129 131.602 27.0723 131.54 26.5502 131.48ZM81.0672 126.907C84.6384 125.703 87.8804 123.431 89.6955 120.861L90.5939 119.589H52.7311H14.8683L15.1925 120.207C15.7771 121.321 19.06 124.412 20.5832 125.282C22.2636 126.242 24.1896 126.928 26.1637 127.27C26.8984 127.397 39.2166 127.48 53.5375 127.456C77.9813 127.413 79.6667 127.38 81.0672 126.907ZM109.559 120.825C109.64 117.198 109.731 114.205 109.762 114.174C109.792 114.142 111.166 113.418 112.814 112.563C117.729 110.017 121.877 106.738 125.094 102.855C126.779 100.823 129.075 97.5793 129.075 97.2322C129.075 97.1372 118.639 97.0595 105.885 97.0595C93.1301 97.0595 82.6945 97.1062 82.6945 97.1634C82.6945 97.2205 82.8878 97.7358 83.1241 98.3086C83.3603 98.8813 83.5834 99.9452 83.6197 100.673C83.6778 101.836 83.7965 102.071 84.6056 102.624C85.7809 103.426 87.0364 105.478 87.2255 106.906L87.3724 108.016L94.3231 108.101L101.274 108.187L102.555 108.95C106.132 111.079 106.266 116.157 102.81 118.615C101.686 119.414 101.491 119.456 98.4167 119.549L95.1994 119.646L94.0513 121.603C93.4198 122.68 92.0142 124.461 90.9278 125.562L88.9525 127.563L99.1815 127.491L109.411 127.419L109.559 120.825ZM100.867 114.918C101.554 114.222 101.55 113.799 100.847 112.894L100.285 112.17H84.4378C68.9523 112.17 68.5783 112.158 68.0482 111.621C67.2406 110.803 67.3249 109.332 68.2204 108.619C68.9023 108.075 69.2623 108.049 76.086 108.049C82.9164 108.049 83.237 108.026 83.237 107.53C83.237 106.685 82.3776 105.872 80.9339 105.352C79.2532 104.748 78.9075 104.005 79.4003 102.057C79.9825 99.7565 78.8113 98.1585 76.543 98.1585C74.7933 98.1585 74.0152 97.2932 74.0152 95.3473C74.0152 92.8833 72.6601 91.7719 70.3684 92.3564C68.8418 92.7458 67.9375 92.3772 67.496 91.1856C67.3213 90.7141 67.0521 89.9833 66.8978 89.5618C66.2994 87.9266 64.6142 87.5544 62.5064 88.5917C60.9991 89.3335 60.2498 89.0747 59.2472 87.4657C57.9922 85.452 56.3513 85.2037 54.5603 86.7566C53.197 87.9386 52.0582 88.0306 51.0781 87.0377C50.1398 86.0873 49.5166 85.795 48.4287 85.795C47.6775 85.795 47.3328 85.9911 46.7157 86.7696C44.6773 89.341 44.1952 89.5533 42.6883 88.5424C40.8605 87.3162 38.7223 88.1658 38.1837 90.3323C37.7892 91.9196 37.1071 92.5209 35.8272 92.4099C33.2651 92.1878 32.7883 92.2642 32.0464 93.0157C31.3432 93.728 31.288 93.9617 31.1748 96.7054C31.146 97.4047 29.9798 98.1585 28.9267 98.1585C26.8374 98.1585 25.4709 99.6168 25.8408 101.452C25.9326 101.907 26.0784 102.621 26.1648 103.039C26.3664 104.014 25.5085 105.169 24.4187 105.39C23.4647 105.584 22.3202 106.582 22.0786 107.431L21.9028 108.049H41.1417C60.1945 108.049 60.3876 108.055 61.0953 108.619C61.9908 109.332 62.0751 110.803 61.2675 111.621C60.7321 112.163 60.3634 112.17 32.9241 112.17C5.48479 112.17 5.1161 112.178 4.5807 112.72C3.92112 113.388 3.88355 114.289 4.48712 114.965C4.91875 115.448 6.7693 115.467 52.6302 115.467C99.9628 115.467 100.328 115.463 100.867 114.918ZM32.9117 103.803C32.5456 103.432 32.246 102.809 32.246 102.417C32.246 102.026 32.5456 101.402 32.9117 101.031C33.5089 100.426 33.8037 100.356 35.772 100.356C37.7403 100.356 38.0351 100.426 38.6322 101.031C38.9984 101.402 39.298 102.026 39.298 102.417C39.298 102.809 38.9984 103.432 38.6322 103.803C38.0351 104.408 37.7403 104.478 35.772 104.478C33.8037 104.478 33.5089 104.408 32.9117 103.803ZM60.4735 102.105C59.829 101.275 59.7885 100.93 60.2225 99.9652C60.6402 99.0366 62.0047 98.6215 64.1784 98.7617C66.1798 98.8908 66.9633 99.5026 66.9633 100.936C66.9633 102.412 66.1898 102.829 63.457 102.829C61.1642 102.829 61.0058 102.791 60.4735 102.105ZM46.7179 98.4496C46.028 98.1509 45.265 97.1197 45.265 96.4859C45.265 96.2377 45.5179 95.7089 45.8271 95.3107C46.3594 94.6253 46.5178 94.5868 48.8106 94.5868C51.6124 94.5868 52.3169 94.9923 52.3169 96.6048C52.3169 98.0451 51.5521 98.5492 49.2416 98.6319C48.1733 98.6701 47.0376 98.588 46.7179 98.4496ZM18.3918 105.851C18.6386 104.957 19.1389 104.223 20.2005 103.196C21.4154 102.022 21.6681 101.616 21.6681 100.841C21.6681 98.2651 23.6845 95.3255 25.9842 94.549C27.0343 94.1944 27.1787 94.0294 27.6359 92.6613C28.2962 90.6855 30.0034 89.0235 31.9848 88.4275C32.7793 88.1885 33.7092 87.9929 34.0513 87.9929C34.4631 87.9929 34.8105 87.7239 35.0798 87.1963C35.6863 86.0083 37.5341 84.5314 38.8979 84.1446C39.5604 83.9567 40.7991 83.8615 41.6505 83.933C43.0755 84.0527 43.2903 83.992 44.3554 83.1684C45.9689 81.9208 47.1869 81.573 49.3098 81.7535L51.0964 81.9054L51.0029 79.4909C50.8638 75.8966 51.822 74.5304 54.4818 74.5304C55.1247 74.5304 55.6372 74.3865 55.7045 74.187C55.7682 73.9981 56.1934 69.9491 56.6493 65.1891C57.1051 60.4291 57.5489 55.9474 57.6353 55.2296L57.7924 53.9246H53.0204C48.6101 53.9246 48.2074 53.8829 47.706 53.3751C46.9754 52.6349 46.9895 51.1473 47.7338 50.4642C48.2424 49.9973 48.8367 49.9316 53.2387 49.8557L58.1735 49.7706L58.7791 43.3992C59.1121 39.8949 59.3811 36.9351 59.3768 36.8217C59.3727 36.7084 48.4451 36.6157 35.0939 36.6157C12.1486 36.6157 10.82 36.6421 10.8375 37.0965C10.8477 37.3609 11.1223 40.2973 11.4478 43.6217L12.0395 49.6661L26.1829 49.8034C39.6057 49.9338 40.3554 49.9675 40.8971 50.4642C41.6418 51.1472 41.6563 52.6347 40.9253 53.3751C40.3969 53.9104 40.0212 53.9246 26.3844 53.9246H12.3859L12.5362 54.8175C12.6188 55.3086 13.8191 67.3603 15.2035 81.5989C16.5878 95.8376 17.7948 107.397 17.8856 107.288C17.9764 107.178 18.2042 106.531 18.3918 105.851ZM132.269 90.5973C132.75 89.3098 133.143 88.1352 133.143 87.9873C133.143 87.8131 122.119 87.7259 101.884 87.74C74.3183 87.7593 70.8332 87.8076 72.3878 88.1487C74.6176 88.6379 76.0983 89.682 77.1343 91.4956L77.948 92.92L104.672 92.9293L131.395 92.9387L132.269 90.5973ZM134.402 81.9485C134.572 80.9663 134.725 79.7609 134.741 79.2698L134.77 78.3769H94.8863H55.0021L55.0835 79.9566L55.1648 81.5364L56.9278 81.7056C58.9391 81.8987 59.6635 82.1589 60.9825 83.1622L61.918 83.8737L98.0052 83.8041L134.092 83.7344L134.402 81.9485Z" fill="#161616" stroke="#EBF3EF" stroke-width="0.4" mask="url(#path-3-inside-1_54_4973)"/>
</svg>
