<svg width="142" height="130" viewBox="0 0 142 130" fill="none" xmlns="http://www.w3.org/2000/svg">
<path d="M115.164 128.587C113.904 128.323 113.498 127.947 109.429 123.282C107.161 120.68 105.323 118.696 105.134 118.645C104.952 118.596 104.562 118.555 104.268 118.554C103.367 118.551 101.877 117.999 100.992 117.342C100.167 116.729 99.0778 115.31 98.9066 114.626C98.8587 114.435 98.7731 114.278 98.7164 114.278C98.6597 114.278 98.1335 114.515 97.5471 114.805C94.467 116.327 90.5914 116.454 87.4295 115.138C84.4614 113.902 82.0141 111.57 80.8025 108.823C80.1819 107.416 80.0979 107.27 79.9274 107.307C79.5297 107.392 76.8959 107.016 76.004 106.747C72.4613 105.678 69.4355 102.933 68.0137 99.4973C67.502 98.2608 67.1077 96.4828 67.1077 95.4119C67.1077 94.967 66.9944 94.4401 66.8286 94.1142C66.1487 92.7775 65.8636 91.4345 65.8682 89.5895C65.8721 88.0486 65.9249 87.6689 66.2782 86.6416C66.8215 85.0621 67.6331 83.7294 68.6925 82.6774C69.5395 81.8363 69.5703 81.7785 69.6546 80.8736C70.0686 76.4261 74.105 72.5214 78.6556 72.1659C79.6901 72.0851 79.698 72.0812 80.0927 71.4555C80.7202 70.4607 82.5005 68.8655 83.6702 68.2501C85.1105 67.4922 86.6716 67.112 88.3436 67.112C89.7183 67.112 91.5042 67.4658 92.354 67.9065C92.7548 68.1144 92.8143 68.1052 93.3273 67.7556C94.1617 67.1869 95.8768 66.4124 96.9408 66.1238C97.6087 65.9427 98.4266 65.8659 99.6596 65.8687C101.783 65.8737 103.16 66.2124 104.968 67.1752L106.161 67.8106L107.245 67.5109C108.145 67.2624 108.782 67.2103 110.976 67.2057C113.436 67.2007 113.713 67.2279 114.944 67.599C116.65 68.1137 118.641 69.1133 119.946 70.1115C120.832 70.7889 121.107 70.9183 121.855 71.0121C122.336 71.0724 123.292 71.2851 123.98 71.4848C129.999 73.2324 134.365 78.7355 134.668 84.9556L134.751 86.6595L135.618 87.0845C139.017 88.7497 141.252 92.7328 140.977 96.6303C140.873 98.0969 140.373 99.7674 139.669 101.003C139.062 102.069 137.437 103.763 136.408 104.403C135.637 104.882 135.585 104.95 135.668 105.361C136.243 108.221 136.031 110.178 134.903 112.435C134.215 113.812 133.593 114.637 132.375 115.789C129.618 118.398 126.029 119.758 121.814 119.789L119.72 119.805L119.719 122.532C119.718 125.543 119.637 126.015 118.944 127.05C118.187 128.181 116.501 128.867 115.164 128.587ZM116.322 126.053C117.133 125.77 117.222 125.39 117.222 122.183V119.313L116.23 118.988C114.912 118.555 113.383 117.785 112.287 117.001C111.116 116.164 109.341 114.253 108.71 113.15L108.208 112.272L106.731 112.02C105.919 111.881 104.615 111.544 103.833 111.272L102.411 110.778L101.635 111.663L100.858 112.547L101.035 113.228C101.466 114.887 102.669 115.849 104.582 116.064C106.641 116.295 106.706 116.349 111.132 121.436C114.542 125.356 115.324 126.161 115.767 126.207C115.815 126.212 116.065 126.143 116.322 126.053ZM125.046 116.945C127.602 116.28 129.15 115.428 130.826 113.762C132.217 112.38 132.841 111.35 133.242 109.774C133.572 108.481 133.605 107.698 133.376 106.625L133.218 105.885L131.649 105.969C130.498 106.032 129.789 105.992 128.984 105.819C127.801 105.566 125.985 104.768 125.168 104.143C124.89 103.93 124.639 103.825 124.611 103.909C124.583 103.993 124.27 104.462 123.914 104.953C121.12 108.804 116.902 111.374 112.159 112.116L110.99 112.299L112.07 113.439C114.184 115.671 116.37 116.739 119.94 117.283C120.927 117.433 123.933 117.234 125.046 116.945Z" fill="#20EA6D"/>
<path d="M21.9501 97.5274L22.3223 97.0679L21.7316 97.0389L18.6544 96.8883C15.1936 96.7188 13.3911 96.2996 10.8448 95.085C6.04829 92.797 2.2986 88.2652 0.852358 82.9994C0.555347 81.9179 0.398967 80.1736 0.395039 78.4027C0.391111 76.632 0.539681 74.8792 0.832158 73.7814C1.99234 69.4267 4.99917 65.2367 8.70451 62.8069C8.77462 62.7609 8.84612 62.7139 8.90701 62.6682C8.96638 62.6235 9.0346 62.5663 9.08772 62.4939C9.14557 62.4151 9.19011 62.3116 9.18431 62.1871C9.17888 62.0704 9.13071 61.9719 9.07822 61.8947C8.97916 61.7489 8.80325 61.5922 8.57725 61.4108C8.34295 61.2228 8.02071 60.9823 7.60013 60.6686C6.6885 59.9888 5.27601 58.6053 4.47603 57.6061C-0.527431 51.3572 -1.07447 43.1789 3.04939 36.1623C4.43717 33.8011 7.54224 30.9132 10.1313 29.5822C10.3352 29.4774 10.5265 29.3781 10.7077 29.2841C12.4158 28.3975 13.2303 27.9747 15.3045 27.7433C17.4188 27.5075 20.8058 27.4771 27.6305 27.416C28.3468 27.4095 29.101 27.4028 29.8955 27.3954L44.7331 27.2578L44.8131 27.257L44.8822 27.2165L46.0802 26.513C46.9011 26.0309 47.6065 25.3263 48.0891 24.5062L48.7933 23.3094L48.8338 23.2406L48.8348 23.1608L48.9616 12.3347L49.087 1.63097L49.6592 1.05965C50.0173 0.702106 50.5957 0.426658 51.192 0.346766C51.6686 0.282908 51.8796 0.283251 52.0653 0.355375C52.2627 0.432018 52.4686 0.603336 52.8811 1.01536L53.6879 1.82134V12.4638C53.6879 22.5636 53.6511 23.3042 53.1913 24.7913L53.4779 24.88L53.1913 24.7913C52.261 27.8001 49.7808 30.3608 46.655 31.5205C46.1214 31.7185 45.547 31.8385 43.3888 31.92C41.2341 32.0013 37.5359 32.0441 30.7777 32.1052C24.0564 32.1659 20.3463 32.2092 18.1719 32.2906C16.0019 32.3719 15.3264 32.4914 14.6981 32.722C10.3299 34.3253 7.30234 37.3214 5.81655 41.5273C5.39482 42.7212 5.16547 44.2238 5.12945 45.6926C5.09347 47.16 5.24977 48.621 5.61842 49.7289C7.17075 54.3943 10.4672 57.7143 14.9654 59.1238C15.2804 59.2225 15.7409 59.2929 16.6087 59.3487C17.4815 59.4048 18.7882 59.447 20.8091 59.4805C24.8521 59.5474 31.7733 59.5794 43.8417 59.6141C56.7157 59.6511 63.603 59.6781 67.3493 59.7477C69.2245 59.7826 70.3032 59.8281 70.9496 59.8897C71.6038 59.9521 71.7658 60.0282 71.8523 60.0866C73.1169 60.9409 73.3166 62.546 72.3004 63.6822L71.6493 64.4102L43.9255 64.5363C30.7789 64.5961 23.7937 64.6343 19.9459 64.713C16.1176 64.7912 15.3534 64.9078 14.6975 65.1502C9.37283 67.1177 6.02387 71.1393 5.2171 76.5579C4.16166 83.6468 9.51451 90.8516 16.6573 91.97C16.935 92.0135 17.5857 92.0486 18.5418 92.078C19.5073 92.1077 20.8054 92.1319 22.3941 92.1502C25.572 92.1868 29.9176 92.1998 35.1009 92.1855L35.5602 92.1842C44.3685 92.1599 48.7498 92.1477 51.021 92.3112C52.1847 92.395 52.7424 92.5229 53.0519 92.687C53.326 92.8324 53.417 93.0081 53.5996 93.361L53.6066 93.3745C53.8769 93.8967 53.973 94.373 53.9199 94.8128C53.8669 95.2521 53.6616 95.6845 53.2782 96.1134L52.6264 96.8425L42.5283 96.9739C38.0025 97.0328 35.4019 97.0794 33.7926 97.1627C32.1822 97.2461 31.5356 97.3671 30.9313 97.5873C26.5857 99.1709 23.5723 102.147 22.0319 106.387C21.8698 106.833 21.7412 107.189 21.6426 107.622C21.5438 108.055 21.4768 108.557 21.4269 109.304C21.3275 110.792 21.2937 113.297 21.2281 118.251L21.0977 128.085L20.3679 128.736C19.9802 129.082 19.5988 129.278 19.214 129.348C18.83 129.419 18.4174 129.369 17.9586 129.181L17.8451 129.459L17.9586 129.181C17.8546 129.139 17.695 129.042 17.5193 128.908C17.347 128.777 17.1778 128.626 17.0535 128.487C16.9543 128.377 16.8901 128.293 16.8347 128.085C16.7731 127.853 16.7258 127.476 16.693 126.783C16.6278 125.403 16.6233 122.865 16.6233 117.953C16.6233 109.025 16.6817 107.606 17.0581 106.214C17.6682 103.956 19.2393 100.874 20.6963 99.0754L21.9501 97.5274ZM56.4682 75.9113L56.504 75.6135L56.4683 75.9113C57.3639 76.0188 57.9958 76.2862 58.4011 76.6757C58.7994 77.0584 59.0123 77.5912 59.0086 78.3071C59.0059 78.8463 58.8946 79.285 58.6878 79.6392C58.4834 79.9894 58.175 80.2754 57.7461 80.4965C57.7423 80.4974 57.7242 80.5025 57.6833 80.5095C57.6258 80.5194 57.5442 80.5297 57.4352 80.5401C57.2178 80.5609 56.9082 80.5804 56.4987 80.5983C55.6805 80.634 54.4782 80.6631 52.8475 80.6859C49.5869 80.7314 44.6241 80.7519 37.6198 80.7519H18.0454L17.2709 79.9782C16.6824 79.3903 16.4965 78.9876 16.4965 78.5309C16.4965 78.0801 16.6315 77.5808 16.8554 77.1441C17.0805 76.7052 17.3782 76.362 17.677 76.1906C17.6762 76.1912 17.6906 76.1844 17.7317 76.1742C17.777 76.1629 17.841 76.1507 17.9279 76.1381C18.1016 76.113 18.3488 76.0891 18.6859 76.0669C19.3591 76.0226 20.3695 75.986 21.8226 75.9554C24.7275 75.8942 29.385 75.8569 36.6153 75.8265C41.7063 75.8051 46.4889 75.8042 50.0929 75.8199C51.895 75.8278 53.4018 75.8398 54.505 75.8555C55.6198 75.8714 56.2993 75.8911 56.4682 75.9113ZM49.4928 48.3221L17.8543 48.1946L17.283 47.6237L17.0709 47.836L17.283 47.6237C16.9248 47.2658 16.6492 46.6886 16.5692 46.0929C16.5058 45.6203 16.5061 45.4077 16.5751 45.225C16.6473 45.0337 16.8087 44.8369 17.2 44.4473L17.97 43.6807L38.5466 43.5168C39.3764 43.5102 40.1755 43.504 40.9452 43.4979C50.969 43.4193 56.0014 43.3799 58.8609 43.1384C60.4046 43.008 61.3409 42.8172 62.0977 42.5182C62.744 42.2629 63.2505 41.9307 63.8718 41.5232C63.9737 41.4563 64.0788 41.3874 64.1881 41.3165C66.9546 39.5211 68.7931 37.1253 69.871 33.9176L70.5048 32.0314L70.5204 31.985L70.5205 31.936L70.5303 17.1586L70.5306 16.822C70.5358 8.957 70.5384 5.05283 70.7179 3.01745C70.8095 1.97916 70.9442 1.48103 71.1135 1.19769C71.2698 0.935917 71.4651 0.834991 71.8446 0.638915L71.8482 0.637052C72.5939 0.25184 73.3423 0.236543 73.9491 0.496285C74.5553 0.755735 75.0474 1.30105 75.2606 2.09214C75.2999 2.23795 75.3404 2.63417 75.3728 3.3508C75.4045 4.05244 75.4277 5.02937 75.4425 6.30904C75.4722 8.86784 75.4683 12.6274 75.4333 17.7957L75.4275 18.654C75.3753 26.395 75.3494 30.2386 75.1039 32.6243C74.9775 33.8523 74.7939 34.6815 74.5221 35.4506C74.2672 36.1717 73.9332 36.8458 73.4799 37.7605C73.4456 37.8298 73.4105 37.9006 73.3747 37.9729C72.7608 39.2134 71.7501 40.8033 71.1423 41.4962C70.8245 41.8583 70.5347 42.2029 70.3232 42.4671C70.2179 42.5987 70.1298 42.7131 70.067 42.8009C70.036 42.8443 70.0079 42.8856 69.9864 42.9216C69.9759 42.9391 69.9636 42.9609 69.953 42.9843C69.9482 42.9949 69.9204 43.0531 69.9204 43.1275C69.9204 43.2593 70.0009 43.3367 70.0302 43.3611C70.064 43.3894 70.0965 43.4041 70.1107 43.4101C70.1418 43.4233 70.1711 43.4303 70.1867 43.4338C70.2224 43.4417 70.2651 43.4478 70.3078 43.4529C70.3963 43.4634 70.5214 43.4739 70.6756 43.4842C70.9858 43.5051 71.4314 43.5267 71.9783 43.548C73.0727 43.5906 74.5809 43.6319 76.2388 43.6618C81.1076 43.7496 82.4997 43.8601 83.5712 44.2047C85.8439 44.9358 88.2231 46.2546 90.0313 47.6452C90.9353 48.3404 91.6876 49.0467 92.2108 49.6981C92.7435 50.3612 93.0011 50.9213 93.0011 51.3312C93.0011 52.1018 92.5636 52.8376 91.929 53.3163C91.293 53.7962 90.5128 53.9793 89.857 53.7296C89.8573 53.7297 89.8571 53.7297 89.8566 53.7294C89.8535 53.7279 89.8366 53.7198 89.8019 53.6982C89.7649 53.6753 89.7177 53.6434 89.6605 53.6024C89.5462 53.5205 89.4014 53.4087 89.2352 53.2741C88.9032 53.0051 88.4948 52.6522 88.0913 52.2809C86.3954 50.7202 84.5353 49.5702 82.62 48.9063C82.2909 48.7922 81.8802 48.7111 81.0077 48.6475C80.1352 48.5838 78.7813 48.5365 76.5558 48.4983C72.1028 48.4217 64.1351 48.3812 49.4928 48.3221ZM39.2761 128.959C39.095 128.848 38.8893 128.661 38.7083 128.442C38.5265 128.222 38.3886 127.993 38.3254 127.812C38.2923 127.717 38.255 127.519 38.2205 127.213C38.1871 126.916 38.1586 126.541 38.1354 126.108C38.0891 125.243 38.0648 124.161 38.0629 123.04C38.0591 120.789 38.1459 118.415 38.3204 117.331C38.9567 113.377 41.6084 110.249 45.4097 108.97C46.7325 108.525 47.4715 108.462 52.2298 108.462H57.4653L58.2723 109.268C58.6848 109.68 58.8562 109.886 58.9329 110.083C59.005 110.268 59.0054 110.479 58.9414 110.955C58.8616 111.55 58.5857 112.129 58.2282 112.486L57.655 113.059L52.3905 113.183C49.4865 113.251 47.8967 113.306 46.867 113.535C46.34 113.653 45.9464 113.818 45.5917 114.059C45.2432 114.296 44.9443 114.599 44.6029 114.966C43.896 115.727 43.4813 116.267 43.2658 117.277C43.0589 118.247 43.0346 119.656 43.0339 122.148C43.0329 124.831 42.9836 126.389 42.7979 127.363C42.7061 127.844 42.5845 128.162 42.4331 128.394C42.2842 128.623 42.0941 128.788 41.8321 128.948C41.3531 129.24 40.9413 129.371 40.5483 129.372C40.1557 129.374 39.7478 129.246 39.2761 128.959Z" fill="#161616" stroke="#EBF3EF" stroke-width="0.6"/>
<mask id="path-3-outside-1_1_4765" maskUnits="userSpaceOnUse" x="64.8682" y="64.8687" width="77" height="65" fill="black">
<rect fill="white" x="64.8682" y="64.8687" width="77" height="65"/>
<path d="M115.164 128.587C113.904 128.323 113.498 127.947 109.429 123.282C107.161 120.68 105.323 118.696 105.134 118.645C104.952 118.596 104.562 118.555 104.268 118.554C103.367 118.551 101.877 117.999 100.992 117.342C100.167 116.729 99.0778 115.31 98.9066 114.626C98.8587 114.435 98.7731 114.278 98.7164 114.278C98.6597 114.278 98.1335 114.515 97.5471 114.805C94.467 116.327 90.5914 116.454 87.4295 115.138C84.4614 113.902 82.0141 111.57 80.8025 108.823C80.1819 107.416 80.0979 107.27 79.9274 107.307C79.5297 107.392 76.8959 107.016 76.004 106.747C72.4613 105.678 69.4355 102.933 68.0137 99.4973C67.502 98.2608 67.1077 96.4828 67.1077 95.4119C67.1077 94.967 66.9944 94.4401 66.8286 94.1142C66.1487 92.7775 65.8636 91.4345 65.8682 89.5895C65.8721 88.0486 65.9249 87.6689 66.2782 86.6416C66.8215 85.0621 67.6331 83.7294 68.6925 82.6774C69.5395 81.8363 69.5703 81.7785 69.6546 80.8736C70.0686 76.4261 74.105 72.5214 78.6556 72.1659C79.6901 72.0851 79.698 72.0812 80.0927 71.4555C80.7202 70.4607 82.5005 68.8655 83.6702 68.2501C85.1105 67.4922 86.6716 67.112 88.3436 67.112C89.7183 67.112 91.5042 67.4658 92.354 67.9065C92.7548 68.1144 92.8143 68.1052 93.3273 67.7556C94.1617 67.1869 95.8768 66.4124 96.9408 66.1238C97.6087 65.9427 98.4266 65.8659 99.6596 65.8687C101.783 65.8737 103.16 66.2124 104.968 67.1752L106.161 67.8106L107.245 67.5109C108.145 67.2624 108.782 67.2103 110.976 67.2057C113.436 67.2007 113.713 67.2279 114.944 67.599C116.65 68.1137 118.641 69.1133 119.946 70.1115C120.832 70.7889 121.107 70.9183 121.855 71.0121C122.336 71.0724 123.292 71.2851 123.98 71.4848C129.999 73.2324 134.365 78.7355 134.668 84.9556L134.751 86.6595L135.618 87.0845C139.017 88.7497 141.252 92.7328 140.977 96.6303C140.873 98.0969 140.373 99.7674 139.669 101.003C139.062 102.069 137.437 103.763 136.408 104.403C135.637 104.882 135.585 104.95 135.668 105.361C136.243 108.221 136.031 110.178 134.903 112.435C134.215 113.812 133.593 114.637 132.375 115.789C129.618 118.398 126.029 119.758 121.814 119.789L119.72 119.805L119.719 122.532C119.718 125.543 119.637 126.015 118.944 127.05C118.187 128.181 116.501 128.867 115.164 128.587ZM116.322 126.053C117.133 125.77 117.222 125.39 117.222 122.183V119.313L116.23 118.988C114.912 118.555 113.383 117.785 112.287 117.001C111.116 116.164 109.341 114.253 108.71 113.15L108.208 112.272L106.731 112.02C105.919 111.881 104.615 111.544 103.833 111.272L102.411 110.778L101.635 111.663L100.858 112.547L101.035 113.228C101.466 114.887 102.669 115.849 104.582 116.064C106.641 116.295 106.706 116.349 111.132 121.436C114.542 125.356 115.324 126.161 115.767 126.207C115.815 126.212 116.065 126.143 116.322 126.053ZM125.046 116.945C127.602 116.28 129.15 115.428 130.826 113.762C132.217 112.38 132.841 111.35 133.242 109.774C133.572 108.481 133.605 107.698 133.376 106.625L133.218 105.885L131.649 105.969C130.498 106.032 129.789 105.992 128.984 105.819C127.801 105.566 125.985 104.768 125.168 104.143C124.89 103.93 124.639 103.825 124.611 103.909C124.583 103.993 124.27 104.462 123.914 104.953C121.12 108.804 116.902 111.374 112.159 112.116L110.99 112.299L112.07 113.439C114.184 115.671 116.37 116.739 119.94 117.283C120.927 117.433 123.933 117.234 125.046 116.945ZM95.3 113.052C96.8205 112.524 97.8699 111.862 99.1317 110.637L100.225 109.575L99.3544 108.93C98.2291 108.097 98.0578 107.874 98.0578 107.244C98.0578 106.858 98.1628 106.632 98.4627 106.373C99.0156 105.896 99.4287 105.934 100.268 106.537C102.975 108.482 105.297 109.405 108.261 109.714C112.588 110.165 117.028 108.573 120.176 105.44C121.371 104.251 122.806 102.339 122.806 101.938C122.806 101.837 122.613 101.438 122.376 101.052C121.847 100.187 121.336 98.9072 121.336 98.4475C121.336 98.2588 121.474 97.9296 121.641 97.716C121.885 97.4047 122.07 97.3277 122.574 97.3277C123.334 97.3277 123.552 97.5387 123.98 98.6873C125.011 101.457 127.989 103.507 130.992 103.516C134.098 103.525 137.075 101.392 138.091 98.4305C138.898 96.0788 138.474 93.4455 136.964 91.4311C136.345 90.6051 134.866 89.3667 134.502 89.3698C134.414 89.3704 134.193 89.8665 134.009 90.4719C133.626 91.7367 133.253 92.1689 132.545 92.1689C131.978 92.1689 131.33 91.623 131.33 91.1461C131.33 90.9815 131.508 90.2654 131.726 89.5549C132.085 88.3828 132.121 88.0442 132.123 85.9047C132.125 83.7094 132.096 83.4598 131.71 82.2935C130.782 79.489 129.236 77.3404 126.981 75.7217C126.078 75.0731 123.88 73.9453 123.758 74.0677C123.721 74.1042 123.921 74.5604 124.201 75.0816C124.785 76.1693 124.836 76.6474 124.425 77.172C123.749 78.0335 122.748 77.7426 122.128 76.5049C119.928 72.1108 115.083 69.3406 110.159 69.6605C108.331 69.7793 107.107 70.1187 105.141 71.0529C103.529 71.8183 103.392 71.858 102.967 71.6816C102.422 71.4552 102.231 71.1355 102.231 70.4488C102.231 70.0361 102.337 69.8464 102.765 69.4929L103.298 69.0518L102.287 68.7346C100.215 68.0847 98.0378 68.1998 96.1693 69.0582C95.6237 69.3089 95.1773 69.5402 95.1773 69.5723C95.1773 69.6043 95.5074 70.0284 95.9108 70.5146C96.3143 71.0008 96.6855 71.563 96.7358 71.7639C96.9267 72.5267 96.2797 73.3025 95.4528 73.3025C95.2755 73.3025 94.6965 72.8388 94.0265 72.1602C92.2752 70.3864 90.557 69.6177 88.3436 69.6177C86.9955 69.6177 85.9372 69.8831 84.7296 70.5242C83.8244 71.0047 82.3536 72.4124 82.644 72.5204C82.7424 72.557 83.1693 72.7645 83.5928 72.9816C84.5311 73.4626 84.7602 73.9562 84.3983 74.7174C84.113 75.3175 83.598 75.4811 82.7679 75.2354C82.4397 75.1383 81.8406 74.9629 81.4364 74.8457C80.4979 74.5735 78.723 74.5723 77.7082 74.8429C75.6778 75.3849 73.7203 76.9778 72.8582 78.7896C72.4711 79.6029 72.2853 80.2346 72.435 80.2281C72.4552 80.227 72.7964 80.1278 73.1932 80.0071C74.3444 79.6568 75.1112 79.7136 75.4738 80.1759C75.8578 80.6655 75.8627 81.2617 75.4868 81.741C75.2733 82.0131 74.9202 82.1751 74.1698 82.3451C72.6845 82.6815 71.7278 83.228 70.5477 84.4144C69.0507 85.9193 68.2834 87.6979 68.2834 89.6629C68.2834 92.2774 69.8561 94.9687 72.1392 96.2609C73.3532 96.9481 73.611 97.662 72.9315 98.4544C72.4797 98.9811 71.7853 98.9752 70.9359 98.4374C70.5933 98.2205 70.2759 98.0804 70.2304 98.126C70.185 98.1715 70.4011 98.7235 70.7108 99.3526C71.5271 101.011 73.3354 102.8 75.0436 103.639C76.3542 104.284 77.5489 104.631 78.8084 104.735L79.5605 104.797L79.6428 103.163C79.7405 101.225 80.0231 100.04 80.777 98.4073C82.0644 95.6194 83.9698 93.6604 86.7533 92.2629C88.9499 91.1602 89.3639 91.0974 95.0801 91.0016L100.2 90.9158L100.554 90.5022C100.772 90.2477 100.909 89.9035 100.909 89.6073C100.909 88.3068 101.764 86.9748 102.995 86.3599C103.731 85.992 103.853 85.9782 106.338 85.9828C108.222 85.9861 108.986 86.0392 109.17 86.179C109.578 86.49 109.737 87.0829 109.554 87.6097C109.301 88.336 108.75 88.4838 106.294 88.4838C103.704 88.4838 103.577 88.5471 103.388 89.9342C103.234 91.0628 102.855 91.8295 102.141 92.4589C101.069 93.4028 101.044 93.4066 95.3977 93.5026C91.0364 93.5768 90.1312 93.6299 89.4458 93.8518C86.7045 94.7393 84.4158 96.6675 83.221 99.0961C82.1252 101.324 81.8591 103.254 82.3312 105.551C83.0922 109.253 85.9288 112.249 89.6244 113.253C91.1658 113.671 93.7822 113.579 95.3 113.052Z"/>
</mask>
<path d="M115.164 128.587C113.904 128.323 113.498 127.947 109.429 123.282C107.161 120.68 105.323 118.696 105.134 118.645C104.952 118.596 104.562 118.555 104.268 118.554C103.367 118.551 101.877 117.999 100.992 117.342C100.167 116.729 99.0778 115.31 98.9066 114.626C98.8587 114.435 98.7731 114.278 98.7164 114.278C98.6597 114.278 98.1335 114.515 97.5471 114.805C94.467 116.327 90.5914 116.454 87.4295 115.138C84.4614 113.902 82.0141 111.57 80.8025 108.823C80.1819 107.416 80.0979 107.27 79.9274 107.307C79.5297 107.392 76.8959 107.016 76.004 106.747C72.4613 105.678 69.4355 102.933 68.0137 99.4973C67.502 98.2608 67.1077 96.4828 67.1077 95.4119C67.1077 94.967 66.9944 94.4401 66.8286 94.1142C66.1487 92.7775 65.8636 91.4345 65.8682 89.5895C65.8721 88.0486 65.9249 87.6689 66.2782 86.6416C66.8215 85.0621 67.6331 83.7294 68.6925 82.6774C69.5395 81.8363 69.5703 81.7785 69.6546 80.8736C70.0686 76.4261 74.105 72.5214 78.6556 72.1659C79.6901 72.0851 79.698 72.0812 80.0927 71.4555C80.7202 70.4607 82.5005 68.8655 83.6702 68.2501C85.1105 67.4922 86.6716 67.112 88.3436 67.112C89.7183 67.112 91.5042 67.4658 92.354 67.9065C92.7548 68.1144 92.8143 68.1052 93.3273 67.7556C94.1617 67.1869 95.8768 66.4124 96.9408 66.1238C97.6087 65.9427 98.4266 65.8659 99.6596 65.8687C101.783 65.8737 103.16 66.2124 104.968 67.1752L106.161 67.8106L107.245 67.5109C108.145 67.2624 108.782 67.2103 110.976 67.2057C113.436 67.2007 113.713 67.2279 114.944 67.599C116.65 68.1137 118.641 69.1133 119.946 70.1115C120.832 70.7889 121.107 70.9183 121.855 71.0121C122.336 71.0724 123.292 71.2851 123.98 71.4848C129.999 73.2324 134.365 78.7355 134.668 84.9556L134.751 86.6595L135.618 87.0845C139.017 88.7497 141.252 92.7328 140.977 96.6303C140.873 98.0969 140.373 99.7674 139.669 101.003C139.062 102.069 137.437 103.763 136.408 104.403C135.637 104.882 135.585 104.95 135.668 105.361C136.243 108.221 136.031 110.178 134.903 112.435C134.215 113.812 133.593 114.637 132.375 115.789C129.618 118.398 126.029 119.758 121.814 119.789L119.72 119.805L119.719 122.532C119.718 125.543 119.637 126.015 118.944 127.05C118.187 128.181 116.501 128.867 115.164 128.587ZM116.322 126.053C117.133 125.77 117.222 125.39 117.222 122.183V119.313L116.23 118.988C114.912 118.555 113.383 117.785 112.287 117.001C111.116 116.164 109.341 114.253 108.71 113.15L108.208 112.272L106.731 112.02C105.919 111.881 104.615 111.544 103.833 111.272L102.411 110.778L101.635 111.663L100.858 112.547L101.035 113.228C101.466 114.887 102.669 115.849 104.582 116.064C106.641 116.295 106.706 116.349 111.132 121.436C114.542 125.356 115.324 126.161 115.767 126.207C115.815 126.212 116.065 126.143 116.322 126.053ZM125.046 116.945C127.602 116.28 129.15 115.428 130.826 113.762C132.217 112.38 132.841 111.35 133.242 109.774C133.572 108.481 133.605 107.698 133.376 106.625L133.218 105.885L131.649 105.969C130.498 106.032 129.789 105.992 128.984 105.819C127.801 105.566 125.985 104.768 125.168 104.143C124.89 103.93 124.639 103.825 124.611 103.909C124.583 103.993 124.27 104.462 123.914 104.953C121.12 108.804 116.902 111.374 112.159 112.116L110.99 112.299L112.07 113.439C114.184 115.671 116.37 116.739 119.94 117.283C120.927 117.433 123.933 117.234 125.046 116.945ZM95.3 113.052C96.8205 112.524 97.8699 111.862 99.1317 110.637L100.225 109.575L99.3544 108.93C98.2291 108.097 98.0578 107.874 98.0578 107.244C98.0578 106.858 98.1628 106.632 98.4627 106.373C99.0156 105.896 99.4287 105.934 100.268 106.537C102.975 108.482 105.297 109.405 108.261 109.714C112.588 110.165 117.028 108.573 120.176 105.44C121.371 104.251 122.806 102.339 122.806 101.938C122.806 101.837 122.613 101.438 122.376 101.052C121.847 100.187 121.336 98.9072 121.336 98.4475C121.336 98.2588 121.474 97.9296 121.641 97.716C121.885 97.4047 122.07 97.3277 122.574 97.3277C123.334 97.3277 123.552 97.5387 123.98 98.6873C125.011 101.457 127.989 103.507 130.992 103.516C134.098 103.525 137.075 101.392 138.091 98.4305C138.898 96.0788 138.474 93.4455 136.964 91.4311C136.345 90.6051 134.866 89.3667 134.502 89.3698C134.414 89.3704 134.193 89.8665 134.009 90.4719C133.626 91.7367 133.253 92.1689 132.545 92.1689C131.978 92.1689 131.33 91.623 131.33 91.1461C131.33 90.9815 131.508 90.2654 131.726 89.5549C132.085 88.3828 132.121 88.0442 132.123 85.9047C132.125 83.7094 132.096 83.4598 131.71 82.2935C130.782 79.489 129.236 77.3404 126.981 75.7217C126.078 75.0731 123.88 73.9453 123.758 74.0677C123.721 74.1042 123.921 74.5604 124.201 75.0816C124.785 76.1693 124.836 76.6474 124.425 77.172C123.749 78.0335 122.748 77.7426 122.128 76.5049C119.928 72.1108 115.083 69.3406 110.159 69.6605C108.331 69.7793 107.107 70.1187 105.141 71.0529C103.529 71.8183 103.392 71.858 102.967 71.6816C102.422 71.4552 102.231 71.1355 102.231 70.4488C102.231 70.0361 102.337 69.8464 102.765 69.4929L103.298 69.0518L102.287 68.7346C100.215 68.0847 98.0378 68.1998 96.1693 69.0582C95.6237 69.3089 95.1773 69.5402 95.1773 69.5723C95.1773 69.6043 95.5074 70.0284 95.9108 70.5146C96.3143 71.0008 96.6855 71.563 96.7358 71.7639C96.9267 72.5267 96.2797 73.3025 95.4528 73.3025C95.2755 73.3025 94.6965 72.8388 94.0265 72.1602C92.2752 70.3864 90.557 69.6177 88.3436 69.6177C86.9955 69.6177 85.9372 69.8831 84.7296 70.5242C83.8244 71.0047 82.3536 72.4124 82.644 72.5204C82.7424 72.557 83.1693 72.7645 83.5928 72.9816C84.5311 73.4626 84.7602 73.9562 84.3983 74.7174C84.113 75.3175 83.598 75.4811 82.7679 75.2354C82.4397 75.1383 81.8406 74.9629 81.4364 74.8457C80.4979 74.5735 78.723 74.5723 77.7082 74.8429C75.6778 75.3849 73.7203 76.9778 72.8582 78.7896C72.4711 79.6029 72.2853 80.2346 72.435 80.2281C72.4552 80.227 72.7964 80.1278 73.1932 80.0071C74.3444 79.6568 75.1112 79.7136 75.4738 80.1759C75.8578 80.6655 75.8627 81.2617 75.4868 81.741C75.2733 82.0131 74.9202 82.1751 74.1698 82.3451C72.6845 82.6815 71.7278 83.228 70.5477 84.4144C69.0507 85.9193 68.2834 87.6979 68.2834 89.6629C68.2834 92.2774 69.8561 94.9687 72.1392 96.2609C73.3532 96.9481 73.611 97.662 72.9315 98.4544C72.4797 98.9811 71.7853 98.9752 70.9359 98.4374C70.5933 98.2205 70.2759 98.0804 70.2304 98.126C70.185 98.1715 70.4011 98.7235 70.7108 99.3526C71.5271 101.011 73.3354 102.8 75.0436 103.639C76.3542 104.284 77.5489 104.631 78.8084 104.735L79.5605 104.797L79.6428 103.163C79.7405 101.225 80.0231 100.04 80.777 98.4073C82.0644 95.6194 83.9698 93.6604 86.7533 92.2629C88.9499 91.1602 89.3639 91.0974 95.0801 91.0016L100.2 90.9158L100.554 90.5022C100.772 90.2477 100.909 89.9035 100.909 89.6073C100.909 88.3068 101.764 86.9748 102.995 86.3599C103.731 85.992 103.853 85.9782 106.338 85.9828C108.222 85.9861 108.986 86.0392 109.17 86.179C109.578 86.49 109.737 87.0829 109.554 87.6097C109.301 88.336 108.75 88.4838 106.294 88.4838C103.704 88.4838 103.577 88.5471 103.388 89.9342C103.234 91.0628 102.855 91.8295 102.141 92.4589C101.069 93.4028 101.044 93.4066 95.3977 93.5026C91.0364 93.5768 90.1312 93.6299 89.4458 93.8518C86.7045 94.7393 84.4158 96.6675 83.221 99.0961C82.1252 101.324 81.8591 103.254 82.3312 105.551C83.0922 109.253 85.9288 112.249 89.6244 113.253C91.1658 113.671 93.7822 113.579 95.3 113.052Z" fill="#161616"/>
<path d="M115.164 128.587C113.904 128.323 113.498 127.947 109.429 123.282C107.161 120.68 105.323 118.696 105.134 118.645C104.952 118.596 104.562 118.555 104.268 118.554C103.367 118.551 101.877 117.999 100.992 117.342C100.167 116.729 99.0778 115.31 98.9066 114.626C98.8587 114.435 98.7731 114.278 98.7164 114.278C98.6597 114.278 98.1335 114.515 97.5471 114.805C94.467 116.327 90.5914 116.454 87.4295 115.138C84.4614 113.902 82.0141 111.57 80.8025 108.823C80.1819 107.416 80.0979 107.27 79.9274 107.307C79.5297 107.392 76.8959 107.016 76.004 106.747C72.4613 105.678 69.4355 102.933 68.0137 99.4973C67.502 98.2608 67.1077 96.4828 67.1077 95.4119C67.1077 94.967 66.9944 94.4401 66.8286 94.1142C66.1487 92.7775 65.8636 91.4345 65.8682 89.5895C65.8721 88.0486 65.9249 87.6689 66.2782 86.6416C66.8215 85.0621 67.6331 83.7294 68.6925 82.6774C69.5395 81.8363 69.5703 81.7785 69.6546 80.8736C70.0686 76.4261 74.105 72.5214 78.6556 72.1659C79.6901 72.0851 79.698 72.0812 80.0927 71.4555C80.7202 70.4607 82.5005 68.8655 83.6702 68.2501C85.1105 67.4922 86.6716 67.112 88.3436 67.112C89.7183 67.112 91.5042 67.4658 92.354 67.9065C92.7548 68.1144 92.8143 68.1052 93.3273 67.7556C94.1617 67.1869 95.8768 66.4124 96.9408 66.1238C97.6087 65.9427 98.4266 65.8659 99.6596 65.8687C101.783 65.8737 103.16 66.2124 104.968 67.1752L106.161 67.8106L107.245 67.5109C108.145 67.2624 108.782 67.2103 110.976 67.2057C113.436 67.2007 113.713 67.2279 114.944 67.599C116.65 68.1137 118.641 69.1133 119.946 70.1115C120.832 70.7889 121.107 70.9183 121.855 71.0121C122.336 71.0724 123.292 71.2851 123.98 71.4848C129.999 73.2324 134.365 78.7355 134.668 84.9556L134.751 86.6595L135.618 87.0845C139.017 88.7497 141.252 92.7328 140.977 96.6303C140.873 98.0969 140.373 99.7674 139.669 101.003C139.062 102.069 137.437 103.763 136.408 104.403C135.637 104.882 135.585 104.95 135.668 105.361C136.243 108.221 136.031 110.178 134.903 112.435C134.215 113.812 133.593 114.637 132.375 115.789C129.618 118.398 126.029 119.758 121.814 119.789L119.72 119.805L119.719 122.532C119.718 125.543 119.637 126.015 118.944 127.05C118.187 128.181 116.501 128.867 115.164 128.587ZM116.322 126.053C117.133 125.77 117.222 125.39 117.222 122.183V119.313L116.23 118.988C114.912 118.555 113.383 117.785 112.287 117.001C111.116 116.164 109.341 114.253 108.71 113.15L108.208 112.272L106.731 112.02C105.919 111.881 104.615 111.544 103.833 111.272L102.411 110.778L101.635 111.663L100.858 112.547L101.035 113.228C101.466 114.887 102.669 115.849 104.582 116.064C106.641 116.295 106.706 116.349 111.132 121.436C114.542 125.356 115.324 126.161 115.767 126.207C115.815 126.212 116.065 126.143 116.322 126.053ZM125.046 116.945C127.602 116.28 129.15 115.428 130.826 113.762C132.217 112.38 132.841 111.35 133.242 109.774C133.572 108.481 133.605 107.698 133.376 106.625L133.218 105.885L131.649 105.969C130.498 106.032 129.789 105.992 128.984 105.819C127.801 105.566 125.985 104.768 125.168 104.143C124.89 103.93 124.639 103.825 124.611 103.909C124.583 103.993 124.27 104.462 123.914 104.953C121.12 108.804 116.902 111.374 112.159 112.116L110.99 112.299L112.07 113.439C114.184 115.671 116.37 116.739 119.94 117.283C120.927 117.433 123.933 117.234 125.046 116.945ZM95.3 113.052C96.8205 112.524 97.8699 111.862 99.1317 110.637L100.225 109.575L99.3544 108.93C98.2291 108.097 98.0578 107.874 98.0578 107.244C98.0578 106.858 98.1628 106.632 98.4627 106.373C99.0156 105.896 99.4287 105.934 100.268 106.537C102.975 108.482 105.297 109.405 108.261 109.714C112.588 110.165 117.028 108.573 120.176 105.44C121.371 104.251 122.806 102.339 122.806 101.938C122.806 101.837 122.613 101.438 122.376 101.052C121.847 100.187 121.336 98.9072 121.336 98.4475C121.336 98.2588 121.474 97.9296 121.641 97.716C121.885 97.4047 122.07 97.3277 122.574 97.3277C123.334 97.3277 123.552 97.5387 123.98 98.6873C125.011 101.457 127.989 103.507 130.992 103.516C134.098 103.525 137.075 101.392 138.091 98.4305C138.898 96.0788 138.474 93.4455 136.964 91.4311C136.345 90.6051 134.866 89.3667 134.502 89.3698C134.414 89.3704 134.193 89.8665 134.009 90.4719C133.626 91.7367 133.253 92.1689 132.545 92.1689C131.978 92.1689 131.33 91.623 131.33 91.1461C131.33 90.9815 131.508 90.2654 131.726 89.5549C132.085 88.3828 132.121 88.0442 132.123 85.9047C132.125 83.7094 132.096 83.4598 131.71 82.2935C130.782 79.489 129.236 77.3404 126.981 75.7217C126.078 75.0731 123.88 73.9453 123.758 74.0677C123.721 74.1042 123.921 74.5604 124.201 75.0816C124.785 76.1693 124.836 76.6474 124.425 77.172C123.749 78.0335 122.748 77.7426 122.128 76.5049C119.928 72.1108 115.083 69.3406 110.159 69.6605C108.331 69.7793 107.107 70.1187 105.141 71.0529C103.529 71.8183 103.392 71.858 102.967 71.6816C102.422 71.4552 102.231 71.1355 102.231 70.4488C102.231 70.0361 102.337 69.8464 102.765 69.4929L103.298 69.0518L102.287 68.7346C100.215 68.0847 98.0378 68.1998 96.1693 69.0582C95.6237 69.3089 95.1773 69.5402 95.1773 69.5723C95.1773 69.6043 95.5074 70.0284 95.9108 70.5146C96.3143 71.0008 96.6855 71.563 96.7358 71.7639C96.9267 72.5267 96.2797 73.3025 95.4528 73.3025C95.2755 73.3025 94.6965 72.8388 94.0265 72.1602C92.2752 70.3864 90.557 69.6177 88.3436 69.6177C86.9955 69.6177 85.9372 69.8831 84.7296 70.5242C83.8244 71.0047 82.3536 72.4124 82.644 72.5204C82.7424 72.557 83.1693 72.7645 83.5928 72.9816C84.5311 73.4626 84.7602 73.9562 84.3983 74.7174C84.113 75.3175 83.598 75.4811 82.7679 75.2354C82.4397 75.1383 81.8406 74.9629 81.4364 74.8457C80.4979 74.5735 78.723 74.5723 77.7082 74.8429C75.6778 75.3849 73.7203 76.9778 72.8582 78.7896C72.4711 79.6029 72.2853 80.2346 72.435 80.2281C72.4552 80.227 72.7964 80.1278 73.1932 80.0071C74.3444 79.6568 75.1112 79.7136 75.4738 80.1759C75.8578 80.6655 75.8627 81.2617 75.4868 81.741C75.2733 82.0131 74.9202 82.1751 74.1698 82.3451C72.6845 82.6815 71.7278 83.228 70.5477 84.4144C69.0507 85.9193 68.2834 87.6979 68.2834 89.6629C68.2834 92.2774 69.8561 94.9687 72.1392 96.2609C73.3532 96.9481 73.611 97.662 72.9315 98.4544C72.4797 98.9811 71.7853 98.9752 70.9359 98.4374C70.5933 98.2205 70.2759 98.0804 70.2304 98.126C70.185 98.1715 70.4011 98.7235 70.7108 99.3526C71.5271 101.011 73.3354 102.8 75.0436 103.639C76.3542 104.284 77.5489 104.631 78.8084 104.735L79.5605 104.797L79.6428 103.163C79.7405 101.225 80.0231 100.04 80.777 98.4073C82.0644 95.6194 83.9698 93.6604 86.7533 92.2629C88.9499 91.1602 89.3639 91.0974 95.0801 91.0016L100.2 90.9158L100.554 90.5022C100.772 90.2477 100.909 89.9035 100.909 89.6073C100.909 88.3068 101.764 86.9748 102.995 86.3599C103.731 85.992 103.853 85.9782 106.338 85.9828C108.222 85.9861 108.986 86.0392 109.17 86.179C109.578 86.49 109.737 87.0829 109.554 87.6097C109.301 88.336 108.75 88.4838 106.294 88.4838C103.704 88.4838 103.577 88.5471 103.388 89.9342C103.234 91.0628 102.855 91.8295 102.141 92.4589C101.069 93.4028 101.044 93.4066 95.3977 93.5026C91.0364 93.5768 90.1312 93.6299 89.4458 93.8518C86.7045 94.7393 84.4158 96.6675 83.221 99.0961C82.1252 101.324 81.8591 103.254 82.3312 105.551C83.0922 109.253 85.9288 112.249 89.6244 113.253C91.1658 113.671 93.7822 113.579 95.3 113.052Z" stroke="#161616" mask="url(#path-3-outside-1_1_4765)"/>
</svg>
