<svg width="39" height="18" viewBox="0 0 39 18" fill="none" xmlns="http://www.w3.org/2000/svg">
<path d="M1.72949 10.2134C1.07143 10.2134 0.537973 9.67991 0.537973 9.02185C0.537973 8.36379 1.07143 7.83033 1.72949 7.83033L1.72949 10.2134ZM38.3176 8.17932C38.7829 8.64463 38.7829 9.39906 38.3176 9.86438L30.7348 17.4472C30.2695 17.9125 29.5151 17.9125 29.0498 17.4472C28.5844 16.9818 28.5844 16.2274 29.0497 15.7621L35.79 9.02185L29.0497 2.2816C28.5844 1.81628 28.5844 1.06185 29.0497 0.596537C29.5151 0.13122 30.2695 0.13122 30.7348 0.596537L38.3176 8.17932ZM1.72949 7.83033L37.4751 7.83033L37.4751 10.2134L1.72949 10.2134L1.72949 7.83033Z" fill="#FFFFFF"/>
</svg>
