<svg width="39" height="18" viewBox="0 0 39 18" fill="none" xmlns="http://www.w3.org/2000/svg">
<path opacity="0.3" d="M37.7451 10.2134C38.4032 10.2134 38.9366 9.67991 38.9366 9.02185C38.9366 8.36379 38.4032 7.83033 37.7451 7.83033L37.7451 10.2134ZM1.15702 8.17932C0.6917 8.64463 0.6917 9.39906 1.15702 9.86438L8.7398 17.4472C9.20512 17.9125 9.95954 17.9125 10.4249 17.4472C10.8902 16.9818 10.8902 16.2274 10.4249 15.7621L3.68461 9.02185L10.4249 2.2816C10.8902 1.81628 10.8902 1.06185 10.4249 0.596537C9.95954 0.13122 9.20512 0.13122 8.7398 0.596537L1.15702 8.17932ZM37.7451 7.83033L1.99955 7.83033L1.99955 10.2134L37.7451 10.2134L37.7451 7.83033Z" fill="#292D34"/>
</svg>
