<svg width="21" height="15" viewBox="0 0 21 15" fill="none" xmlns="http://www.w3.org/2000/svg">
<path d="M19.2413 2.77335C19.0432 2.75048 18.8428 2.78602 18.6646 2.87561L14.0089 5.20193V9.29215L18.6646 11.6185C18.8203 11.6963 18.9933 11.733 19.1672 11.7253C19.3411 11.7176 19.5101 11.6656 19.6583 11.5742C19.8065 11.4829 19.9289 11.3552 20.0139 11.2033C20.099 11.0515 20.1438 10.8804 20.1443 10.7063V3.78773C20.144 3.53745 20.0519 3.29596 19.8855 3.10901C19.7191 2.92206 19.4899 2.80264 19.2413 2.77335Z" fill="#161616"/>
<path d="M3.78195 0.0893555C2.09984 0.0893555 0.714279 1.47492 0.714279 3.15702V11.3375C0.714279 13.0196 2.09984 14.4051 3.78195 14.4051H11.9624C13.6445 14.4051 15.0301 13.0196 15.0301 11.3375V3.15702C15.0301 1.47492 13.6445 0.0893555 11.9624 0.0893555H3.78195Z" fill="#161616"/>
</svg>
