<svg width="20" height="19" viewBox="0 0 20 19" fill="none" xmlns="http://www.w3.org/2000/svg">
<path d="M1.55683 16.055C2.75683 17.5 4.98883 17.5 9.45483 17.5H10.1748C14.6408 17.5 16.8738 17.5 18.0738 16.055M1.55683 16.055C0.356832 14.609 0.768832 12.415 1.59183 8.025C2.17683 4.905 2.46883 3.344 3.57983 2.422M18.0738 16.055C19.2738 14.609 18.8618 12.415 18.0388 8.025C17.4538 4.905 17.1608 3.344 16.0498 2.422M16.0498 2.422C14.9398 1.5 13.3508 1.5 10.1758 1.5H9.45383C6.27883 1.5 4.69083 1.5 3.57983 2.422" stroke="#161616" stroke-width="1.5"/>
<path d="M6.98486 5.5C7.19147 6.08553 7.5746 6.59257 8.08146 6.95121C8.58832 7.30986 9.19395 7.50245 9.81486 7.50245C10.4358 7.50245 11.0414 7.30986 11.5483 6.95121C12.0551 6.59257 12.4383 6.08553 12.6449 5.5" stroke="#161616" stroke-width="1.5" stroke-linecap="round"/>
</svg>
