<svg width="87" height="87" viewBox="0 0 87 87" fill="none" xmlns="http://www.w3.org/2000/svg">
<path d="M7.37823 86.3695C4.96239 85.4065 3.8159 82.505 4.91579 80.1374C5.14006 79.6547 7.18645 76.0208 9.46332 72.0622L13.6031 64.8648L13.6541 60.1064L13.7051 55.3481L13.2559 55.0499C12.4253 54.4986 12.1313 53.7677 12.1306 52.2519C12.13 50.5949 12.4296 49.8471 13.3182 49.2887C13.8544 48.9517 14.2443 48.8822 15.9022 48.828L17.8548 48.7641L17.8085 44.2803L17.7624 39.7965L15.6827 39.3092C9.30124 37.8138 6.12672 35.9049 3.6986 32.1028C1.91382 29.3081 0.706934 25.2211 0.695373 21.9326C0.692753 21.1704 0.77438 20.8667 1.06804 20.5474C1.4297 20.1542 1.51452 20.1426 3.27766 20.2448C9.30641 20.5942 14.8552 23.792 17.253 28.2987L17.8411 29.4042L17.8451 25.8055L17.849 22.2068L16.7083 20.3635C14.1583 16.243 13.4257 14.2345 13.4426 11.4106C13.4551 9.33738 13.7671 7.87623 14.6515 5.74948C15.763 3.0769 18.1536 0 19.1186 0C20.0702 0 22.7625 3.60016 23.7494 6.19243C24.5683 8.34353 24.8278 9.81819 24.7295 11.7617C24.5936 14.4465 23.5877 17.0595 21.3324 20.586L20.2681 22.2502L20.315 25.8272C20.3545 28.8369 20.3959 29.327 20.5759 28.9174C21.3328 27.1944 23.1489 25.023 24.8679 23.7858C27.7591 21.7049 32.2609 20.188 35.5452 20.188C37.1941 20.188 37.4324 20.4399 37.4324 22.1838C37.4324 24.7303 36.644 27.9301 35.3937 30.4575C32.9715 35.354 29.4466 37.7355 22.1777 39.3864L20.362 39.7988L20.3158 44.3005L20.2695 48.8022H22.0554C24.3115 48.8022 25.1705 49.1656 25.7903 50.3821C26.1297 51.0483 26.1815 51.3681 26.121 52.423C26.0412 53.8143 25.6238 54.7121 24.8661 55.1229L24.4191 55.3652L24.4702 60.0272L24.5213 64.6892L28.9294 72.4023C31.611 77.0944 33.4377 80.4798 33.5933 81.0461C34.1074 82.9173 33.155 85.0755 31.3668 86.0912L30.4136 86.6327L19.3222 86.671C8.71379 86.7076 8.19354 86.6945 7.37823 86.3695ZM30.294 83.9072C30.9732 83.4877 31.4402 82.4846 31.2961 81.7546C31.2403 81.4721 30.278 79.6262 29.1577 77.6527C27.4169 74.5862 27.0704 74.0777 26.7742 74.1546C23.2463 75.0706 21.5933 75.0059 18.0223 73.812C15.9069 73.1047 15.2901 72.9696 14.123 72.9576C11.6586 72.9325 11.7837 72.8202 9.19251 77.3801C6.77738 81.6302 6.61959 82.0905 7.19302 83.2138C7.73649 84.2783 7.39233 84.2481 19.0622 84.2551C29.453 84.2611 29.7347 84.2525 30.294 83.9072ZM24.9211 72.1241C25.3684 72.0133 25.7561 71.9057 25.7826 71.885C25.8092 71.8643 25.0503 70.4729 24.0963 68.793C22.8673 66.629 22.3102 65.4635 22.185 64.795C22.0878 64.276 22.0083 61.9662 22.0083 59.6622V55.473H19.0622H16.116L16.1153 59.9934C16.1147 62.7483 16.0396 64.7879 15.9229 65.2159C15.8177 65.6021 15.1552 66.9195 14.4508 68.1434C13.7465 69.3673 13.1701 70.4003 13.1701 70.439C13.1701 70.4777 13.4015 70.4749 13.6842 70.433C14.4868 70.3137 16.3582 70.6961 18.6292 71.4436C19.773 71.82 20.8648 72.1633 21.0555 72.2065C21.7714 72.3686 24.1379 72.3181 24.9211 72.1241ZM23.7075 52.1815L23.6547 51.3476L19.1055 51.3009L14.5563 51.2541V52.1347V53.0154H19.1583H23.7604L23.7075 52.1815ZM17.5024 37.0565C17.5024 36.9688 17.2401 35.8431 16.9195 34.555C15.6817 29.5817 14.3397 27.3843 11.2863 25.3314C9.43229 24.0848 6.5421 23.0385 4.09863 22.7293L3.09046 22.6017L3.20809 23.4575C3.97372 29.0279 6.46664 33.0731 10.2692 34.9156C11.9744 35.7418 12.8164 36.0383 15.3361 36.6997C17.5175 37.2723 17.5024 37.2698 17.5024 37.0565ZM22.8748 36.7044C26.1956 35.8534 28.6386 34.7697 30.268 33.4248C32.4923 31.589 34.5261 27.3437 34.9349 23.6837L35.0567 22.5936L34.1215 22.7148C29.5213 23.3112 25.1257 25.8576 23.3187 28.9731C22.7266 29.994 21.8351 32.2066 21.4936 33.5031C21.0753 35.0909 20.6606 37.2161 20.769 37.2156C20.831 37.2154 21.7787 36.9853 22.8748 36.7044ZM19.8203 18.4687C20.7843 16.8613 21.8024 14.584 22.1126 13.3416C22.7448 10.8088 22.094 7.63348 20.3677 4.82779C19.315 3.11693 19.1242 2.9678 18.6942 3.51962C18.1215 4.25472 17.0568 6.18663 16.6673 7.19747C15.4856 10.265 15.5069 12.7044 16.7393 15.4482C17.2897 16.6737 18.9253 19.4858 19.0876 19.4858C19.1551 19.4858 19.4848 19.0281 19.8203 18.4687ZM36.1247 86.2896L35.6993 85.8587V81.2947C35.6993 76.4937 35.7808 75.9037 36.4656 75.7442C36.6637 75.6981 37.6057 75.6407 38.5588 75.6167L40.2919 75.5732V73.2033V70.8334L37.0949 70.7855C34.4272 70.7455 33.8463 70.6901 33.5855 70.4511C33.3022 70.1913 33.2731 69.7988 33.2731 66.242C33.2731 62.5535 33.2938 62.2985 33.6197 61.9683C33.9605 61.6231 34.1973 61.6172 47.7518 61.6172H61.5373L61.9627 62.0481C62.3868 62.4777 62.3881 62.4897 62.3881 66.0972C62.3881 69.6303 62.3047 70.2692 61.7989 70.6113C61.694 70.6823 60.185 70.7415 58.4454 70.743L55.2826 70.7456V73.2083V75.6709L57.6576 75.622L60.0326 75.5732L61.0547 74.3444C64.0346 70.7617 66.6965 65.6837 67.8259 61.4273C68.753 57.9331 68.8815 56.8676 68.8829 52.6643C68.8842 48.4764 68.6963 46.7482 67.8423 43.0969C67.108 39.9571 65.6831 35.6591 64.4645 32.9079L63.9821 31.8188L62.7952 31.5476C62.1424 31.3984 61.5873 31.3291 61.5618 31.3936C61.5362 31.4581 60.4736 33.3277 59.2003 35.5484C56.5657 40.1434 56.4934 40.2146 55.182 39.5099C54.7573 39.2817 54.3851 39.1264 54.3548 39.1649C54.3246 39.2034 53.8851 39.9854 53.3783 40.9026C52.2284 42.9835 51.901 43.3603 51.2424 43.3603C50.9016 43.3603 49.5548 42.6712 47.2433 41.3143C45.3263 40.1891 43.6988 39.1819 43.6264 39.0761C43.2016 38.4549 43.3079 38.0629 44.4328 36.1006C45.0625 35.0022 45.5776 34.0639 45.5776 34.0155C45.5776 33.967 45.2671 33.7192 44.8876 33.4648C44.0542 32.9061 43.8845 32.3703 44.2888 31.5736C44.9723 30.2267 58.1103 7.26006 58.3586 6.97805C58.7194 6.56838 59.5309 6.58939 60.229 7.02649L60.7971 7.38211L62.2222 4.87603C64.9396 0.0974663 65.0101 5.94785e-05 65.7547 5.94785e-05C66.2636 5.94785e-05 73.2001 4.19434 73.4318 4.64214C73.7221 5.20345 73.6904 5.27683 71.5059 9.0974C70.4944 10.8665 69.6669 12.3747 69.6669 12.449C69.6669 12.5234 69.9339 12.7299 70.2604 12.9079C70.8183 13.2123 71.2293 13.7937 71.2244 14.2715C71.2231 14.3877 70.7228 15.3474 70.1124 16.4042L69.0025 18.3257L69.7601 19.1792C71.2373 20.8435 71.955 23.2394 71.5956 25.3064L71.4084 26.383L72.584 27.7181C80.8645 37.1221 85.0623 45.9515 85.7773 55.4679C86.2399 61.6252 84.5993 69.1575 81.6223 74.5442C81.3482 75.0403 81.1716 75.4945 81.2299 75.5536C81.2883 75.6126 82.3324 75.661 83.5502 75.661C85.6419 75.661 85.7794 75.6826 86.0342 76.0512C86.2621 76.3807 86.304 77.1724 86.304 81.15V85.8587L85.8786 86.2896L85.4532 86.7205H61.0017H36.5501L36.1247 86.2896ZM83.8778 81.1023V77.9418L61.045 77.9863L38.2122 78.0308L38.1649 81.1468L38.1176 84.2628H60.9977H83.8778L83.8778 81.1023ZM52.7697 73.2033V70.8334L47.7873 70.7868L42.8048 70.7403V73.2033V75.6664L47.7873 75.6198L52.7697 75.5732V73.2033ZM78.473 75.1782C79.2562 74.0592 80.9995 70.2296 81.709 68.0693C84.4194 59.8178 83.9437 51.9713 80.2192 43.4945C78.3022 39.1313 74.8351 33.8934 71.0277 29.6086L70.2734 28.7596L69.4493 29.5626C68.996 30.0043 68.1577 30.6047 67.5863 30.8968C67.0149 31.189 66.5474 31.4627 66.5474 31.505C66.5474 31.5473 66.8918 32.4349 67.3128 33.4774C68.973 37.589 70.3789 42.5778 71.0076 46.5888C71.3936 49.0516 71.4384 56.0798 71.081 58.1062C70.4397 61.7422 69.455 64.8509 67.9392 68.0247C66.9577 70.0796 65.0107 73.2639 63.8473 74.7168C63.5286 75.1148 63.3169 75.49 63.3768 75.5507C63.4367 75.6113 66.7818 75.661 70.8104 75.661H78.1351L78.473 75.1782ZM59.9239 66.2253L59.9725 64.0748H47.8359H35.6993V66.2704V68.4659L47.7873 68.4209L59.8752 68.3758L59.9239 66.2253ZM51.7004 38.9678L52.3219 37.8231L50.2215 36.598C49.0662 35.9241 48.0257 35.3491 47.9092 35.32C47.6475 35.2547 46.2039 37.7459 46.3937 37.9353C46.4691 38.0105 47.4666 38.6242 48.6105 39.2991C50.1888 40.2303 50.737 40.4763 50.8845 40.3194C50.9915 40.2057 51.3586 39.5975 51.7004 38.9678ZM57.6054 33.4476C58.8762 31.2249 59.4437 30.0727 59.3384 29.9284C59.2524 29.8104 58.8562 29.3086 58.458 28.8133C57.3357 27.4173 56.9509 26.2328 56.939 24.1378C56.9298 22.516 56.9713 22.292 57.4839 21.1959C59.0621 17.8209 62.621 16.0295 65.9894 16.9146L66.8934 17.1521L67.6018 15.9074L68.3102 14.6628L67.9225 14.3972C67.7092 14.2511 65.756 13.0901 63.582 11.8172L59.6293 9.5028L59.2957 10.0617C58.4535 11.4729 47.1321 31.4083 47.0502 31.6245C46.9855 31.7951 48.2232 32.6157 51.1635 34.3517C53.4767 35.7175 55.4473 36.8163 55.5426 36.7936C55.6379 36.7708 56.5662 35.2651 57.6054 33.4476ZM66.4954 28.7251C69.5311 27.1537 70.2023 23.3501 67.8952 20.793C66.0375 18.7341 63.0566 18.579 60.8868 20.4284C59.4677 21.638 58.8997 24.1179 59.6071 26.0157C60.072 27.2628 61.4946 28.6569 62.7035 29.0501C63.8194 29.4131 65.4336 29.2747 66.4954 28.7251ZM63.309 25.8142C62.1798 25.1168 62.0355 23.8454 62.9773 22.8914C63.9452 21.911 65.3155 22.1229 65.9418 23.3498C66.2702 23.9931 66.2692 24.4601 65.9379 25.109C65.6482 25.6765 64.878 26.1569 64.2597 26.1559C64.0405 26.1556 63.6127 26.0018 63.309 25.8142ZM69.1155 8.40626C70.0007 6.85042 70.7013 5.55922 70.6725 5.53693C70.2535 5.21305 66.1722 2.95476 66.1134 3.01429C65.9767 3.15279 63.0647 8.29772 63.0286 8.46463C63.0002 8.59576 67.1452 11.2059 67.4167 11.2278C67.4659 11.2318 68.2303 9.9621 69.1155 8.40626Z" fill="white"/>
<path d="M23.7075 52.1815L23.6547 51.3476L19.1055 51.3009L14.5563 51.2541V52.1348V53.0154H19.1583H23.7604L23.7075 52.1815ZM17.5024 37.0565C17.5024 36.9688 17.2401 35.8431 16.9195 34.555C15.6817 29.5817 14.3397 27.3843 11.2863 25.3314C9.43229 24.0848 6.5421 23.0385 4.09863 22.7293L3.09046 22.6017L3.20809 23.4575C3.97372 29.0279 6.46664 33.0731 10.2692 34.9156C11.9744 35.7418 12.8164 36.0383 15.3361 36.6997C17.5175 37.2723 17.5024 37.2698 17.5024 37.0565ZM22.8748 36.7044C26.1956 35.8534 28.6386 34.7697 30.268 33.4248C32.4923 31.589 34.5261 27.3437 34.9349 23.6837L35.0567 22.5936L34.1215 22.7148C29.5213 23.3112 25.1257 25.8576 23.3187 28.9731C22.7266 29.994 21.8351 32.2066 21.4936 33.5031C21.0753 35.0909 20.6606 37.2161 20.769 37.2156C20.831 37.2154 21.7787 36.9853 22.8748 36.7044ZM19.8203 18.4687C20.7843 16.8613 21.8024 14.584 22.1126 13.3416C22.7448 10.8088 22.094 7.63348 20.3677 4.82779C19.315 3.11693 19.1242 2.9678 18.6942 3.51962C18.1215 4.25472 17.0568 6.18663 16.6673 7.19747C15.4856 10.265 15.5069 12.7044 16.7393 15.4482C17.2897 16.6737 18.9253 19.4858 19.0876 19.4858C19.1551 19.4858 19.4848 19.0281 19.8203 18.4687Z" fill="#20EA6D"/>
</svg>
