<svg width="90" height="90" viewBox="0 0 90 90" fill="none" xmlns="http://www.w3.org/2000/svg">
<path d="M27.3201 47.8259C32.1914 46.5313 35.6236 42.1604 37.7632 34.5265C38.0358 33.554 38.2151 32.7145 38.1617 32.6611C38.1083 32.6076 37.4314 32.7701 36.6574 33.0221C35.8835 33.2741 34.0371 33.8156 32.5542 34.2255C28.9228 35.2293 27.1684 35.8541 25.4069 36.771C22.7262 38.1664 20.9731 40.2355 20.3084 42.7888C19.9607 44.1243 19.9248 47.7064 20.2578 47.8334C21.51 48.3108 25.5117 48.3065 27.3201 47.8259ZM15.0556 31.6777L15.7515 31.447L15.6357 30.4617C15.3157 27.7374 13.6241 26.0364 10.4255 25.2228C9.03662 24.8695 3.8684 24.2088 3.71264 24.3646C3.57674 24.5006 4.41955 26.2232 5.28214 27.5724C6.60746 29.6455 8.21124 31.0547 10.0068 31.7237C10.7625 32.0053 11.2606 32.0554 12.6489 31.9895C13.5899 31.9449 14.6729 31.8045 15.0556 31.6777Z" fill="#20EA6D"/>
<path d="M49.8377 89.1854C48.1051 88.7281 47.1404 88.2896 32.2292 81.1811L19.1231 74.9331L15.7059 75.4321L12.2887 75.931V77.8453C12.2887 79.5092 12.2399 79.8218 11.9155 80.2344L11.5422 80.7092H6.24263C1.18314 80.7092 0.926703 80.6928 0.582841 80.3488C0.229096 79.9949 0.222656 79.7482 0.222656 66.5569V53.1253L0.664698 52.683L1.10674 52.2407H6.2557H11.4047L11.8467 52.683C12.258 53.0945 12.2887 53.2525 12.2887 54.9563C12.2887 56.7675 12.2928 56.7861 12.6939 56.6774C12.9168 56.6169 14.2582 56.3055 15.6749 55.9855C18.0412 55.4508 18.2432 55.3738 18.159 55.0383C18.0384 54.5572 17.3971 48.3094 17.1445 45.1539C17.0347 43.7832 16.8854 40.7244 16.8125 38.3567C16.7397 35.989 16.632 34.0036 16.5732 33.9448C16.5144 33.8859 16.0329 33.9686 15.5031 34.1283C14.9733 34.2881 13.8769 34.4674 13.0665 34.5268C7.85544 34.9088 3.8469 31.649 1.02274 24.7326C0.584515 23.6594 0.225218 22.613 0.224313 22.4073C0.223632 22.2016 0.427439 21.8408 0.677738 21.6056L1.13281 21.1778L2.61372 21.479C3.4282 21.6446 5.43178 21.9432 7.06611 22.1426C11.9398 22.7373 13.9602 23.4673 15.8227 25.3068L16.9254 26.3959L17.0437 24.7688C17.1981 22.6473 17.6733 18.8122 17.8835 17.9927C18.0909 17.1839 18.7451 16.783 19.4518 17.0317C20.194 17.2928 20.4152 17.9233 20.2106 19.1945C19.5294 23.4266 19.0019 32.5348 19.2195 36.3092L19.3502 38.5764L20.249 37.5675C21.7903 35.8374 24.2329 34.3244 27.2363 33.2396C27.9792 32.9713 30.4018 32.2308 32.6199 31.5941C34.838 30.9573 37.3859 30.1429 38.2819 29.7843C40.0883 29.0612 40.6548 29.0859 41.0472 29.9048C41.2236 30.2732 41.1809 30.7394 40.8083 32.5133C39.903 36.8222 38.2396 41.1366 36.3976 43.9524C35.3265 45.5899 32.9715 47.8951 31.4684 48.7773C28.792 50.3482 25.4629 51.0172 22.1807 50.6438C21.167 50.5285 20.2967 50.475 20.2467 50.525C20.1519 50.6199 20.5571 54.8025 20.6726 54.9212C20.7089 54.9585 21.3294 54.8919 22.0515 54.7732C25.0733 54.2763 31.9377 54.3286 34.575 54.8686C35.1549 54.9874 35.1603 54.9821 35.1629 54.2903C35.167 53.1322 35.6696 51.3613 36.3741 50.0201C38.029 46.8692 41.3686 44.5279 45.294 43.7666L46.3331 43.5651L45.2398 42.3714C44.0346 41.0555 42.8961 38.9418 42.4557 37.2029C42.3062 36.6122 42.1838 35.4333 42.1838 34.5831C42.1838 29.3749 45.7152 24.8276 50.7795 23.5146C52.0097 23.1957 54.8259 23.1449 56.0189 23.4202C56.7177 23.5814 56.958 23.5355 58.3679 22.9711C59.2316 22.6254 60.5195 22.2428 61.2297 22.1209L62.5211 21.8994L61.5517 20.8826C60.1934 19.4578 59.1905 17.83 58.6228 16.1287C58.1982 14.8563 58.1373 14.3898 58.1386 12.4209C58.1399 10.4529 58.2003 9.9954 58.6171 8.79572C59.4562 6.38034 60.7563 4.51028 62.5638 3.11874C69.1361 -1.94099 78.4598 0.832852 81.2132 8.66696C81.8385 10.4462 81.9749 13.0755 81.5426 15.0195C81.0958 17.0288 80.0438 18.9945 78.5707 20.5727L77.3275 21.9046L78.6202 22.123C83.262 22.9074 87.2609 26.2087 88.6931 30.4389C89.073 31.5609 89.0921 31.9318 89.147 39.2678C89.1956 45.7682 89.1645 46.9799 88.9408 47.2858C88.7046 47.6089 88.4107 47.6554 86.096 47.7362L83.5147 47.8263L83.5683 48.2894C83.6591 49.0726 83.2576 51.1231 82.7796 52.3177C82.5297 52.9423 81.9184 53.9584 81.4212 54.5758C80.924 55.1931 80.5433 55.7166 80.5752 55.739C80.6071 55.7615 81.0726 55.8772 81.6097 55.9962C84.714 56.6843 87.481 59.0802 88.6683 62.1082C89.1266 63.2768 89.1619 64.2846 89.0145 71.9704C88.9689 74.3488 88.9967 76.5804 89.0764 76.9296C89.3561 78.1545 89.7043 78.01 75.5906 82.5247C68.459 84.8059 61.026 87.1917 59.0727 87.8265C53.5742 89.6134 52.2163 89.8132 49.8377 89.1854ZM56.3209 86.072C61.8688 84.3194 86.2204 76.5016 86.2829 76.4531C86.4524 76.3215 85.3464 74.7545 84.595 74.0616C83.2915 72.8595 82.0387 72.375 80.0029 72.2857C78.3322 72.2124 78.0703 72.2623 68.8373 74.4113L59.3825 76.6119L58.6037 77.3252C57.3655 78.4594 56.4042 78.8171 54.6101 78.8113L53.0793 78.8066L45.1553 75.044C40.7971 72.9745 37.0895 71.1604 36.9162 71.0125C36.5271 70.6806 36.5011 69.6639 36.8722 69.2926C37.525 68.6395 37.7069 68.7063 45.9084 72.6068C53.7857 76.3531 53.9566 76.4241 54.9062 76.3453C56.608 76.2041 57.8509 74.8294 57.8514 73.0878C57.8518 72.105 57.5702 71.4639 56.8323 70.7671C56.551 70.5016 53.8492 69.1125 50.8282 67.6804L45.3354 65.0764L44.2599 63.6587C41.8562 60.4901 39.4638 58.8455 35.6735 57.7559C33.395 57.1009 31.4672 56.8754 28.2268 56.8847C24.1606 56.8964 19.0717 57.6382 13.9996 58.9587L12.3788 59.3806L12.3316 66.3513C12.2943 71.865 12.332 73.3231 12.5117 73.3273C12.6367 73.33 14.2787 73.1147 16.1606 72.8482L19.5824 72.3638L32.729 78.6314C48.1978 86.0061 48.2107 86.0121 49.8376 86.5858C51.6274 87.2168 53.0556 87.1035 56.3209 86.072ZM9.76747 66.475V54.7633H6.2557H2.74393V66.475V78.1867H6.2557H9.76747V66.475ZM63.5901 73.0612L64.425 72.8484L64.5151 69.3765C64.5973 66.2061 64.6355 65.8824 64.9547 65.6492C65.437 65.2969 66.0168 65.3298 66.5212 65.7379C66.9335 66.0716 66.948 66.1748 67.0033 69.1697C67.0548 71.9622 67.0893 72.2492 67.3635 72.1715C67.5302 72.1243 69.9883 71.553 72.8258 70.9019C77.1556 69.9085 78.2485 69.7182 79.6242 69.7182H81.2635V67.9164C81.2635 66.3548 81.3116 66.0665 81.6237 65.7542C82.0776 65.3001 82.7207 65.2937 83.2696 65.7379C83.669 66.0611 83.6984 66.2195 83.7545 68.3505C83.7873 69.5982 83.8835 70.6191 83.9682 70.6191C84.0529 70.6191 84.6444 70.9768 85.2827 71.414L86.4431 72.2088L86.5667 68.2158C86.7015 63.8613 86.6275 63.3088 85.6968 61.7198C84.8118 60.2089 82.8166 58.8237 80.8832 58.3777C79.6424 58.0915 68.2317 58.1362 67.1264 58.4316C65.1958 58.9476 63.4922 60.1162 62.5663 61.5598C61.5998 63.0668 61.4535 64.0504 61.4535 69.0435V73.5183L62.1043 73.3962C62.4623 73.3289 63.1309 73.1782 63.5901 73.0612ZM58.9813 66.0695C59.0923 63.0396 59.3676 61.9164 60.3894 60.3233C61.6404 58.3728 64.1917 56.5902 66.5861 55.9938C67.0814 55.8704 67.5158 55.7504 67.5515 55.7269C67.5872 55.7035 67.2512 55.2136 66.8049 54.6382C65.334 52.7419 64.6952 50.9276 64.6952 48.6462V47.356L63.7323 46.93C61.973 46.1516 61.1153 46.0892 52.9893 46.1487L45.3354 46.2047L44.0062 46.6904C41.4708 47.6167 39.5353 49.2824 38.4563 51.4665C37.8832 52.6268 37.8076 52.9424 37.7907 54.2454L37.7716 55.7153L38.8647 56.1852C41.6705 57.3915 44.2058 59.3896 46.0413 61.8412L46.9562 63.0633L50.1979 64.6074C51.9808 65.4566 54.493 66.6354 55.7807 67.2269C57.0683 67.8183 58.2405 68.4182 58.3856 68.5598C58.5306 68.7014 58.7013 68.8173 58.7649 68.8173C58.8285 68.8173 58.9259 67.5808 58.9813 66.0695ZM75.3347 55.4813C79.0348 54.7792 81.6088 51.0934 80.9086 47.4998C80.4625 45.2098 79.0834 43.4195 76.9632 42.3778C76.053 41.9306 75.7599 41.8804 74.0599 41.8804C72.3599 41.8804 72.0668 41.9306 71.1574 42.3776C69.8647 43.013 68.4386 44.4399 67.8035 45.7332C67.3567 46.6431 67.3065 46.9363 67.3065 48.6371C67.3065 50.3658 67.3522 50.6221 67.8359 51.6078C68.7709 53.5132 70.4878 54.9042 72.5291 55.4103C73.6772 55.6949 74.1463 55.7068 75.3347 55.4813ZM27.3201 47.8259C32.1914 46.5313 35.6236 42.1604 37.7632 34.5265C38.0358 33.554 38.2151 32.7145 38.1617 32.6611C38.1083 32.6076 37.4314 32.7701 36.6574 33.0221C35.8835 33.2741 34.0371 33.8156 32.5542 34.2255C28.9228 35.2293 27.1684 35.8541 25.4069 36.771C22.7262 38.1664 20.9731 40.2355 20.3084 42.7888C19.9607 44.1243 19.9248 47.7064 20.2578 47.8334C21.51 48.3108 25.5117 48.3065 27.3201 47.8259ZM86.6662 38.9453C86.6662 32.1259 86.5915 31.4555 85.6288 29.6416C84.8826 28.2356 82.9837 26.4513 81.4211 25.6879C78.9255 24.4686 78.6937 24.4392 70.9373 24.3572C64.1428 24.2854 61.6354 24.4074 60.4221 24.8689L59.9492 25.0488L60.6564 25.6217C62.4888 27.1062 63.6606 28.7931 64.4422 31.0713C65.1188 33.0438 65.1601 35.8133 64.5428 37.8263C64.0103 39.5632 62.9381 41.3783 61.7316 42.5853L60.7772 43.5402L62.2071 43.8476C62.9935 44.0167 64.0034 44.3121 64.4511 44.5042C64.8989 44.6962 65.2876 44.8533 65.3148 44.8533C65.342 44.8533 65.6585 44.3765 66.0181 43.7937C66.8402 42.461 68.5246 40.8888 69.7978 40.2655C72.5605 38.9132 75.818 38.9267 78.4301 40.3012C78.9485 40.574 79.4334 40.8247 79.5076 40.8583C79.5819 40.8919 79.6427 39.6559 79.6427 38.1116C79.6427 35.544 79.6735 35.2729 80.0029 34.9434C80.4347 34.5114 81.0377 34.4809 81.5836 34.8635C81.9775 35.1395 81.9839 35.2101 81.9839 39.2839C81.9839 43.3501 81.992 43.4398 82.4372 44.3188L82.8904 45.2137H84.7783H86.6662V38.9453ZM54.9703 43.4067C57.7414 42.9744 60.3563 41.0191 61.5629 38.477C62.7724 35.9288 62.8028 33.3326 61.6518 30.8718C60.9291 29.3267 60.182 28.4007 58.8907 27.4496C56.1333 25.4187 52.7423 25.1271 49.6335 26.6534C46.5661 28.1594 44.7051 31.1538 44.7051 34.5831C44.7051 38.9844 47.8282 42.6683 52.1789 43.3988C53.446 43.6115 53.6538 43.6121 54.9703 43.4067ZM15.0556 31.6777L15.7515 31.447L15.6357 30.4617C15.3157 27.7374 13.6241 26.0364 10.4255 25.2228C9.03662 24.8695 3.8684 24.2088 3.71264 24.3646C3.57674 24.5006 4.41955 26.2232 5.28214 27.5724C6.60746 29.6455 8.21124 31.0547 10.0068 31.7237C10.7625 32.0053 11.2606 32.0554 12.6489 31.9895C13.5899 31.9449 14.6729 31.8045 15.0556 31.6777ZM72.4514 21.5028C75.6363 20.5669 78.1934 17.9702 79.0068 14.8459C79.1584 14.2633 79.2816 13.1753 79.2804 12.4281C79.2763 9.82164 78.4152 7.74602 76.5679 5.88935C72.8438 2.1466 67.0341 2.11954 63.3278 5.82765C60.4232 8.73374 59.7506 12.9357 61.5803 16.7452C62.1632 17.959 64.2413 20.0712 65.5244 20.7543C66.03 21.0235 66.881 21.3614 67.4154 21.5051C68.7373 21.8608 71.2372 21.8594 72.4514 21.5028Z" fill="white"/>
</svg>
