<svg width="95" height="87" viewBox="0 0 95 87" fill="none" xmlns="http://www.w3.org/2000/svg">
<path d="M64.165 55.5567C62.6772 55.1147 61.0006 54.3115 59.7528 53.4431C58.6887 52.7025 56.8981 51.0717 56.5003 50.4807L56.234 50.0852L55.2119 50.5488C51.6691 52.1558 49.842 52.5842 48.1762 52.1984C47.042 51.9357 45.4047 51.1022 43.1648 49.6473C34.4626 43.9947 27.7142 36.0047 24.071 27.0407C22.9109 24.1861 22.1438 21.3602 21.8203 18.7492C21.5105 16.2484 21.782 12.9611 22.4595 11.01C24.3653 5.52128 28.8698 1.59305 34.4229 0.577054C36.3987 0.215556 39.5068 0.324293 41.5379 0.82598C45.7428 1.86466 49.4192 4.36713 51.8048 7.8146L52.2849 8.50844L52.7913 7.9609C53.6944 6.98435 55.6676 5.41134 56.7892 4.77369C59.0391 3.4947 61.8673 2.63732 64.4419 2.45377C66.2009 2.32837 69.4306 2.71946 70.9698 3.24423C76.8133 5.23656 80.7614 10.1327 81.5657 16.3845C81.6284 16.8718 81.6286 18.035 81.5662 18.9692C81.4653 20.4792 81.4153 20.7111 81.1163 21.0568C80.5227 21.7433 79.6878 21.7659 78.9949 21.1143C78.6978 20.835 78.6797 20.6734 78.7267 18.7156C78.7668 17.0447 78.7158 16.3584 78.4768 15.3509C77.9386 13.0826 77.1998 11.5833 75.7562 9.83C74.2374 7.98531 72.325 6.69719 69.9384 5.91136C68.0669 5.29513 65.1622 5.1159 63.1238 5.49089C61.4832 5.79271 59.2224 6.62269 58.0237 7.36329C56.3072 8.42374 54.6295 10.0396 53.4649 11.754C52.8981 12.5883 52.1028 12.8733 51.342 12.5147C51.2138 12.4543 50.7288 11.7116 50.2641 10.8642C48.4173 7.49659 45.6622 5.17504 42.0302 3.92614C40.8093 3.50632 40.3001 3.41268 38.4947 3.27608C36.6896 3.13946 36.1811 3.15498 34.9669 3.38368C30.1804 4.28514 26.3673 7.74344 25.02 12.4051C23.1376 18.9181 26.9389 29.6652 34.0762 38.0092C37.443 41.9452 41.3485 45.2291 45.9728 48.0123C48.0997 49.2924 48.1241 49.3027 49.2508 49.3862C50.3668 49.469 50.4209 49.4559 52.4538 48.6089C53.5912 48.135 54.5539 47.7031 54.5931 47.6489C54.6324 47.5948 54.4998 47.1178 54.2986 46.5889C54.0973 46.0601 53.8342 45.0666 53.714 44.3813C53.4015 42.6002 53.7241 39.6318 54.4318 37.7768C56.2897 32.9067 60.5274 28.7037 65.8687 26.4337C71.9535 23.8477 78.6937 23.907 85.1659 26.6035C89.6551 28.4738 93.4644 31.6126 94.5972 34.3748C95.1077 35.6196 95.1282 36.1963 94.6839 36.8165C94.3754 37.2472 94.2231 37.3213 91.4639 38.3825C90.1988 38.8691 89.6239 39.1939 88.6685 39.9621C87.1738 41.1639 86.3967 42.0927 84.8755 44.495C82.235 48.6652 79.421 51.7256 76.5257 53.5762C75.0552 54.516 72.4332 55.5759 70.7955 55.8924C69.0922 56.2215 65.8501 56.0574 64.165 55.5567Z" fill="#20EA6D"/>
<path d="M13.8571 85.782C13.3183 85.5311 12.6602 85.0367 12.3945 84.6831C11.6621 83.7085 0.192064 56.0063 0.193359 55.2152C0.196977 53.2045 1.29537 51.8433 3.73373 50.8291C10.9765 47.8166 11.0321 47.8028 12.7309 48.6007C13.9056 49.1524 14.2452 49.5235 15.0063 51.0863L15.6024 52.3101L21.9195 49.2742C25.394 47.6044 28.8828 45.9901 29.6724 45.6868C35.0447 43.6233 39.4653 44.2146 44.891 47.7222C46.1353 48.5266 46.6889 48.7108 52.6411 50.3018C56.1667 51.2442 59.4647 52.2247 59.9702 52.4809C61.1296 53.0684 62.2295 54.0558 62.7022 54.9335C62.9035 55.3073 63.1567 55.6131 63.2649 55.6131C63.3731 55.6131 67.2602 54.4984 71.903 53.1359C84.1606 49.5387 83.0747 49.7878 86.5269 49.7807C89.1894 49.7749 89.6061 49.8198 90.5855 50.2155C91.9927 50.7841 93.4609 52.1118 94.0772 53.3729C95.8029 56.9047 93.8145 62.1722 89.9902 64.1996C88.739 64.8629 60.4921 75.7716 57.7576 76.6476C54.4568 77.7049 51.7121 78.0317 49.5599 77.6235C48.9931 77.516 45.2125 76.4632 41.1587 75.2839C31.8375 72.5722 32.263 72.5984 28.2617 74.4881C26.7234 75.2146 25.464 75.9018 25.4629 76.0152C25.4615 76.1287 25.6763 76.7515 25.9395 77.3993C27.0143 80.0443 26.174 82.0336 23.451 83.2905C20.3005 84.7448 16.3082 86.2418 15.5852 86.24C15.1735 86.2392 14.3958 86.0329 13.8571 85.782ZM19.4626 82.0952C23.0763 80.6033 23.7381 80.1893 23.7381 79.4206C23.7381 78.6546 12.4565 51.7355 11.9355 51.2581C11.6768 51.0212 11.2917 50.8274 11.0796 50.8274C10.4736 50.8274 3.79169 53.6676 3.29096 54.138C2.9633 54.4458 2.8618 54.7157 2.91625 55.1345C3.05305 56.1867 14.1805 82.666 14.6814 83.1311C14.9364 83.368 15.3172 83.5618 15.5276 83.5618C15.7379 83.5618 17.5087 82.9018 19.4626 82.0952ZM54.0149 74.8671C56.2779 74.4291 58.0771 73.7921 69.5854 69.3548C75.5867 67.0408 82.1751 64.5014 84.2262 63.7116C88.8789 61.9202 89.1083 61.8016 90.2227 60.6101C91.9169 58.7989 92.5329 56.2901 91.704 54.5778C90.9303 52.9795 89.4903 52.3296 86.7184 52.3276C84.2536 52.3261 83.3818 52.5328 73.0312 55.5774L64.034 58.2238L63.8815 59.4549C63.4069 63.2879 60.448 65.9985 56.7597 65.9794C55.6648 65.9736 53.8265 65.5463 46.7096 63.6423C41.9191 62.3607 37.8829 61.2178 37.7404 61.1026C37.3026 60.7489 37.1292 60.0537 37.3551 59.5578C37.8364 58.5015 37.8732 58.5066 46.6921 60.8727C57.1195 63.6704 56.6027 63.5629 57.8559 63.1961C59.9386 62.5865 61.1484 60.996 61.1484 58.8674C61.1484 57.422 60.6965 56.3828 59.6798 55.4902C58.79 54.7089 58.6981 54.6781 51.5522 52.7671C45.4856 51.1446 45.1283 51.0237 43.7036 50.1114C40.1164 47.8141 37.9242 47.0941 34.9423 47.2337C33.4642 47.3029 32.6475 47.4554 31.3932 47.8968C29.5752 48.5364 16.6552 54.6645 16.6552 54.8872C16.6552 54.9975 19.8993 62.8707 24.0327 72.7917L24.291 73.4117L26.551 72.3317C29.8878 70.737 30.655 70.5026 32.5438 70.5008C34.0391 70.4993 34.6908 70.6507 40.5839 72.368C51.1602 75.4501 51.0797 75.4352 54.0149 74.8671Z" fill="#20EA6D"/>
<path d="M64.165 55.5567C62.6772 55.1147 61.0006 54.3115 59.7528 53.4431C58.6887 52.7025 56.8981 51.0717 56.5003 50.4807L56.234 50.0852L55.2119 50.5488C51.6691 52.1558 49.842 52.5842 48.1762 52.1984C47.042 51.9357 45.4047 51.1022 43.1648 49.6473C34.4626 43.9947 27.7142 36.0047 24.071 27.0407C22.9109 24.1861 22.1438 21.3602 21.8203 18.7492C21.5105 16.2484 21.782 12.9611 22.4595 11.01C24.3653 5.52128 28.8698 1.59305 34.4229 0.577054C36.3987 0.215556 39.5068 0.324293 41.5379 0.82598C45.7428 1.86466 49.4192 4.36713 51.8048 7.8146L52.2849 8.50844L52.7913 7.9609C53.6944 6.98435 55.6676 5.41134 56.7892 4.77369C59.0391 3.4947 61.8673 2.63732 64.4419 2.45377C66.2009 2.32837 69.4306 2.71946 70.9698 3.24423C76.8133 5.23656 80.7614 10.1327 81.5657 16.3845C81.6284 16.8718 81.6286 18.035 81.5662 18.9692C81.4653 20.4792 81.4153 20.7111 81.1163 21.0568C80.5227 21.7433 79.6878 21.7659 78.9949 21.1143C78.6978 20.835 78.6797 20.6734 78.7267 18.7156C78.7668 17.0447 78.7158 16.3584 78.4768 15.3509C77.9386 13.0826 77.1998 11.5833 75.7562 9.83C74.2374 7.98531 72.325 6.69719 69.9384 5.91136C68.0669 5.29513 65.1622 5.1159 63.1238 5.49089C61.4832 5.79271 59.2224 6.62269 58.0237 7.36329C56.3072 8.42374 54.6295 10.0396 53.4649 11.754C52.8981 12.5883 52.1028 12.8733 51.342 12.5147C51.2138 12.4543 50.7288 11.7116 50.2641 10.8642C48.4173 7.49659 45.6622 5.17504 42.0302 3.92614C40.8093 3.50632 40.3001 3.41268 38.4947 3.27608C36.6896 3.13946 36.1811 3.15498 34.9669 3.38368C30.1804 4.28514 26.3673 7.74344 25.02 12.4051C23.1376 18.9181 26.9389 29.6652 34.0762 38.0092C37.443 41.9452 41.3485 45.2291 45.9728 48.0123C48.0997 49.2924 48.1241 49.3027 49.2508 49.3862C50.3668 49.469 50.4209 49.4559 52.4538 48.6089C53.5912 48.135 54.5539 47.7031 54.5931 47.6489C54.6324 47.5948 54.4998 47.1178 54.2986 46.5889C54.0973 46.0601 53.8342 45.0666 53.714 44.3813C53.4015 42.6002 53.7241 39.6318 54.4318 37.7768C56.2897 32.9067 60.5274 28.7037 65.8687 26.4337C71.9535 23.8477 78.6937 23.907 85.1659 26.6035C89.6551 28.4738 93.4644 31.6126 94.5972 34.3748C95.1077 35.6196 95.1282 36.1963 94.6839 36.8165C94.3754 37.2472 94.2231 37.3213 91.4639 38.3825C90.1988 38.8691 89.6239 39.1939 88.6685 39.9621C87.1738 41.1639 86.3967 42.0927 84.8755 44.495C82.235 48.6652 79.421 51.7256 76.5257 53.5762C75.0552 54.516 72.4332 55.5759 70.7955 55.8924C69.0922 56.2215 65.8501 56.0574 64.165 55.5567ZM69.2325 53.2055C71.9271 52.9389 74.5105 51.7637 76.9013 49.717C78.976 47.941 80.36 46.2463 82.5218 42.8346C85.0189 38.8938 87.1419 36.9705 90.4186 35.6803L91.9113 35.0926L91.0513 34.0522C89.0811 31.6688 85.3662 29.452 81.3906 28.2874C79.2762 27.668 75.3582 27.2725 73.2432 27.465C65.6981 28.1517 58.971 33.0971 56.9239 39.462C56.4562 40.9162 56.3288 43.084 56.6323 44.4216C56.7682 45.0203 56.9328 45.4933 56.9981 45.4726C57.0634 45.452 57.8606 44.6345 58.7695 43.6561C61.7424 40.4559 65.2193 37.6917 68.55 35.8807C71.4182 34.3212 71.9748 34.1877 72.6916 34.8878C73.1993 35.3835 73.2924 35.8891 72.9868 36.491C72.7983 36.8623 72.4214 37.12 71.1737 37.7309C67.0198 39.7647 62.7552 43.2389 59.1334 47.5399C58.3951 48.4166 58.3919 48.4045 59.7123 49.7004C60.8995 50.8656 62.285 51.7842 63.7429 52.3728C65.7488 53.1826 67.2157 53.4051 69.2325 53.2055Z" fill="white"/>
<path d="M13.8571 85.782C13.3183 85.5311 12.6602 85.0367 12.3945 84.6831C11.6621 83.7085 0.192064 56.0063 0.193359 55.2152C0.196977 53.2045 1.29537 51.8433 3.73373 50.8291C10.9765 47.8166 11.0321 47.8028 12.7309 48.6007C13.9056 49.1524 14.2452 49.5235 15.0063 51.0863L15.6024 52.3101L21.9195 49.2742C25.394 47.6044 28.8828 45.9901 29.6724 45.6868C35.0447 43.6233 39.4653 44.2146 44.891 47.7222C46.1353 48.5266 46.6889 48.7108 52.6411 50.3018C56.1667 51.2442 59.4647 52.2247 59.9702 52.4809C61.1296 53.0684 62.2295 54.0558 62.7022 54.9335C62.9035 55.3073 63.1567 55.6131 63.2649 55.6131C63.3731 55.6131 67.2602 54.4984 71.903 53.1359C84.1606 49.5387 83.0747 49.7878 86.5269 49.7807C89.1894 49.7749 89.6061 49.8198 90.5855 50.2155C91.9927 50.7841 93.4609 52.1118 94.0772 53.3729C95.8029 56.9047 93.8145 62.1722 89.9902 64.1996C88.739 64.8629 60.4921 75.7716 57.7576 76.6476C54.4568 77.7049 51.7121 78.0317 49.5599 77.6235C48.9931 77.516 45.2125 76.4632 41.1587 75.2839C31.8375 72.5722 32.263 72.5984 28.2617 74.4881C26.7234 75.2146 25.464 75.9018 25.4629 76.0152C25.4615 76.1287 25.6763 76.7515 25.9395 77.3993C27.0143 80.0443 26.174 82.0336 23.451 83.2905C20.3005 84.7448 16.3082 86.2418 15.5852 86.24C15.1735 86.2392 14.3958 86.0329 13.8571 85.782ZM19.4626 82.0952C23.0763 80.6033 23.7381 80.1893 23.7381 79.4206C23.7381 78.6546 12.4565 51.7355 11.9355 51.2581C11.6768 51.0212 11.2917 50.8274 11.0796 50.8274C10.4736 50.8274 3.79169 53.6676 3.29096 54.138C2.9633 54.4458 2.8618 54.7157 2.91625 55.1345C3.05305 56.1867 14.1805 82.666 14.6814 83.1311C14.9364 83.368 15.3172 83.5618 15.5276 83.5618C15.7379 83.5618 17.5087 82.9018 19.4626 82.0952ZM54.0149 74.8671C56.2779 74.4291 58.0771 73.7921 69.5854 69.3548C75.5867 67.0408 82.1751 64.5014 84.2262 63.7116C88.8789 61.9202 89.1083 61.8016 90.2227 60.6101C91.9169 58.7989 92.5329 56.2901 91.704 54.5778C90.9303 52.9795 89.4903 52.3296 86.7184 52.3276C84.2536 52.3261 83.3818 52.5328 73.0312 55.5774L64.034 58.2238L63.8815 59.4549C63.4069 63.2879 60.448 65.9985 56.7597 65.9794C55.6648 65.9736 53.8265 65.5463 46.7096 63.6423C41.9191 62.3607 37.8829 61.2178 37.7404 61.1026C37.3026 60.7489 37.1292 60.0537 37.3551 59.5578C37.8364 58.5015 37.8732 58.5066 46.6921 60.8727C57.1195 63.6704 56.6027 63.5629 57.8559 63.1961C59.9386 62.5865 61.1484 60.996 61.1484 58.8674C61.1484 57.422 60.6965 56.3828 59.6798 55.4902C58.79 54.7089 58.6981 54.6781 51.5522 52.7671C45.4856 51.1446 45.1283 51.0237 43.7036 50.1114C40.1164 47.8141 37.9242 47.0941 34.9423 47.2337C33.4642 47.3029 32.6475 47.4554 31.3932 47.8968C29.5752 48.5364 16.6552 54.6645 16.6552 54.8872C16.6552 54.9975 19.8993 62.8707 24.0327 72.7917L24.291 73.4117L26.551 72.3317C29.8878 70.737 30.655 70.5026 32.5438 70.5008C34.0391 70.4993 34.6908 70.6507 40.5839 72.368C51.1602 75.4501 51.0797 75.4352 54.0149 74.8671Z" fill="white"/>
</svg>
