<svg width="53" height="53" viewBox="0 0 53 53" fill="none" xmlns="http://www.w3.org/2000/svg">
<circle cx="26.2124" cy="26.1765" r="26.1177" fill="#20EA6D"/>
<path d="M37.9185 15.4303C35.749 14.4458 33.4001 13.7312 30.9534 13.3183C30.9104 13.3189 30.8693 13.3361 30.8392 13.366C30.5456 13.89 30.203 14.5728 29.9747 15.0969C27.3795 14.716 24.7403 14.716 22.1451 15.0969C21.9167 14.557 21.5741 13.89 21.2642 13.366C21.2479 13.3342 21.199 13.3183 21.15 13.3183C18.7033 13.7312 16.3707 14.4458 14.1849 15.4303C14.1686 15.4303 14.1523 15.4462 14.136 15.4621C9.6992 21.9251 8.47582 28.2135 9.07936 34.4383C9.07936 34.47 9.09567 34.5018 9.12829 34.5177C12.0644 36.6138 14.8863 37.8842 17.6756 38.7258C17.7246 38.7417 17.7735 38.7258 17.7898 38.694C18.4423 37.8207 19.0295 36.8996 19.5352 35.931C19.5678 35.8675 19.5352 35.8039 19.4699 35.7881C18.5402 35.4387 17.6593 35.0258 16.7948 34.5494C16.7296 34.5177 16.7296 34.4224 16.7785 34.3748C16.9579 34.2477 17.1374 34.1048 17.3168 33.9778C17.3494 33.946 17.3983 33.946 17.431 33.9619C23.0422 36.455 29.0939 36.455 34.6398 33.9619C34.6725 33.946 34.7214 33.946 34.754 33.9778C34.9335 34.1207 35.1129 34.2477 35.2923 34.3907C35.3576 34.4383 35.3576 34.5336 35.276 34.5653C34.4278 35.0576 33.5306 35.4546 32.6009 35.8039C32.5356 35.8198 32.5193 35.8992 32.5356 35.9469C33.0576 36.9155 33.6448 37.8365 34.281 38.7099C34.3299 38.7258 34.3789 38.7417 34.4278 38.7258C37.2334 37.8842 40.0553 36.6138 42.9914 34.5177C43.0241 34.5018 43.0404 34.47 43.0404 34.4383C43.7581 27.2448 41.8496 21.0041 37.9837 15.4621C37.9674 15.4462 37.9511 15.4303 37.9185 15.4303ZM20.3834 30.6431C18.7033 30.6431 17.3005 29.1345 17.3005 27.2766C17.3005 25.4186 18.6707 23.9101 20.3834 23.9101C22.1124 23.9101 23.4826 25.4345 23.4663 27.2766C23.4663 29.1345 22.0961 30.6431 20.3834 30.6431ZM31.7527 30.6431C30.0726 30.6431 28.6697 29.1345 28.6697 27.2766C28.6697 25.4186 30.0399 23.9101 31.7527 23.9101C33.4817 23.9101 34.8519 25.4345 34.8356 27.2766C34.8356 29.1345 33.4817 30.6431 31.7527 30.6431Z" fill="#161616"/>
</svg>
