<svg width="22" height="22" viewBox="0 0 22 22" fill="none" xmlns="http://www.w3.org/2000/svg">
<path d="M1.28967 10.2466C1.28967 6.29179 1.28967 4.31388 2.51879 3.08582C3.7479 1.85775 5.72476 1.8567 9.67953 1.8567H11.777C15.7318 1.8567 17.7097 1.8567 18.9377 3.08582C20.1658 4.31493 20.1669 6.29179 20.1669 10.2466V12.344C20.1669 16.2988 20.1669 18.2767 18.9377 19.5048C17.7086 20.7328 15.7318 20.7339 11.777 20.7339H9.67953C5.72476 20.7339 3.74685 20.7339 2.51879 19.5048C1.29072 18.2757 1.28967 16.2988 1.28967 12.344V10.2466Z" stroke="white" stroke-width="2.09746"/>
<path d="M15.4475 8.1491C16.3163 8.1491 17.0206 7.4448 17.0206 6.576C17.0206 5.7072 16.3163 5.0029 15.4475 5.0029C14.5787 5.0029 13.8744 5.7072 13.8744 6.576C13.8744 7.4448 14.5787 8.1491 15.4475 8.1491Z" fill="white"/>
<path d="M10.7282 14.4415C12.4658 14.4415 13.8744 13.0329 13.8744 11.2953C13.8744 9.5577 12.4658 8.1491 10.7282 8.1491C8.99063 8.1491 7.58203 9.5577 7.58203 11.2953C7.58203 13.0329 8.99063 14.4415 10.7282 14.4415Z" stroke="white" stroke-width="2.09746"/>
</svg>
