<svg width="19" height="24" viewBox="0 0 19 24" fill="none" xmlns="http://www.w3.org/2000/svg">
<g clip-path="url(#clip0_54_4031)">
<path d="M14.4808 6.6553C13.3597 6.6553 12.3009 7.1892 11.5457 8.11401L9.34247 10.5071L8.15909 11.7846H8.16687L6.0726 14.0633C5.57434 14.6735 4.91258 15.0072 4.20411 15.0072C2.74824 15.0072 1.56486 13.5675 1.56486 11.7846C1.56486 10.0018 2.74824 8.56211 4.20411 8.56211C4.91258 8.56211 5.57434 8.8958 6.10374 9.54412L6.98349 10.4975L8.15909 9.21996L7.17813 8.16168C6.78826 7.68243 6.32469 7.30255 5.81423 7.04399C5.30376 6.78543 4.75651 6.65332 4.20411 6.6553C1.88406 6.6553 0 8.96254 0 11.7846C0 14.6067 1.88406 16.914 4.20411 16.914C5.32521 16.914 6.38402 16.3801 7.1392 15.4553L9.34247 13.0717L9.35025 13.0813L10.5258 11.7846H10.5181L12.6123 9.50599C13.1106 8.8958 13.7724 8.56211 14.4808 8.56211C15.9367 8.56211 17.1201 10.0018 17.1201 11.7846C17.1201 13.5675 15.9367 15.0072 14.4808 15.0072C13.7801 15.0072 13.1106 14.6735 12.5812 14.0251L11.6937 13.0622L10.5181 14.3398L11.5068 15.4076C11.8977 15.8844 12.3617 16.2621 12.872 16.519C13.3823 16.7758 13.9291 16.9068 14.4808 16.9044C16.8009 16.9044 18.6849 14.6067 18.6849 11.7751C18.6849 8.94348 16.8009 6.6553 14.4808 6.6553Z" fill="#161616"/>
</g>
<defs>
<clipPath id="clip0_54_4031">
<rect width="18.6849" height="22.8818" fill="white" transform="translate(0 0.34375)"/>
</clipPath>
</defs>
</svg>
