<svg width="19" height="24" viewBox="0 0 19 24" fill="none" xmlns="http://www.w3.org/2000/svg">
<path d="M16.3485 3.53174H2.33485C1.47067 3.53174 0.777771 4.38027 0.777771 5.43856V16.8795C0.777771 17.3852 0.94182 17.8702 1.23383 18.2278C1.52584 18.5854 1.92189 18.7863 2.33485 18.7863H6.22754V20.6931H12.4559V18.7863H16.3485C17.2049 18.7863 17.8978 17.9282 17.8978 16.8795L17.9056 5.43856C17.9056 4.93284 17.7416 4.44783 17.4496 4.09023C17.1576 3.73263 16.7615 3.53174 16.3485 3.53174ZM16.3485 16.8795H2.33485V5.43856H16.3485V16.8795ZM12.4559 11.159L7.00608 14.9726V7.34537L12.4559 11.159Z" fill="#161616"/>
</svg>
