<svg width="37" height="36" viewBox="0 0 37 36" fill="none" xmlns="http://www.w3.org/2000/svg">
<circle cx="18.6494" cy="18.2165" r="17.7835" fill="#161616"/>
<path d="M9.28967 17.2466C9.28967 13.2918 9.28967 11.3139 10.5188 10.0858C11.7479 8.85775 13.7248 8.8567 17.6795 8.8567H19.777C23.7318 8.8567 25.7097 8.8567 26.9377 10.0858C28.1658 11.3149 28.1669 13.2918 28.1669 17.2466V19.344C28.1669 23.2988 28.1669 25.2767 26.9377 26.5048C25.7086 27.7328 23.7318 27.7339 19.777 27.7339H17.6795C13.7248 27.7339 11.7469 27.7339 10.5188 26.5048C9.29072 25.2757 9.28967 23.2988 9.28967 19.344V17.2466Z" stroke="white" stroke-width="2.09746"/>
<path d="M23.4475 15.1491C24.3163 15.1491 25.0206 14.4448 25.0206 13.576C25.0206 12.7072 24.3163 12.0029 23.4475 12.0029C22.5787 12.0029 21.8744 12.7072 21.8744 13.576C21.8744 14.4448 22.5787 15.1491 23.4475 15.1491Z" fill="white"/>
<path d="M18.7282 21.4415C20.4658 21.4415 21.8744 20.0329 21.8744 18.2953C21.8744 16.5577 20.4658 15.1491 18.7282 15.1491C16.9906 15.1491 15.582 16.5577 15.582 18.2953C15.582 20.0329 16.9906 21.4415 18.7282 21.4415Z" stroke="white" stroke-width="2.09746"/>
</svg>
