<svg width="28" height="28" viewBox="0 0 28 28" fill="none" xmlns="http://www.w3.org/2000/svg">
<path d="M24.592 8.74925C24.6092 8.99029 24.6092 9.23139 24.6092 9.47243C24.6092 16.8245 19.0134 25.2958 8.78583 25.2958C5.63491 25.2958 2.70786 24.3832 0.245667 22.7992C0.693352 22.8508 1.12376 22.8681 1.58867 22.8681C4.18855 22.8681 6.5819 21.99 8.49311 20.492C6.04814 20.4403 3.99919 18.8391 3.29324 16.6351C3.63763 16.6868 3.98196 16.7212 4.34358 16.7212C4.84289 16.7212 5.34224 16.6523 5.8071 16.5318C3.25884 16.0153 1.34758 13.7769 1.34758 11.0737V11.0049C2.08792 11.4181 2.9489 11.6764 3.86139 11.7107C2.36342 10.7121 1.38203 9.00752 1.38203 7.07908C1.38203 6.04602 1.65746 5.09903 2.1396 4.27255C4.87728 7.64729 8.99242 9.85116 13.6068 10.0923C13.5207 9.67902 13.4691 9.24861 13.4691 8.81815C13.4691 5.7533 15.9485 3.25671 19.0305 3.25671C20.6318 3.25671 22.0781 3.92822 23.094 5.01295C24.3508 4.77191 25.5561 4.307 26.6237 3.66995C26.2104 4.96133 25.3323 6.04607 24.1787 6.73474C25.2979 6.61428 26.3826 6.30428 27.3812 5.87388C26.6238 6.97579 25.6767 7.95718 24.592 8.74925Z" fill="white"/>
</svg>
