<svg width="28" height="28" viewBox="0 0 28 28" fill="none" xmlns="http://www.w3.org/2000/svg">
<path d="M14.3515 8.18123C10.9807 8.18123 8.26184 10.9001 8.26184 14.2709C8.26184 17.6416 10.9807 20.3605 14.3515 20.3605C17.7222 20.3605 20.4411 17.6416 20.4411 14.2709C20.4411 10.9001 17.7222 8.18123 14.3515 8.18123ZM14.3515 18.2299C12.1732 18.2299 10.3924 16.4544 10.3924 14.2709C10.3924 12.0873 12.1679 10.3118 14.3515 10.3118C16.535 10.3118 18.3105 12.0873 18.3105 14.2709C18.3105 16.4544 16.5297 18.2299 14.3515 18.2299ZM22.1106 7.93213C22.1106 8.72182 21.4746 9.35251 20.6902 9.35251C19.9005 9.35251 19.2698 8.71652 19.2698 7.93213C19.2698 7.14774 19.9058 6.51175 20.6902 6.51175C21.4746 6.51175 22.1106 7.14774 22.1106 7.93213ZM26.1438 9.37371C26.0537 7.47103 25.6191 5.78565 24.2253 4.39707C22.8367 3.00849 21.1513 2.57389 19.2486 2.47849C17.2876 2.36719 11.41 2.36719 9.44903 2.47849C7.55165 2.56859 5.86627 3.00319 4.47239 4.39177C3.0785 5.78035 2.64921 7.46573 2.55381 9.36841C2.44251 11.3294 2.44251 17.207 2.55381 19.168C2.64391 21.0707 3.0785 22.7561 4.47239 24.1446C5.86627 25.5332 7.54635 25.9678 9.44903 26.0632C11.41 26.1745 17.2876 26.1745 19.2486 26.0632C21.1513 25.9731 22.8367 25.5385 24.2253 24.1446C25.6138 22.7561 26.0484 21.0707 26.1438 19.168C26.2551 17.207 26.2551 11.3347 26.1438 9.37371ZM23.6105 21.2721C23.1971 22.3109 22.3968 23.1111 21.3527 23.5298C19.7892 24.1499 16.0793 24.0068 14.3515 24.0068C12.6237 24.0068 8.90844 24.1446 7.35025 23.5298C6.31147 23.1164 5.51118 22.3162 5.09248 21.2721C4.47239 19.7086 4.61549 15.9986 4.61549 14.2709C4.61549 12.5431 4.47769 8.82782 5.09248 7.26964C5.50588 6.23085 6.30617 5.43056 7.35025 5.01186C8.91373 4.39177 12.6237 4.53487 14.3515 4.53487C16.0793 4.53487 19.7945 4.39707 21.3527 5.01186C22.3915 5.42526 23.1918 6.22555 23.6105 7.26964C24.2306 8.83312 24.0875 12.5431 24.0875 14.2709C24.0875 15.9986 24.2306 19.7139 23.6105 21.2721Z" fill="white"/>
</svg>
