<svg width="369" height="137" viewBox="0 0 369 137" fill="none" xmlns="http://www.w3.org/2000/svg">
<g opacity="0.7">
<mask id="path-1-inside-1_54_5107" fill="white">
<path d="M15.182 108.313C10.9001 106.356 4.9932 100.333 2.33129 95.2088C0.413324 91.5169 -0.876347 76.7102 0.720067 76.7102C1.25946 76.7102 1.98214 78.4758 2.32602 80.6338C4.83243 96.3625 15.5537 107.747 26.0068 105.779C37.5768 103.601 52.2109 75.2506 68.6768 23.1158C70.3844 17.7092 71.9643 12.8074 72.1878 12.2229C72.4493 11.5388 66.732 10.3564 56.1388 8.90391C42.5441 7.03982 38.9611 6.84523 35.5281 7.7846C30.6514 9.11901 29.3857 11.9504 31.6777 16.398C33.4222 19.7832 41.0918 27.1499 46.8595 30.98C49.1334 32.49 50.8499 33.8701 50.6739 34.0467C49.9054 34.8179 43.1563 32.2372 38.9632 29.5688C32.5618 25.495 28.9028 19.6542 28.9028 13.5093C28.9028 9.4608 29.3384 8.30483 31.5996 6.35313C37.602 1.17216 44.3783 0.868093 63.7796 4.90928C78.5636 7.98876 87.0554 8.61909 88.8945 6.77355C89.4942 6.1718 90.5726 5.8761 91.2909 6.11637C92.1847 6.41522 91.5787 7.5752 89.3716 9.78992C86.4239 12.7479 85.7394 12.9873 81.4226 12.5711L76.6991 12.1157L73.0109 24.4977C65.2508 50.5502 54.0814 77.6753 45.7 90.8231C40.348 99.2186 34.3852 105.255 28.9028 107.829C23.024 110.588 20.3651 110.682 15.182 108.313ZM119.596 79.4147C119.633 74.5576 123.051 63.8973 130.163 46.4686C131.322 43.6289 131.913 41.3054 131.475 41.3054C129.129 41.3054 116.357 59.5963 110.386 71.5086C106.929 78.4043 103.683 81.7318 102.417 79.6762C102.087 79.1411 103.556 73.9398 105.68 68.1179C110.997 53.5492 120.531 22.4687 120.57 19.5811C120.626 15.331 125.664 6.48329 128.604 5.47178C130.076 4.9654 131.575 4.84647 131.935 5.2075C132.294 5.56842 129.905 12.1787 126.624 19.8967C121.22 32.611 112.698 56.705 112.698 59.2684C112.698 59.8357 114.988 57.0218 117.788 53.0154C126.963 39.8881 136.389 32.0954 140.22 34.4712C141.313 35.1495 141.152 35.9961 139.348 39.0421C131.6 52.1224 124.426 68.9981 123.021 77.4478C122.281 81.9003 122.947 82.5086 126.483 80.6094C127.525 80.0495 128.379 79.9809 128.379 80.457C128.379 82.1637 124.745 84.5779 122.176 84.5779C119.666 84.5779 119.56 84.3641 119.596 79.4147ZM159.414 82.9387C158.222 81.7428 158.737 73.2126 160.328 67.7916C161.191 64.8537 163.861 57.6529 166.261 51.7899C168.662 45.9268 170.471 40.6624 170.281 40.0912C169.495 37.7251 147.826 67.2135 144.525 75.1413C143.158 78.4244 138.701 82.4793 137.635 81.4096C137.37 81.1431 139.599 73.9211 142.588 65.3604C145.577 56.7997 147.855 49.3235 147.649 48.7467C147.152 47.3534 150.688 38.2941 152.531 36.2403C154.259 34.3143 157.14 33.4164 158.629 34.34C159.338 34.7793 158.681 37.1309 156.671 41.3495C153.13 48.7845 148.739 60.0975 149.211 60.571C149.391 60.7521 152.254 57.0447 155.573 52.3323C162.747 42.1445 169.704 35.057 174.493 33.0592C181.021 30.3357 181.135 32.1683 175.168 43.9068C166.096 61.7546 160.503 80.8159 164.641 79.7865C170.097 78.429 170.118 78.4393 167.281 81.0572C164.678 83.459 160.846 84.3756 159.414 82.9387ZM226.057 82.9387C224.939 81.8161 225.35 69.762 226.841 59.9912C228.812 47.0755 231.629 36.8092 236.733 23.947C239.127 17.9158 241.085 12.7638 241.085 12.4981C241.085 11.4957 224.211 15.8405 217.108 18.6721C199.307 25.7678 195.077 31.8413 202.572 39.5429C205.743 42.8021 205.944 43.2723 204.168 43.2723C201.157 43.2723 194.119 36.4459 193.452 32.8791C192.783 29.2986 196.014 24.8619 202.097 21.0088C207.143 17.8125 223.692 12.3199 234.894 10.1238C243.412 8.45376 243.975 8.18731 245.424 5.14083C246.928 1.97831 250.174 0 253.86 0C255.584 0 255.537 0.280989 253.234 3.68527L250.742 7.37056L260.761 8.55138C283.131 11.1881 297.229 19.11 303.084 32.3331C305.479 37.7424 305.132 48.7562 302.388 54.4265C295.317 69.0378 272.906 82.2224 253.241 83.34C243.181 83.9117 238.187 82.7496 235.394 79.187L233.593 76.8889L230.927 80.2416C228.249 83.6094 227.267 84.153 226.057 82.9387ZM261.318 78.5789C282.788 71.9795 298.799 57.2195 300.546 42.4142C301.443 34.8158 300.307 31.1677 295.307 25.5874C288.29 17.7548 278.495 13.5667 263.136 11.831C248.018 10.1225 249.393 9.52411 244.562 19.9151C237.856 34.3394 232.651 53.311 230.943 69.5578C230.419 74.5389 230.465 74.6612 232.417 73.4916C234.129 72.466 234.6 72.5715 235.553 74.1937C238.732 79.6042 240.706 80.644 247.798 80.644C251.921 80.644 257.245 79.8307 261.318 78.5789ZM75.074 80.1206C70.5971 75.6282 72.6925 61.6926 80.1423 46.4153C82.5951 41.3851 89.0312 34.4212 91.2271 34.4212C91.813 34.4212 93.1345 33.4254 94.1638 32.2084C95.9604 30.0842 96.0911 30.0677 97.4275 31.7968C98.1932 32.7874 99.348 35.8079 99.9937 38.509C100.844 42.0661 101.809 43.7134 103.495 44.484C105.297 45.308 105.575 45.846 104.73 46.8688C104.129 47.5953 103.094 48.1897 102.431 48.1897C101.697 48.1897 100.775 50.9198 100.077 55.1589C98.3525 65.6394 93.8388 73.7499 86.9403 78.7645C82.55 81.9559 77.4803 82.5353 75.074 80.1206ZM84.1441 77.2703C89.3906 74.5478 95.6949 62.7856 96.9729 53.3349C97.6115 48.6129 97.3989 47.3639 95.3218 43.6348C93.2842 39.9763 92.6691 39.4989 91.0878 40.3481C84.2118 44.0408 74.6078 74.6794 79.3757 77.7119C81.2384 78.8967 80.9604 78.9224 84.1441 77.2703ZM313.021 80.8748C308.675 77.9632 308.678 69.3783 313.028 56.7173C316.915 45.4026 321.514 38.1325 326.335 35.6814C328.23 34.7179 330.357 33.155 331.062 32.2084C333.557 28.8544 334.962 30.4534 337.147 39.1364C337.882 42.0569 338.949 43.6973 340.603 44.4539C342.459 45.3022 342.751 45.8448 341.904 46.8688C341.303 47.5953 340.255 48.1897 339.575 48.1897C338.286 48.1897 337.167 51.163 337.144 54.6496C337.096 62.0497 330.599 74.051 324.074 78.7942C320.296 81.54 315.391 82.4633 313.021 80.8748ZM321.365 77.0953C327.15 73.6663 334.091 59.8868 334.158 51.6965C334.177 49.5684 333.271 45.9217 332.147 43.5927C330.356 39.8785 329.868 39.4855 328.175 40.3946C322.063 43.6771 312.616 70.1074 315.38 76.1939C316.697 79.0941 317.731 79.2498 321.365 77.0953ZM342.202 78.3678C339.568 75.555 339.518 72.2702 341.972 63.4121C343.161 59.1218 343.528 56.1989 342.952 55.6148C341.591 54.2345 341.832 53.107 343.489 53.107C344.31 53.107 346.448 50.1154 348.388 46.2483C350.634 41.7736 352.767 38.9158 354.526 38.0268C362.788 33.8504 366.771 35.4439 368.458 43.6005C370.382 52.8988 367.436 55.8999 355.495 56.8046L348.869 57.3067L347.361 62.5124C345.317 69.566 345.15 75.6 346.966 76.7523C349.702 78.4891 351.287 77.6623 357.53 71.2426C360.979 67.6945 364.028 65.0183 364.304 65.2955C365.378 66.3726 360.82 72.429 355.921 76.437C349.846 81.4064 345.605 82.0032 342.202 78.3678ZM362.726 52.0094C364.386 50.3435 364.694 49.1391 364.271 45.9733C363.98 43.798 363.056 41.3296 362.217 40.4879C360.837 39.1031 360.456 39.1804 358.206 41.301C355.543 43.812 350.851 51.2975 350.851 53.0363C350.851 53.6457 352.919 54.0905 355.751 54.0905C359.435 54.0905 361.167 53.5736 362.726 52.0094Z"/>
</mask>
<path d="M15.182 108.313C10.9001 106.356 4.9932 100.333 2.33129 95.2088C0.413324 91.5169 -0.876347 76.7102 0.720067 76.7102C1.25946 76.7102 1.98214 78.4758 2.32602 80.6338C4.83243 96.3625 15.5537 107.747 26.0068 105.779C37.5768 103.601 52.2109 75.2506 68.6768 23.1158C70.3844 17.7092 71.9643 12.8074 72.1878 12.2229C72.4493 11.5388 66.732 10.3564 56.1388 8.90391C42.5441 7.03982 38.9611 6.84523 35.5281 7.7846C30.6514 9.11901 29.3857 11.9504 31.6777 16.398C33.4222 19.7832 41.0918 27.1499 46.8595 30.98C49.1334 32.49 50.8499 33.8701 50.6739 34.0467C49.9054 34.8179 43.1563 32.2372 38.9632 29.5688C32.5618 25.495 28.9028 19.6542 28.9028 13.5093C28.9028 9.4608 29.3384 8.30483 31.5996 6.35313C37.602 1.17216 44.3783 0.868093 63.7796 4.90928C78.5636 7.98876 87.0554 8.61909 88.8945 6.77355C89.4942 6.1718 90.5726 5.8761 91.2909 6.11637C92.1847 6.41522 91.5787 7.5752 89.3716 9.78992C86.4239 12.7479 85.7394 12.9873 81.4226 12.5711L76.6991 12.1157L73.0109 24.4977C65.2508 50.5502 54.0814 77.6753 45.7 90.8231C40.348 99.2186 34.3852 105.255 28.9028 107.829C23.024 110.588 20.3651 110.682 15.182 108.313ZM119.596 79.4147C119.633 74.5576 123.051 63.8973 130.163 46.4686C131.322 43.6289 131.913 41.3054 131.475 41.3054C129.129 41.3054 116.357 59.5963 110.386 71.5086C106.929 78.4043 103.683 81.7318 102.417 79.6762C102.087 79.1411 103.556 73.9398 105.68 68.1179C110.997 53.5492 120.531 22.4687 120.57 19.5811C120.626 15.331 125.664 6.48329 128.604 5.47178C130.076 4.9654 131.575 4.84647 131.935 5.2075C132.294 5.56842 129.905 12.1787 126.624 19.8967C121.22 32.611 112.698 56.705 112.698 59.2684C112.698 59.8357 114.988 57.0218 117.788 53.0154C126.963 39.8881 136.389 32.0954 140.22 34.4712C141.313 35.1495 141.152 35.9961 139.348 39.0421C131.6 52.1224 124.426 68.9981 123.021 77.4478C122.281 81.9003 122.947 82.5086 126.483 80.6094C127.525 80.0495 128.379 79.9809 128.379 80.457C128.379 82.1637 124.745 84.5779 122.176 84.5779C119.666 84.5779 119.56 84.3641 119.596 79.4147ZM159.414 82.9387C158.222 81.7428 158.737 73.2126 160.328 67.7916C161.191 64.8537 163.861 57.6529 166.261 51.7899C168.662 45.9268 170.471 40.6624 170.281 40.0912C169.495 37.7251 147.826 67.2135 144.525 75.1413C143.158 78.4244 138.701 82.4793 137.635 81.4096C137.37 81.1431 139.599 73.9211 142.588 65.3604C145.577 56.7997 147.855 49.3235 147.649 48.7467C147.152 47.3534 150.688 38.2941 152.531 36.2403C154.259 34.3143 157.14 33.4164 158.629 34.34C159.338 34.7793 158.681 37.1309 156.671 41.3495C153.13 48.7845 148.739 60.0975 149.211 60.571C149.391 60.7521 152.254 57.0447 155.573 52.3323C162.747 42.1445 169.704 35.057 174.493 33.0592C181.021 30.3357 181.135 32.1683 175.168 43.9068C166.096 61.7546 160.503 80.8159 164.641 79.7865C170.097 78.429 170.118 78.4393 167.281 81.0572C164.678 83.459 160.846 84.3756 159.414 82.9387ZM226.057 82.9387C224.939 81.8161 225.35 69.762 226.841 59.9912C228.812 47.0755 231.629 36.8092 236.733 23.947C239.127 17.9158 241.085 12.7638 241.085 12.4981C241.085 11.4957 224.211 15.8405 217.108 18.6721C199.307 25.7678 195.077 31.8413 202.572 39.5429C205.743 42.8021 205.944 43.2723 204.168 43.2723C201.157 43.2723 194.119 36.4459 193.452 32.8791C192.783 29.2986 196.014 24.8619 202.097 21.0088C207.143 17.8125 223.692 12.3199 234.894 10.1238C243.412 8.45376 243.975 8.18731 245.424 5.14083C246.928 1.97831 250.174 0 253.86 0C255.584 0 255.537 0.280989 253.234 3.68527L250.742 7.37056L260.761 8.55138C283.131 11.1881 297.229 19.11 303.084 32.3331C305.479 37.7424 305.132 48.7562 302.388 54.4265C295.317 69.0378 272.906 82.2224 253.241 83.34C243.181 83.9117 238.187 82.7496 235.394 79.187L233.593 76.8889L230.927 80.2416C228.249 83.6094 227.267 84.153 226.057 82.9387ZM261.318 78.5789C282.788 71.9795 298.799 57.2195 300.546 42.4142C301.443 34.8158 300.307 31.1677 295.307 25.5874C288.29 17.7548 278.495 13.5667 263.136 11.831C248.018 10.1225 249.393 9.52411 244.562 19.9151C237.856 34.3394 232.651 53.311 230.943 69.5578C230.419 74.5389 230.465 74.6612 232.417 73.4916C234.129 72.466 234.6 72.5715 235.553 74.1937C238.732 79.6042 240.706 80.644 247.798 80.644C251.921 80.644 257.245 79.8307 261.318 78.5789ZM75.074 80.1206C70.5971 75.6282 72.6925 61.6926 80.1423 46.4153C82.5951 41.3851 89.0312 34.4212 91.2271 34.4212C91.813 34.4212 93.1345 33.4254 94.1638 32.2084C95.9604 30.0842 96.0911 30.0677 97.4275 31.7968C98.1932 32.7874 99.348 35.8079 99.9937 38.509C100.844 42.0661 101.809 43.7134 103.495 44.484C105.297 45.308 105.575 45.846 104.73 46.8688C104.129 47.5953 103.094 48.1897 102.431 48.1897C101.697 48.1897 100.775 50.9198 100.077 55.1589C98.3525 65.6394 93.8388 73.7499 86.9403 78.7645C82.55 81.9559 77.4803 82.5353 75.074 80.1206ZM84.1441 77.2703C89.3906 74.5478 95.6949 62.7856 96.9729 53.3349C97.6115 48.6129 97.3989 47.3639 95.3218 43.6348C93.2842 39.9763 92.6691 39.4989 91.0878 40.3481C84.2118 44.0408 74.6078 74.6794 79.3757 77.7119C81.2384 78.8967 80.9604 78.9224 84.1441 77.2703ZM313.021 80.8748C308.675 77.9632 308.678 69.3783 313.028 56.7173C316.915 45.4026 321.514 38.1325 326.335 35.6814C328.23 34.7179 330.357 33.155 331.062 32.2084C333.557 28.8544 334.962 30.4534 337.147 39.1364C337.882 42.0569 338.949 43.6973 340.603 44.4539C342.459 45.3022 342.751 45.8448 341.904 46.8688C341.303 47.5953 340.255 48.1897 339.575 48.1897C338.286 48.1897 337.167 51.163 337.144 54.6496C337.096 62.0497 330.599 74.051 324.074 78.7942C320.296 81.54 315.391 82.4633 313.021 80.8748ZM321.365 77.0953C327.15 73.6663 334.091 59.8868 334.158 51.6965C334.177 49.5684 333.271 45.9217 332.147 43.5927C330.356 39.8785 329.868 39.4855 328.175 40.3946C322.063 43.6771 312.616 70.1074 315.38 76.1939C316.697 79.0941 317.731 79.2498 321.365 77.0953ZM342.202 78.3678C339.568 75.555 339.518 72.2702 341.972 63.4121C343.161 59.1218 343.528 56.1989 342.952 55.6148C341.591 54.2345 341.832 53.107 343.489 53.107C344.31 53.107 346.448 50.1154 348.388 46.2483C350.634 41.7736 352.767 38.9158 354.526 38.0268C362.788 33.8504 366.771 35.4439 368.458 43.6005C370.382 52.8988 367.436 55.8999 355.495 56.8046L348.869 57.3067L347.361 62.5124C345.317 69.566 345.15 75.6 346.966 76.7523C349.702 78.4891 351.287 77.6623 357.53 71.2426C360.979 67.6945 364.028 65.0183 364.304 65.2955C365.378 66.3726 360.82 72.429 355.921 76.437C349.846 81.4064 345.605 82.0032 342.202 78.3678ZM362.726 52.0094C364.386 50.3435 364.694 49.1391 364.271 45.9733C363.98 43.798 363.056 41.3296 362.217 40.4879C360.837 39.1031 360.456 39.1804 358.206 41.301C355.543 43.812 350.851 51.2975 350.851 53.0363C350.851 53.6457 352.919 54.0905 355.751 54.0905C359.435 54.0905 361.167 53.5736 362.726 52.0094Z" fill="white" stroke="black" mask="url(#path-1-inside-1_54_5107)"/>
</g>
<path opacity="0.7" d="M89 125.271C116.369 122.534 215.991 117.211 297.55 125.271C255.214 125.271 200.054 126.086 164.538 134.576" stroke="white" stroke-width="3" stroke-linecap="round" stroke-linejoin="round"/>
</svg>
