<svg width="10" height="10" viewBox="0 0 10 10" fill="none" xmlns="http://www.w3.org/2000/svg">
<path d="M8.58021 9.1998C8.83084 9.1998 9.0712 9.10147 9.24842 8.92644C9.42563 8.7514 9.5252 8.51401 9.5252 8.26647V5.98727C9.5252 5.73974 9.42563 5.50234 9.24842 5.3273C9.0712 5.15227 8.83084 5.05394 8.58021 5.05394H7.26858C7.26858 4.72603 7.28811 4.39812 7.32717 4.0702C7.38575 3.723 7.4834 3.41438 7.62011 3.14434C7.75682 2.87429 7.9329 2.6618 8.14836 2.50687C8.36255 2.33327 8.63597 2.24647 8.9686 2.24647V0.799805C8.42177 0.799805 7.94298 0.915538 7.53223 1.147C7.12432 1.37555 6.77385 1.69203 6.50692 2.07287C6.23818 2.49208 6.04029 2.95168 5.92103 3.43367C5.80044 3.96543 5.74147 4.50901 5.74526 5.05394V8.26647C5.74526 8.51401 5.84482 8.7514 6.02204 8.92644C6.19926 9.10147 6.43962 9.1998 6.69025 9.1998H8.58021ZM2.91032 9.1998C3.16094 9.1998 3.4013 9.10147 3.57852 8.92644C3.75574 8.7514 3.8553 8.51401 3.8553 8.26647V5.98727C3.8553 5.73974 3.75574 5.50234 3.57852 5.3273C3.4013 5.15227 3.16094 5.05394 2.91032 5.05394H1.59868C1.59868 4.72603 1.61821 4.39812 1.65727 4.0702C1.71649 3.723 1.81414 3.41438 1.95021 3.14434C2.08692 2.87429 2.263 2.6618 2.47846 2.50687C2.69266 2.33327 2.96607 2.24647 3.2987 2.24647V0.799805C2.75187 0.799805 2.27308 0.915538 1.86233 1.147C1.45442 1.37555 1.10396 1.69203 0.837024 2.07287C0.568281 2.49208 0.370398 2.95168 0.251134 3.43367C0.130539 3.96543 0.0715711 4.50901 0.0753676 5.05394V8.26647C0.0753676 8.51401 0.174928 8.7514 0.352147 8.92644C0.529365 9.10147 0.769725 9.1998 1.02035 9.1998H2.91032Z" fill="white"/>
</svg>
