<svg width="28" height="28" viewBox="0 0 28 28" fill="none" xmlns="http://www.w3.org/2000/svg">
<path d="M27.2256 14.2762C27.2256 6.7821 21.1519 0.708374 13.6577 0.708374C6.16363 0.708374 0.0899048 6.7821 0.0899048 14.2762C0.0899048 20.6361 4.47295 25.9785 10.3824 27.4466V18.4208H7.58402V14.2762H10.3824V12.4901C10.3824 7.87389 12.4706 5.73271 17.0073 5.73271C17.8659 5.73271 19.3499 5.90231 19.9594 6.07191V9.82427C19.6414 9.79247 19.0849 9.77127 18.3906 9.77127C16.1646 9.77127 15.306 10.614 15.306 12.8028V14.2762H19.7368L18.9736 18.4208H15.3007V27.7434C22.021 26.9325 27.2256 21.2138 27.2256 14.2762Z" fill="white"/>
</svg>
