<svg width="28" height="28" viewBox="0 0 28 28" fill="none" xmlns="http://www.w3.org/2000/svg">
<path d="M26.5171 8.0615C26.2212 6.94734 25.3494 6.06985 24.2424 5.77207C22.236 5.23096 14.1904 5.23096 14.1904 5.23096C14.1904 5.23096 6.14485 5.23096 4.13836 5.77207C3.0314 6.0699 2.15958 6.94734 1.86368 8.0615C1.32605 10.081 1.32605 14.2945 1.32605 14.2945C1.32605 14.2945 1.32605 18.5079 1.86368 20.5274C2.15958 21.6416 3.0314 22.4825 4.13836 22.7803C6.14485 23.3214 14.1904 23.3214 14.1904 23.3214C14.1904 23.3214 22.2359 23.3214 24.2424 22.7803C25.3494 22.4825 26.2212 21.6416 26.5171 20.5274C27.0547 18.5079 27.0547 14.2945 27.0547 14.2945C27.0547 14.2945 27.0547 10.081 26.5171 8.0615ZM11.559 18.12V10.4689L18.2835 14.2946L11.559 18.12Z" fill="white"/>
</svg>
