<svg width="54" height="53" viewBox="0 0 54 53" fill="none" xmlns="http://www.w3.org/2000/svg">
<circle cx="27.0142" cy="26.1765" r="26.1177" fill="#20EA6D"/>
<path fill-rule="evenodd" clip-rule="evenodd" d="M27.4147 10.0034C35.9585 10.0034 42.8841 17.1764 42.8841 26.0253C42.8841 34.8742 35.9585 42.0472 27.4147 42.0472C24.7818 42.051 22.1918 41.356 19.892 40.0284L19.4201 39.7432L14.7298 41.1724C14.4746 41.2503 14.2044 41.2594 13.9448 41.1988C13.6852 41.1382 13.4448 41.01 13.2465 40.8262C13.0482 40.6425 12.8985 40.4093 12.8115 40.1489C12.7246 39.8884 12.7033 39.6092 12.7497 39.3379L12.79 39.1632L14.1698 34.3054C12.7111 31.808 11.9417 28.9441 11.9453 26.0253C11.9453 17.1764 18.871 10.0034 27.4147 10.0034ZM24.0006 22.4893L19.3598 27.2958C19.2121 27.4436 19.0942 27.6204 19.0131 27.8159C18.9321 28.0114 18.8894 28.2216 18.8876 28.4343C18.8858 28.6471 18.925 28.858 19.0027 29.055C19.0805 29.2519 19.1954 29.4307 19.3406 29.5812C19.4859 29.7316 19.6586 29.8506 19.8487 29.9311C20.0388 30.0117 20.2425 30.0522 20.4479 30.0504C20.6533 30.0485 20.8563 30.0043 21.0451 29.9204C21.2338 29.8364 21.4045 29.7143 21.5472 29.5613L25.0943 25.8875L28.6415 29.5613C28.9315 29.8617 29.3249 30.0304 29.7351 30.0304C30.1453 30.0304 30.5387 29.8617 30.8288 29.5613L35.4696 24.7548C35.7514 24.4526 35.9074 24.0479 35.9038 23.6278C35.9003 23.2077 35.7376 22.8058 35.4508 22.5088C35.164 22.2117 34.776 22.0432 34.3704 22.0396C33.9648 22.0359 33.574 22.1974 33.2823 22.4893L29.7351 26.1631L26.188 22.4893C25.8979 22.1889 25.5045 22.0202 25.0943 22.0202C24.6841 22.0202 24.2907 22.1889 24.0006 22.4893Z" fill="#161616"/>
</svg>
