<svg width="37" height="36" viewBox="0 0 37 36" fill="none" xmlns="http://www.w3.org/2000/svg">
<circle cx="18.3507" cy="18.2165" r="17.7835" fill="#161616"/>
<path d="M25.6579 13.576C24.2596 10.4298 21.8125 8.8567 18.3167 8.8567C13.0731 8.8567 9.92688 11.4785 9.92688 18.2953C9.92688 25.1121 13.5974 27.7339 18.3167 27.7339C23.036 27.7339 25.6579 24.5877 25.6579 22.4902C25.6579 20.3928 24.6091 17.2466 18.3167 17.2466C15.6949 17.2466 15.1705 18.5575 15.1705 19.8684C15.1705 21.4415 16.2193 22.4902 17.7924 22.4902C20.4142 22.4902 21.4629 20.9171 21.4629 17.2466C21.4629 13.576 19.3655 13.0516 18.3167 13.0516C17.268 13.0516 16.3944 13.4009 15.6949 14.1004" stroke="white" stroke-width="2.09746" stroke-linecap="round" stroke-linejoin="round"/>
</svg>
