<svg width="29" height="28" viewBox="0 0 29 28" fill="none" xmlns="http://www.w3.org/2000/svg">
<path d="M27.6458 14.2762C27.6458 21.5371 21.7629 27.42 14.5019 27.42C13.1452 27.42 11.8414 27.2133 10.6118 26.8317C11.1471 25.9572 11.9474 24.5262 12.2442 23.3868C12.4032 22.772 13.0604 20.2598 13.0604 20.2598C13.4896 21.076 14.7404 21.7703 16.0707 21.7703C20.0351 21.7703 22.8917 18.1239 22.8917 13.5925C22.8917 9.25183 19.3461 6.00297 14.7881 6.00297C9.1172 6.00297 6.10154 9.80832 6.10154 13.9582C6.10154 15.8874 7.12973 18.2882 8.76741 19.0514C9.0165 19.168 9.149 19.115 9.2073 18.8765C9.2497 18.6963 9.4723 17.8006 9.573 17.3872C9.6048 17.2547 9.5889 17.1381 9.4829 17.0109C8.9476 16.3484 8.51301 15.1401 8.51301 14.0112C8.51301 11.1121 10.7072 8.30844 14.4489 8.30844C17.6766 8.30844 19.9397 10.5079 19.9397 13.6561C19.9397 17.2123 18.143 19.6768 15.8057 19.6768C14.5178 19.6768 13.5479 18.6115 13.8606 17.3024C14.2316 15.739 14.9471 14.0536 14.9471 12.9247C14.9471 11.9177 14.4065 11.075 13.283 11.075C11.9633 11.075 10.9033 12.4371 10.9033 14.2656C10.9033 15.4316 11.2955 16.2159 11.2955 16.2159C11.2955 16.2159 9.99699 21.7173 9.75849 22.7455C9.4935 23.8797 9.5995 25.4802 9.71079 26.519C4.82425 24.6057 1.35809 19.8464 1.35809 14.2762C1.35809 7.01525 7.24102 1.13232 14.5019 1.13232C21.7629 1.13232 27.6458 7.01525 27.6458 14.2762Z" fill="white"/>
</svg>
