<svg width="10" height="10" viewBox="0 0 10 10" fill="none" xmlns="http://www.w3.org/2000/svg">
<path d="M1.41979 0.800196C1.16916 0.800196 0.928802 0.89853 0.751583 1.07356C0.574365 1.2486 0.474804 1.48599 0.474804 1.73353L0.474804 4.01273C0.474804 4.26027 0.574365 4.49766 0.751584 4.6727C0.928802 4.84773 1.16916 4.94606 1.41979 4.94606L2.73142 4.94606C2.73142 5.27397 2.71189 5.60188 2.67283 5.9298C2.61425 6.277 2.5166 6.58562 2.37989 6.85566C2.24318 7.12571 2.0671 7.3382 1.85164 7.49313C1.63745 7.66673 1.36403 7.75353 1.0314 7.75353L1.0314 9.2002C1.57823 9.2002 2.05702 9.08446 2.46777 8.853C2.87568 8.62445 3.22615 8.30797 3.49308 7.92713C3.76182 7.50792 3.95971 7.04832 4.07897 6.56633C4.19956 6.03457 4.25853 5.49099 4.25474 4.94606L4.25474 1.73353C4.25474 1.48599 4.15517 1.2486 3.97796 1.07356C3.80074 0.89853 3.56038 0.800196 3.30975 0.800196L1.41979 0.800196ZM7.08968 0.800196C6.83906 0.800196 6.5987 0.898529 6.42148 1.07356C6.24426 1.2486 6.1447 1.48599 6.1447 1.73353L6.1447 4.01273C6.1447 4.26027 6.24426 4.49766 6.42148 4.6727C6.5987 4.84773 6.83906 4.94606 7.08968 4.94606L8.40132 4.94606C8.40132 5.27397 8.38179 5.60188 8.34273 5.9298C8.28351 6.277 8.18586 6.58562 8.04979 6.85566C7.91308 7.12571 7.737 7.3382 7.52154 7.49313C7.30734 7.66673 7.03393 7.75353 6.7013 7.75353L6.7013 9.2002C7.24813 9.2002 7.72692 9.08446 8.13767 8.853C8.54558 8.62445 8.89604 8.30797 9.16298 7.92713C9.43172 7.50792 9.6296 7.04832 9.74887 6.56633C9.86946 6.03457 9.92843 5.49099 9.92463 4.94606L9.92463 1.73353C9.92463 1.48599 9.82507 1.2486 9.64785 1.07356C9.47063 0.898529 9.23027 0.800196 8.97965 0.800196L7.08968 0.800196Z" fill="white"/>
</svg>
