<svg width="111" height="111" viewBox="0 0 111 111" fill="none" xmlns="http://www.w3.org/2000/svg">
<path d="M52.602 1.86028C53.702 -0.209522 56.6679 -0.209523 57.7678 1.86028L60.5006 7.0026C61.4134 8.72012 63.7171 9.08499 65.1159 7.73359L69.304 3.68743C70.9897 2.05884 73.8105 2.97536 74.217 5.28376L75.227 11.0189C75.5643 12.9344 77.6425 13.9933 79.3904 13.1403L84.6239 10.5864C86.7304 9.55839 89.1299 11.3017 88.8032 13.6228L87.9915 19.3893C87.7204 21.3153 89.3696 22.9645 91.2956 22.6934L97.0622 21.8817C99.3832 21.555 101.127 23.9545 100.099 26.061L97.5446 31.2945C96.6916 33.0424 97.7505 35.1206 99.666 35.4579L105.401 36.4679C107.71 36.8744 108.626 39.6952 106.997 41.3809L102.951 45.569C101.6 46.9679 101.965 49.2715 103.682 50.1843L108.825 52.9171C110.894 54.017 110.894 56.983 108.825 58.0829L103.682 60.8157C101.965 61.7285 101.6 64.0322 102.951 65.431L106.997 69.6191C108.626 71.3048 107.71 74.1256 105.401 74.5321L99.666 75.5421C97.7505 75.8794 96.6916 77.9576 97.5446 79.7055L100.099 84.939C101.127 87.0455 99.3832 89.445 97.0622 89.1183L91.2956 88.3066C89.3696 88.0355 87.7204 89.6847 87.9915 91.6107L88.8032 97.3773C89.1299 99.6983 86.7304 101.442 84.6239 100.414L79.3904 97.8597C77.6425 97.0067 75.5643 98.0656 75.227 99.9811L74.217 105.716C73.8105 108.025 70.9897 108.941 69.304 107.313L65.1159 103.266C63.7171 101.915 61.4134 102.28 60.5006 103.997L57.7678 109.14C56.6679 111.21 53.702 111.21 52.602 109.14L49.8692 103.997C48.9564 102.28 46.6528 101.915 45.2539 103.266L41.0658 107.313C39.3801 108.941 36.5593 108.025 36.1528 105.716L35.1428 99.9811C34.8055 98.0656 32.7273 97.0067 30.9794 97.8597L25.7459 100.414C23.6394 101.442 21.2399 99.6983 21.5666 97.3773L22.3783 91.6107C22.6494 89.6847 21.0002 88.0355 19.0742 88.3066L13.3077 89.1183C10.9866 89.445 9.2433 87.0455 10.2713 84.939L12.8252 79.7055C13.6782 77.9576 12.6193 75.8794 10.7038 75.5421L4.96867 74.5321C2.66026 74.1256 1.74374 71.3048 3.37234 69.6191L7.41849 65.431C8.7699 64.0322 8.40503 61.7285 6.68751 60.8157L1.54518 58.0829C-0.524616 56.983 -0.524617 54.017 1.54518 52.9171L6.68751 50.1843C8.40503 49.2715 8.7699 46.9679 7.41849 45.569L3.37233 41.3809C1.74374 39.6952 2.66026 36.8744 4.96866 36.4679L10.7038 35.4579C12.6193 35.1206 13.6782 33.0424 12.8252 31.2945L10.2713 26.061C9.2433 23.9545 10.9866 21.555 13.3077 21.8817L19.0742 22.6934C21.0002 22.9645 22.6494 21.3153 22.3783 19.3893L21.5666 13.6228C21.2399 11.3017 23.6394 9.55839 25.7459 10.5864L30.9794 13.1403C32.7273 13.9933 34.8055 12.9344 35.1428 11.0189L36.1528 5.28376C36.5593 2.97535 39.3801 2.05884 41.0658 3.68743L45.2539 7.73359C46.6528 9.08499 48.9564 8.72012 49.8692 7.0026L52.602 1.86028Z" fill="#006633"/>
</svg>
