<svg width="53" height="53" viewBox="0 0 53 53" fill="none" xmlns="http://www.w3.org/2000/svg">
<circle cx="26.8159" cy="26.1765" r="26.1177" fill="#20EA6D"/>
<path fill-rule="evenodd" clip-rule="evenodd" d="M37.3852 14.5972C37.752 14.4432 38.1535 14.3901 38.5479 14.4434C38.9422 14.4967 39.3151 14.6544 39.6276 14.9002C39.9401 15.1459 40.1808 15.4706 40.3248 15.8406C40.4687 16.2106 40.5105 16.6123 40.4459 17.0039L37.0794 37.3662C36.7528 39.3304 34.5916 40.4568 32.7851 39.4784C31.2741 38.6599 29.0297 37.3988 27.011 36.083C26.0016 35.4243 22.9097 33.3151 23.2897 31.8142C23.6162 30.5309 28.8115 25.7086 31.7802 22.8416C32.9455 21.7152 32.4141 21.0654 31.0381 22.1015C27.6211 24.674 22.1349 28.586 20.321 29.6873C18.7208 30.6582 17.8866 30.824 16.8891 30.6582C15.0693 30.3563 13.3816 29.8886 12.0041 29.3187C10.1427 28.549 10.2332 25.9973 12.0026 25.2542L37.3852 14.5972Z" fill="#161616"/>
</svg>
