<svg width="36" height="36" viewBox="0 0 36 36" fill="none" xmlns="http://www.w3.org/2000/svg">
<circle cx="18.0824" cy="18.2165" r="17.7835" fill="#161616"/>
<path d="M22.7048 11.8141C21.9881 10.9956 21.593 9.94466 21.5931 8.8567H18.3526V21.861C18.3281 22.5649 18.0311 23.2318 17.5244 23.7209C17.0176 24.2101 16.3407 24.4832 15.6363 24.4828C14.1471 24.4828 12.9096 23.2663 12.9096 21.7561C12.9096 19.9523 14.6505 18.5994 16.4439 19.1553V15.8413C12.8257 15.3588 9.65857 18.1694 9.65857 21.7561C9.65857 25.2484 12.5531 27.7339 15.6259 27.7339C18.9189 27.7339 21.5931 25.0596 21.5931 21.7561V15.1596C22.9072 16.1033 24.4849 16.6096 26.1027 16.6068V13.3663C26.1027 13.3663 24.1311 13.4606 22.7048 11.8141Z" fill="white"/>
</svg>
