<svg width="20" height="21" viewBox="0 0 20 21" fill="none" xmlns="http://www.w3.org/2000/svg">
<path d="M16.5945 19.4913H3.06283C1.71011 19.4913 0.666097 18.4706 0.843399 17.1296L0.946001 16.3475C1.1323 15.2675 2.12052 14.588 3.19333 14.3549L9.75893 13.2002H9.88853L16.4541 14.3549C17.5449 14.6069 18.5152 15.2486 18.7015 16.3475L18.8041 17.1395C18.9814 18.4805 17.9373 19.5003 16.5846 19.5003L16.5945 19.4913ZM14.3238 6.00007C14.3238 7.19356 13.8497 8.33817 13.0058 9.18209C12.1618 10.026 11.0172 10.5001 9.82373 10.5001C8.63024 10.5001 7.48563 10.026 6.6417 9.18209C5.79778 8.33817 5.32366 7.19356 5.32366 6.00007C5.32366 4.80657 5.79778 3.66196 6.6417 2.81804C7.48563 1.97411 8.63024 1.5 9.82373 1.5C11.0172 1.5 12.1618 1.97411 13.0058 2.81804C13.8497 3.66196 14.3238 4.80657 14.3238 6.00007Z" stroke="#161616" stroke-width="1.5" stroke-linecap="round" stroke-linejoin="round"/>
</svg>
