<svg width="18" height="20" viewBox="0 0 18 20" fill="none" xmlns="http://www.w3.org/2000/svg">
<path d="M13.7048 3.81413C12.9881 2.99562 12.593 1.94466 12.5931 0.856705H9.35256V13.861C9.32809 14.5649 9.03115 15.2318 8.52438 15.7209C8.01762 16.2101 7.34067 16.4832 6.63634 16.4828C5.14714 16.4828 3.90964 15.2663 3.90964 13.7561C3.90964 11.9523 5.65054 10.5994 7.44387 11.1553V7.84126C3.82574 7.35885 0.658569 10.1694 0.658569 13.7561C0.658569 17.2484 3.55307 19.7339 6.62586 19.7339C9.91888 19.7339 12.5931 17.0596 12.5931 13.7561V7.15959C13.9072 8.10329 15.4849 8.60961 17.1027 8.60684V5.36625C17.1027 5.36625 15.1311 5.46064 13.7048 3.81413Z" fill="white"/>
</svg>
