<svg width="19" height="22" viewBox="0 0 19 22" fill="none" xmlns="http://www.w3.org/2000/svg">
<path d="M17.6579 6.576C16.2596 3.4298 13.8125 1.8567 10.3167 1.8567C5.07308 1.8567 1.92688 4.47854 1.92688 11.2953C1.92688 18.1121 5.59744 20.7339 10.3167 20.7339C15.036 20.7339 17.6579 17.5877 17.6579 15.4902C17.6579 13.3928 16.6091 10.2466 10.3167 10.2466C7.69491 10.2466 7.17054 11.5575 7.17054 12.8684C7.17054 14.4415 8.21927 15.4902 9.79237 15.4902C12.4142 15.4902 13.4629 13.9171 13.4629 10.2466C13.4629 6.576 11.3655 6.05163 10.3167 6.05163C9.26801 6.05163 8.39441 6.40086 7.69491 7.10037" stroke="white" stroke-width="2.09746" stroke-linecap="round" stroke-linejoin="round"/>
</svg>
