<svg width="22" height="18" viewBox="0 0 22 18" fill="none" xmlns="http://www.w3.org/2000/svg">
<path fill-rule="evenodd" clip-rule="evenodd" d="M10.9751 0.792679C11.8718 0.792679 12.7915 0.815751 13.6829 0.853505L14.7359 0.903844L15.7437 0.963622L16.6876 1.02759L17.5496 1.09471C18.4853 1.16591 19.3658 1.565 20.0361 2.22168C20.7064 2.87837 21.1235 3.75052 21.2139 4.68452L21.2558 5.13024L21.3345 6.08458C21.4079 7.07354 21.4624 8.15163 21.4624 9.18254C21.4624 10.2134 21.4079 11.2915 21.3345 12.2805L21.2558 13.2348L21.2139 13.6806C21.1235 14.6147 20.7062 15.487 20.0357 16.1437C19.3652 16.8004 18.4844 17.1994 17.5486 17.2704L16.6886 17.3364L15.7448 17.4015L14.7359 17.4612L13.6829 17.5116C12.7809 17.5506 11.8781 17.5709 10.9751 17.5724C10.0722 17.5709 9.16938 17.5506 8.26729 17.5116L7.21436 17.4612L6.20653 17.4015L5.26267 17.3364L4.40061 17.2704C3.46495 17.1992 2.58442 16.8001 1.91412 16.1434C1.24381 15.4867 0.826734 14.6146 0.736343 13.6806L0.694393 13.2348L0.615738 12.2805C0.535859 11.2497 0.493183 10.2164 0.487793 9.18254C0.487793 8.15163 0.542327 7.07354 0.615738 6.08458L0.694393 5.13024L0.736343 4.68452C0.826698 3.75068 1.24363 2.87866 1.91372 2.222C2.5838 1.56534 3.46409 1.16615 4.39956 1.09471L5.26057 1.02759L6.20443 0.963622L7.21331 0.903844L8.26624 0.853505C9.16868 0.814416 10.0718 0.794136 10.9751 0.792679ZM8.87765 6.63936V11.7257C8.87765 12.2102 9.40202 12.5123 9.82151 12.2711L14.2262 9.72788C14.322 9.67271 14.4016 9.59325 14.457 9.49751C14.5124 9.40177 14.5415 9.29313 14.5415 9.18254C14.5415 9.07195 14.5124 8.96331 14.457 8.86757C14.4016 8.77183 14.322 8.69237 14.2262 8.6372L9.82151 6.09507C9.72582 6.03982 9.61728 6.01075 9.50679 6.01077C9.3963 6.01079 9.28777 6.0399 9.1921 6.09517C9.09643 6.15045 9.017 6.22994 8.9618 6.32565C8.9066 6.42136 8.87758 6.52992 8.87765 6.64041V6.63936Z" fill="white"/>
</svg>
