<svg width="53" height="53" viewBox="0 0 53 53" fill="none" xmlns="http://www.w3.org/2000/svg">
<circle cx="26.6177" cy="26.1765" r="26.1177" fill="#20EA6D"/>
<path d="M27.0192 10.0034C35.563 10.0034 42.4886 17.1764 42.4886 26.0253C42.4886 34.8742 35.563 42.0472 27.0192 42.0472C24.2854 42.052 21.5996 41.3027 19.2381 39.8762L11.556 42.0472L13.6475 34.0875C12.2691 31.6408 11.545 28.858 11.5498 26.0253C11.5498 17.1764 18.4755 10.0034 27.0192 10.0034ZM21.7473 18.495L21.4379 18.5078C21.2378 18.5221 21.0424 18.5765 20.8624 18.668C20.6947 18.7666 20.5415 18.8896 20.4076 19.0333C20.222 19.2144 20.1168 19.3714 20.0039 19.5236C19.4317 20.2941 19.1236 21.24 19.1283 22.2121C19.1314 22.9971 19.3294 23.7614 19.6388 24.476C20.2715 25.9211 21.3126 27.4512 22.6862 28.8692C23.0173 29.2104 23.3422 29.5533 23.6918 29.8721C25.3987 31.4285 27.4327 32.5509 29.632 33.1502L30.5107 33.2896C30.7969 33.3056 31.083 33.2832 31.3708 33.2688C31.8212 33.2442 32.261 33.1179 32.6594 32.8987C32.8618 32.7903 33.0595 32.6727 33.2519 32.5462C33.2519 32.5462 33.3173 32.5003 33.4452 32.402C33.6541 32.2418 33.7824 32.128 33.9557 31.9406C34.0856 31.8017 34.1939 31.6404 34.2806 31.4567C34.4012 31.1955 34.5219 30.6973 34.5714 30.2823C34.6085 29.9651 34.5977 29.792 34.593 29.6847C34.5869 29.5132 34.4492 29.3354 34.2991 29.2601L33.3988 28.8419C33.3988 28.8419 32.053 28.2347 31.23 27.847C31.1438 27.8081 31.0516 27.7859 30.9577 27.7813C30.8519 27.7698 30.7449 27.782 30.644 27.8172C30.5431 27.8523 30.4507 27.9094 30.373 27.9848C30.3653 27.9816 30.2616 28.0729 29.1432 29.4764C29.079 29.5657 28.9906 29.6333 28.8892 29.6703C28.7878 29.7074 28.678 29.7124 28.5739 29.6847C28.4731 29.6568 28.3743 29.6215 28.2784 29.5789C28.0866 29.4956 28.0201 29.4636 27.8886 29.4059C27.0005 29.0052 26.1784 28.463 25.4522 27.7989C25.2573 27.6227 25.0763 27.4304 24.8906 27.2445C24.2821 26.6409 23.7517 25.958 23.3128 25.213L23.2215 25.0608C23.1569 24.9579 23.104 24.8477 23.0637 24.7323C23.0049 24.4968 23.1581 24.3077 23.1581 24.3077C23.1581 24.3077 23.534 23.8816 23.7088 23.6508C23.8789 23.4265 24.0228 23.2086 24.1156 23.0532C24.2982 22.7488 24.3554 22.4364 24.2595 22.1945C23.8263 21.0986 23.3788 20.0085 22.9167 18.9244C22.8255 18.7097 22.5548 18.5559 22.3088 18.5254C22.2253 18.5148 22.1417 18.5062 22.0582 18.4998C21.8505 18.4875 21.6422 18.4896 21.4348 18.5062L21.7473 18.495Z" fill="#161616"/>
</svg>
