<svg width="36" height="36" viewBox="0 0 36 36" fill="none" xmlns="http://www.w3.org/2000/svg">
<circle cx="17.7835" cy="18.2165" r="17.7835" fill="#161616"/>
<path fill-rule="evenodd" clip-rule="evenodd" d="M17.9751 9.79268C18.8718 9.79268 19.7915 9.81575 20.6829 9.85351L21.7359 9.90384L22.7437 9.96362L23.6876 10.0276L24.5496 10.0947C25.4853 10.1659 26.3658 10.565 27.0361 11.2217C27.7064 11.8784 28.1235 12.7505 28.2139 13.6845L28.2558 14.1302L28.3345 15.0846C28.4079 16.0735 28.4624 17.1516 28.4624 18.1825C28.4624 19.2134 28.4079 20.2915 28.3345 21.2805L28.2558 22.2348L28.2139 22.6806C28.1235 23.6147 27.7062 24.487 27.0357 25.1437C26.3652 25.8004 25.4844 26.1994 24.5486 26.2704L23.6886 26.3364L22.7448 26.4015L21.7359 26.4612L20.6829 26.5116C19.7809 26.5506 18.8781 26.5709 17.9751 26.5724C17.0722 26.5709 16.1694 26.5506 15.2673 26.5116L14.2144 26.4612L13.2065 26.4015L12.2627 26.3364L11.4006 26.2704C10.4649 26.1992 9.58442 25.8001 8.91412 25.1434C8.24381 24.4867 7.82673 23.6146 7.73634 22.6806L7.69439 22.2348L7.61574 21.2805C7.53586 20.2497 7.49318 19.2164 7.48779 18.1825C7.48779 17.1516 7.54233 16.0735 7.61574 15.0846L7.69439 14.1302L7.73634 13.6845C7.8267 12.7507 8.24363 11.8787 8.91372 11.222C9.5838 10.5653 10.4641 10.1661 11.3996 10.0947L12.2606 10.0276L13.2044 9.96362L14.2133 9.90384L15.2662 9.85351C16.1687 9.81442 17.0718 9.79414 17.9751 9.79268ZM15.8777 15.6394V20.7257C15.8777 21.2102 16.402 21.5123 16.8215 21.2711L21.2262 18.7279C21.322 18.6727 21.4016 18.5932 21.457 18.4975C21.5124 18.4018 21.5415 18.2931 21.5415 18.1825C21.5415 18.0719 21.5124 17.9633 21.457 17.8676C21.4016 17.7718 21.322 17.6924 21.2262 17.6372L16.8215 15.0951C16.7258 15.0398 16.6173 15.0108 16.5068 15.0108C16.3963 15.0108 16.2878 15.0399 16.1921 15.0952C16.0964 15.1504 16.017 15.2299 15.9618 15.3257C15.9066 15.4214 15.8776 15.5299 15.8777 15.6404V15.6394Z" fill="white"/>
</svg>
